<?xml version="1.0" encoding="UTF-8" standalone="no"?>
<!DOCTYPE svg PUBLIC "-//W3C//DTD SVG 1.1//EN" "http://www.w3.org/Graphics/SVG/1.1/DTD/svg11.dtd">
<svg xmlns="http://www.w3.org/2000/svg" version="1.1" viewBox="0 0 194 406" width="194.0pt" height="406.0pt">
<path d="M 0.00 0.00 L 160.43 0.00 C 158.15 3.50 156.11 7.26 153.53 10.54 C 149.84 14.93 144.83 17.60 140.74 21.75 C 136.94 25.53 132.43 28.39 127.05 29.17 C 122.41 29.74 118.29 28.65 113.89 27.41 C 98.79 23.20 82.57 23.84 67.75 28.86 C 62.27 30.69 57.15 33.94 51.18 33.79 C 49.00 32.47 47.21 30.43 45.27 28.77 C 39.93 24.05 36.88 17.48 33.76 11.22 C 32.14 7.67 32.74 4.33 30.17 1.39 C 29.29 1.77 28.41 2.16 27.52 2.53 C 26.29 11.09 24.59 20.65 27.03 29.06 C 28.87 36.47 30.72 44.15 34.05 51.05 C 30.97 55.75 27.52 59.93 24.98 64.99 C 17.05 80.10 15.11 98.09 19.46 114.56 C 25.04 136.03 41.17 153.82 61.41 162.56 C 65.07 164.10 68.85 165.31 72.45 167.01 C 67.66 167.39 62.89 167.22 58.00 167.26 C 38.93 167.32 19.86 167.19 0.80 167.33 C 2.18 173.01 4.48 178.20 6.45 183.67 C 33.79 256.91 61.03 330.41 88.40 403.62 C 88.91 403.55 89.41 403.47 89.92 403.40 C 91.68 398.50 93.90 393.82 96.01 389.07 C 123.75 326.82 151.51 264.57 179.27 202.33 C 184.14 191.59 188.64 180.64 194.00 170.14 L 194.00 406.00 L 0.00 406.00 L 0.00 0.00 Z" fill="#ffffff" />
<path d="M 160.43 0.00 L 164.51 0.00 C 163.61 6.17 162.55 12.04 160.77 18.03 C 159.54 25.14 155.98 30.60 153.19 37.14 C 151.78 40.40 149.63 43.08 147.60 45.95 C 150.92 49.85 154.40 53.44 157.25 57.73 C 165.11 69.23 169.44 83.06 169.51 97.00 C 169.40 112.35 164.13 127.58 154.69 139.69 C 147.48 148.94 138.13 156.45 127.55 161.49 C 123.30 163.53 118.82 164.89 114.52 166.83 C 125.29 167.66 136.20 167.03 147.00 167.22 C 162.62 166.35 178.35 167.04 194.00 166.72 L 194.00 170.14 C 188.64 180.64 184.14 191.59 179.27 202.33 C 151.51 264.57 123.75 326.82 96.01 389.07 C 93.90 393.82 91.68 398.50 89.92 403.40 C 89.41 403.47 88.91 403.55 88.40 403.62 C 61.03 330.41 33.79 256.91 6.45 183.67 C 4.48 178.20 2.18 173.01 0.80 167.33 C 19.86 167.19 38.93 167.32 58.00 167.26 C 62.89 167.22 67.66 167.39 72.45 167.01 C 68.85 165.31 65.07 164.10 61.41 162.56 C 41.17 153.82 25.04 136.03 19.46 114.56 C 15.11 98.09 17.05 80.10 24.98 64.99 C 27.52 59.93 30.97 55.75 34.05 51.05 C 30.72 44.15 28.87 36.47 27.03 29.06 C 24.59 20.65 26.29 11.09 27.52 2.53 C 28.41 2.16 29.29 1.77 30.17 1.39 C 32.74 4.33 32.14 7.67 33.76 11.22 C 36.88 17.48 39.93 24.05 45.27 28.77 C 47.21 30.43 49.00 32.47 51.18 33.79 C 57.15 33.94 62.27 30.69 67.75 28.86 C 82.57 23.84 98.79 23.20 113.89 27.41 C 118.29 28.65 122.41 29.74 127.05 29.17 C 132.43 28.39 136.94 25.53 140.74 21.75 C 144.83 17.60 149.84 14.93 153.53 10.54 C 156.11 7.26 158.15 3.50 160.43 0.00 Z" fill="#d80b01" />
<path d="M 164.51 0.00 L 194.00 0.00 L 194.00 166.72 C 178.35 167.04 162.62 166.35 147.00 167.22 C 136.20 167.03 125.29 167.66 114.52 166.83 C 118.82 164.89 123.30 163.53 127.55 161.49 C 138.13 156.45 147.48 148.94 154.69 139.69 C 164.13 127.58 169.40 112.35 169.51 97.00 C 169.44 83.06 165.11 69.23 157.25 57.73 C 154.40 53.44 150.92 49.85 147.60 45.95 C 149.63 43.08 151.78 40.40 153.19 37.14 C 155.98 30.60 159.54 25.14 160.77 18.03 C 162.55 12.04 163.61 6.17 164.51 0.00 Z" fill="#ffffff" />
</svg>