<!DOCTYPE svg PUBLIC "-//W3C//DTD SVG 20010904//EN" "http://www.w3.org/TR/2001/REC-SVG-20010904/DTD/svg10.dtd">
<svg version="1.0" xmlns="http://www.w3.org/2000/svg" width="1024px" height="768px" viewBox="0 0 10240 7680" preserveAspectRatio="xMidYMid meet">
<g id="layer101" fill="#1c1b17" stroke="none">
<path d="M3930 3275 l0 -355 710 0 710 0 0 355 0 355 -710 0 -710 0 0 -355z"/>
<path d="M3900 2405 l0 -305 750 0 750 0 0 305 0 305 -750 0 -750 0 0 -305z"/>
<path d="M3880 1660 l0 -310 760 0 760 0 0 310 0 310 -760 0 -760 0 0 -310z"/>
</g>
<g id="layer102" fill="#362d30" stroke="none">
<path d="M3930 3275 l0 -355 710 0 709 0 -1 355 0 355 -709 0 -709 0 0 -355z m1202 -65 c2 -22 0 -40 -4 -40 -5 0 -8 18 -8 40 0 22 2 40 4 40 2 0 6 -18 8 -40z m-985 -57 c0 -47 -1 -51 -6 -23 -6 31 -3 80 4 80 2 0 3 -26 2 -57z m891 -184 c9 -1 20 -1 25 0 4 0 7 -3 7 -7 0 -5 -13 -9 -30 -10 l-30 -1 2 57 2 57 3 -47 c3 -36 8 -48 21 -49z m-760 -12 c12 -3 10 -5 -5 -6 -20 -1 -23 4 -22 32 2 29 2 29 6 5 2 -15 12 -29 21 -31z m142 1 c0 -5 -13 -8 -30 -8 -16 0 -30 3 -30 8 0 4 14 7 30 7 17 0 30 -3 30 -7z"/>
<path d="M3900 2405 l0 -305 382 0 c252 0 378 4 368 10 -11 8 -9 9 13 8 15 -1 27 -6 27 -10 0 -4 8 -8 18 -8 14 0 15 2 2 10 -11 7 5 10 52 10 37 0 70 -4 73 -10 9 -14 275 -13 275 1 0 7 44 10 135 8 74 -2 137 0 141 4 4 3 6 37 4 74 -4 130 -2 302 4 312 3 5 6 52 5 105 l-1 96 -748 0 -749 0 -1 -305z m540 285 c0 -5 -21 -10 -46 -10 -27 0 -43 4 -39 10 3 6 24 10 46 10 21 0 39 -4 39 -10z m500 0 c0 -5 -20 -10 -45 -10 -25 0 -45 5 -45 10 0 6 20 10 45 10 25 0 45 -4 45 -10z m143 -577 c-13 -2 -33 -2 -45 0 -13 2 -3 4 22 4 25 0 35 -2 23 -4z"/>
<path d="M3880 1660 l-1 -310 389 0 c248 0 392 4 398 10 14 14 137 15 162 1 13 -7 71 -10 149 -9 92 1 115 3 83 8 -27 5 27 8 138 8 101 0 186 2 189 5 3 4 5 39 4 79 -6 236 -5 308 2 308 4 0 7 47 6 105 l-1 105 -758 0 -759 0 -1 -310z m550 290 c0 -5 -20 -10 -45 -10 -25 0 -45 5 -45 10 0 6 20 10 45 10 25 0 45 -4 45 -10z m510 0 c0 -5 -20 -10 -45 -10 -25 0 -45 5 -45 10 0 6 20 10 45 10 25 0 45 -4 45 -10z"/>
</g>
<g id="layer103" fill="#3e4648" stroke="none">
<path d="M3930 3621 c0 -5 6 -12 13 -14 9 -4 9 -6 0 -6 -10 -1 -12 -76 -13 -320 l0 -319 25 3 c14 1 28 -2 31 -6 3 -5 -9 -9 -25 -9 -21 0 -31 -5 -31 -15 0 -13 29 -15 200 -15 175 1 198 3 193 16 -4 12 -14 14 -38 10 -55 -11 -88 49 -50 88 9 9 11 17 5 21 -5 3 -10 11 -10 16 0 6 5 7 10 4 6 -4 10 17 10 54 0 34 -4 61 -10 61 -5 0 -10 5 -10 11 0 5 5 7 10 4 6 -3 10 -1 10 4 0 6 -7 11 -15 11 -8 0 -15 7 -15 16 0 14 2 14 16 3 14 -12 15 -1 12 114 -1 70 0 127 5 127 6 0 11 -167 7 -267 -1 -24 3 -43 8 -43 6 0 13 -7 16 -16 4 -12 2 -15 -9 -10 -12 4 -15 -4 -15 -44 0 -65 24 -69 38 -7 l10 42 1 -38 c1 -36 -19 -73 -33 -60 -3 4 -6 -10 -6 -30 0 -30 4 -37 19 -37 11 0 28 -11 39 -25 l19 -24 291 0 c219 0 292 3 296 12 3 8 7 9 13 1 5 -7 76 -12 204 -13 l196 -2 -3 118 c-2 65 -4 125 -4 133 1 15 0 109 -3 323 -1 64 1 117 6 117 4 0 7 5 7 10 0 6 -44 10 -112 10 -102 0 -131 -9 -73 -23 15 -3 12 -5 -9 -6 -26 -1 -28 -3 -22 -34 5 -27 2 -37 -16 -53 -13 -10 -18 -12 -12 -4 6 8 11 39 12 68 0 47 -2 52 -22 51 -11 0 -15 -3 -8 -6 20 -8 14 -26 -8 -20 -11 3 -22 1 -25 -4 -3 -4 -13 -5 -21 -2 -13 5 -15 -1 -13 -28 3 -50 0 -83 -8 -76 -3 4 -5 29 -4 56 2 56 -10 64 -66 47 -30 -8 -32 -13 -36 -60 -3 -31 -4 -23 -3 22 l1 72 -272 0 c-150 0 -273 -4 -273 -9 0 -4 11 -6 25 -3 15 2 25 0 25 -7 0 -6 -9 -11 -20 -11 -18 0 -20 -7 -20 -62 0 -40 -4 -58 -9 -49 -5 7 -7 31 -5 52 3 31 -1 41 -16 49 -11 6 -25 8 -30 5 -6 -3 -10 -2 -10 4 0 6 -8 8 -17 5 -17 -5 -17 -5 0 6 9 6 21 9 26 5 5 -3 12 -1 16 5 4 6 -8 10 -30 10 l-36 0 3 -65 c1 -35 -1 -67 -5 -71 -4 -4 -7 4 -7 17 0 14 -6 31 -12 38 -10 11 -10 13 0 7 8 -5 12 1 12 19 0 20 -4 26 -14 22 -8 -3 -17 -1 -20 6 -3 9 -6 9 -13 0 -6 -8 -13 -9 -23 -2 -13 8 -13 10 0 19 12 8 11 10 -7 10 -19 0 -21 -4 -18 -60 2 -33 -1 -57 -6 -54 -5 3 -9 23 -9 44 0 32 -4 39 -22 43 l-23 4 23 2 c12 0 22 6 22 11 0 6 -42 10 -105 10 -58 0 -105 -4 -105 -9z m964 -15 c-3 -8 -12 -12 -20 -9 -21 8 -17 23 6 23 13 0 18 -5 14 -14z m-844 -131 c5 3 11 1 15 -5 3 -5 -1 -10 -9 -10 -10 0 -13 -6 -9 -16 4 -11 2 -15 -6 -13 -7 3 -12 8 -12 12 1 4 2 44 3 90 l2 82 3 -73 c2 -40 8 -70 13 -67z m1191 93 c-4 -35 -6 -38 -9 -15 -3 26 3 57 10 57 2 0 1 -19 -1 -42z m-1041 -53 c0 -8 -7 -15 -16 -15 -14 0 -14 3 -4 15 7 8 14 15 16 15 2 0 4 -7 4 -15z m867 -5 c-1 -20 -27 -38 -27 -19 0 8 20 37 27 39 1 0 1 -9 0 -20z m176 -82 c-2 -4 1 -17 8 -29 8 -15 8 -19 0 -15 -7 5 -12 -13 -13 -56 l-2 -63 -3 55 c-3 30 -10 58 -16 62 -9 5 -9 12 -1 25 7 11 8 27 3 40 -5 13 -4 25 1 28 6 4 11 16 11 28 1 12 5 2 9 -23 4 -25 6 -48 3 -52z m-1093 36 c0 -19 -4 -33 -8 -30 -8 5 -4 66 4 66 2 0 4 -16 4 -36z m982 6 c3 -17 1 -33 -4 -36 -4 -3 -8 11 -8 30 0 44 6 47 12 6z m-111 -31 l-10 -24 0 26 c-1 14 2 29 6 33 12 12 14 -9 4 -35z m-540 -156 c-2 -18 -8 -33 -13 -33 -6 0 -8 6 -5 13 3 8 1 20 -4 28 -7 12 -9 12 -9 0 0 -8 -3 -11 -6 -8 -4 4 -1 14 7 23 8 9 15 42 15 73 1 31 3 63 5 71 4 25 14 -133 10 -167z m323 91 c-1 -30 2 -57 7 -60 5 -3 5 -12 0 -22 -4 -9 -6 -23 -4 -29 3 -7 0 -13 -6 -13 -6 0 -12 15 -12 33 l-2 32 -7 -35 -7 -35 -2 36 c0 19 3 39 9 45 5 5 10 39 11 74 1 36 5 57 8 47 4 -11 6 -43 5 -73z m-434 34 c0 -26 -4 -38 -8 -30 -8 12 -4 72 4 72 2 0 4 -19 4 -42z m542 -80 c2 -36 0 -64 -4 -61 -5 2 -7 46 -6 96 1 95 5 81 10 -35z m-322 72 c0 -19 -7 -33 -20 -40 -14 -7 -20 -7 -20 0 0 5 5 10 10 10 6 0 10 14 10 30 0 17 5 30 10 30 6 0 10 -13 10 -30z m108 6 c-1 -13 4 -31 12 -41 14 -17 13 -17 -7 -6 -16 8 -23 21 -23 41 0 17 5 30 11 30 6 0 9 -11 7 -24z m-648 5 c0 -6 9 -8 20 -6 16 3 20 -1 19 -23 0 -18 -3 -22 -7 -12 -4 8 -15 16 -24 16 -15 2 -18 -8 -19 -55 -1 -31 -4 -44 -6 -28 -2 15 -9 25 -14 22 -5 -4 -9 -1 -9 4 0 6 5 11 10 11 6 0 10 9 10 20 0 11 -5 20 -10 20 -6 0 -5 8 2 20 13 21 28 27 28 11z m101 -68 c-1 -38 3 -81 8 -98 8 -26 9 -27 10 -7 1 13 5 21 10 17 5 -3 12 5 14 17 2 13 5 -12 6 -55 1 -52 -2 -76 -9 -72 -6 4 -8 16 -4 27 4 14 2 18 -5 14 -6 -4 -11 0 -11 8 0 9 -3 16 -8 16 -4 0 -8 -54 -8 -119 -1 -91 2 -121 12 -125 7 -3 18 3 23 12 8 12 10 13 11 3 0 -8 8 -24 18 -35 11 -13 12 -17 2 -10 -8 6 -30 12 -49 12 -32 1 -51 14 -51 37 0 6 5 3 10 -5 7 -10 10 6 10 55 0 39 -4 77 -10 85 -6 9 -5 20 3 29 10 12 9 14 -7 7 -19 -6 -19 -6 -3 12 12 13 17 36 17 80 0 52 -3 62 -17 62 -16 1 -16 2 -3 13 20 16 27 52 8 42 -10 -6 -11 -5 0 6 6 7 12 22 12 33 0 10 3 16 7 13 3 -4 5 -37 4 -74z m-171 42 c0 -21 -2 -24 -13 -13 -10 9 -11 16 -3 25 15 17 16 16 16 -12z m1155 -16 c-4 -5 0 -21 9 -34 20 -31 20 -41 1 -25 -13 11 -15 4 -13 -60 2 -63 5 -74 25 -87 13 -9 23 -20 23 -26 0 -5 -8 -3 -18 6 -21 19 -42 23 -24 5 6 -6 8 -17 3 -27 -5 -9 -9 -46 -9 -83 0 -65 1 -68 23 -68 13 0 27 -4 30 -10 4 -6 -8 -10 -29 -10 -19 0 -43 -3 -53 -6 -15 -5 -16 -4 -2 5 17 11 26 86 9 76 -6 -3 -10 -1 -10 4 0 6 4 11 10 11 6 0 9 29 8 69 -1 38 -6 69 -11 68 -16 -4 -17 73 -2 80 11 4 15 24 15 82 1 57 3 72 11 58 5 -9 7 -22 4 -28z m-114 -74 c0 -70 12 -82 36 -34 12 22 13 21 12 -21 0 -27 -3 -38 -7 -28 -5 12 -12 14 -21 9 -7 -5 -11 -13 -7 -19 3 -6 2 -13 -4 -17 -5 -3 -10 -31 -10 -61 0 -44 3 -54 17 -54 15 0 14 -2 -3 -15 -14 -11 -15 -14 -4 -15 13 0 13 -1 0 -10 -12 -7 -12 -12 -2 -22 7 -7 12 -8 12 -2 0 6 7 11 14 11 12 0 13 -5 5 -19 -8 -15 -7 -23 8 -34 10 -7 14 -14 8 -14 -5 -1 -29 -4 -51 -6 -41 -5 -41 -4 -36 23 3 15 10 31 16 35 8 5 7 11 -2 20 -6 6 -12 17 -12 23 0 5 5 3 10 -5 7 -11 10 4 10 50 0 42 -3 60 -9 51 -6 -9 -10 9 -13 53 -3 73 -1 89 13 80 5 -3 9 18 9 47 0 29 3 50 6 47 3 -3 5 -36 5 -73z m269 45 c0 -22 -4 -28 -15 -24 -8 4 -15 10 -15 16 0 5 5 6 12 2 7 -4 8 -3 4 4 -7 11 0 32 10 32 2 0 4 -13 4 -30z m-927 -71 c-4 -4 -6 15 -3 44 l5 52 3 -44 c2 -24 0 -47 -5 -52z m223 31 c-1 -55 -10 -68 -14 -19 -2 28 5 69 12 69 2 0 3 -22 2 -50z m113 -6 c-4 -60 -14 -56 -15 6 -1 27 3 47 8 44 5 -3 8 -26 7 -50z m481 34 c0 -19 -2 -20 -10 -8 -13 19 -13 30 0 30 6 0 10 -10 10 -22z m-651 -56 c-1 -17 -3 -21 -6 -9 -2 9 -8 15 -13 12 -4 -3 -10 1 -13 8 -3 8 3 14 14 14 15 1 19 -5 18 -25z m28 -24 c-2 -13 -4 -5 -4 17 -1 22 1 32 4 23 2 -10 2 -28 0 -40z m-267 21 c0 -5 4 -8 8 -5 5 3 9 -18 9 -47 1 -43 0 -47 -7 -22 -4 17 -8 24 -9 16 -2 -24 -10 -6 -15 32 -3 20 -1 37 4 37 6 0 10 -5 10 -11z m129 -56 c-1 -38 -4 -54 -6 -38 -2 17 -10 35 -16 40 -18 15 -19 35 -2 35 8 0 15 7 15 15 0 8 2 15 5 15 3 0 4 -30 4 -67z m331 48 c0 -5 -9 -11 -20 -14 -11 -3 -20 -1 -20 3 0 5 8 11 18 13 9 3 18 5 20 6 1 0 2 -3 2 -8z m-706 -83 c-2 -3 2 -9 8 -11 10 -4 10 -7 1 -14 -6 -5 -13 -33 -16 -63 l-3 -55 -2 58 c-2 44 -5 56 -14 51 -9 -5 -9 -2 1 9 12 15 11 17 -2 17 -10 0 -14 6 -11 15 4 8 10 12 15 9 5 -3 10 12 10 33 l1 38 8 -40 c4 -22 6 -43 4 -47z m867 39 l-6 -32 -3 29 c-3 22 -6 26 -13 15 -7 -11 -9 -9 -9 8 0 16 5 20 18 16 14 -3 17 -11 13 -36z m355 -23 c21 4 24 1 23 -22 0 -15 -3 -21 -6 -14 -7 18 -31 15 -37 -5 -3 -10 -5 -40 -5 -66 1 -26 -1 -51 -5 -54 -3 -4 -6 19 -6 50 0 31 -5 59 -10 62 -6 4 -7 12 -3 18 9 14 10 17 13 65 l3 37 4 -38 c4 -33 7 -37 29 -33z m-896 24 c0 -17 -3 -28 -7 -25 -9 10 -10 57 -1 57 4 0 8 -14 8 -32z m481 4 c-6 -11 -7 -23 -3 -27 4 -5 1 -5 -6 -1 -7 4 -11 10 -9 14 2 4 7 16 11 26 3 10 9 16 12 13 3 -3 1 -14 -5 -25z m107 -3 c-1 -17 -4 -25 -8 -18 -7 10 -2 49 5 49 2 0 3 -14 3 -31z m-480 -79 c0 -55 -4 -98 -9 -95 -4 3 -7 45 -4 93 5 110 4 102 9 102 3 0 4 -45 4 -100z m328 1 c2 -55 0 -93 -7 -96 -6 -5 -9 28 -8 95 1 55 3 99 6 96 3 -2 6 -45 9 -95z m-436 -53 c0 -82 -9 -112 -17 -55 -2 12 -5 32 -8 44 -3 12 -1 25 5 28 5 3 10 22 10 41 0 19 2 34 5 34 3 0 5 -41 5 -92z m220 77 c0 -8 -4 -15 -10 -15 -5 0 -10 7 -10 15 0 8 5 15 10 15 6 0 10 -7 10 -15z m108 -25 c-2 -58 -13 -66 -14 -9 -1 27 3 49 7 49 5 0 8 -18 7 -40z m216 -89 c-4 -62 -14 -64 -14 -3 0 29 -4 52 -10 52 -5 0 -10 5 -10 11 0 5 5 7 11 3 6 -3 10 1 9 12 -1 11 -1 28 0 39 4 35 17 -68 14 -114z m-494 49 c0 -31 -3 -38 -15 -34 -8 4 -12 11 -8 18 4 6 8 16 9 21 0 6 2 16 2 23 4 28 12 9 12 -28z m167 9 c0 -21 -3 -26 -9 -16 -4 9 -5 22 -2 31 9 23 11 20 11 -15z m268 -19 c0 -22 -21 -22 -22 1 -1 12 3 19 10 16 7 -2 12 -10 12 -17z m-267 -65 c1 -19 -2 -36 -6 -39 -6 -3 -8 29 -3 64 3 22 8 8 9 -25z m106 -8 c1 -20 -2 -33 -6 -31 -4 3 -7 20 -6 39 2 44 9 38 12 -8z m-201 -49 c7 -4 18 -6 25 -3 6 2 12 0 12 -5 0 -5 -13 -8 -29 -8 -25 1 -30 5 -33 35 -2 18 -2 36 1 39 4 3 8 -7 9 -23 2 -15 9 -31 15 -35z m310 31 c-7 -24 14 -41 40 -33 9 3 17 1 17 -5 0 -6 5 -11 10 -11 6 0 10 6 10 14 0 20 30 29 37 11 3 -10 12 -13 23 -10 10 3 21 2 24 -3 9 -15 -53 -23 -116 -16 l-58 7 0 39 c0 21 4 37 9 34 5 -3 7 -15 4 -27z m-737 -36 c13 2 28 -1 33 -7 7 -8 -1 -10 -30 -8 -33 3 -39 8 -38 26 1 18 2 18 6 3 4 -14 12 -18 29 -14z m304 18 c0 -5 11 -8 24 -7 43 5 38 -21 -5 -32 -43 -11 -51 -6 -42 26 5 21 23 31 23 13z m896 -18 c14 2 27 0 30 -4 3 -5 -11 -9 -30 -9 -31 0 -36 3 -35 23 1 18 2 19 6 4 4 -14 11 -18 29 -14z m-626 -5 c0 -5 -11 -8 -24 -8 -14 0 -27 3 -29 8 -3 4 8 7 24 7 16 0 29 -3 29 -7z m110 -4 c0 -2 -13 -4 -30 -4 -16 0 -30 4 -30 8 0 5 14 7 30 4 17 -2 30 -6 30 -8z"/>
<path d="M3900 2681 c0 -16 6 -32 13 -35 9 -5 9 -7 0 -12 -8 -4 -12 -77 -12 -270 l-1 -264 327 1 c181 1 312 5 293 9 -26 6 -12 8 55 9 237 6 308 5 318 -2 8 -6 5 -7 -5 -3 -10 3 -18 1 -18 -4 0 -6 17 -10 38 -9 20 0 31 3 25 6 -23 9 -13 20 13 15 19 -3 22 -7 12 -13 -9 -6 -3 -9 17 -9 23 0 27 3 15 10 -13 8 -12 10 3 10 9 0 17 -4 17 -10 0 -5 10 -9 23 -9 16 1 18 2 5 6 -50 13 -1 18 162 17 160 -2 180 0 181 15 1 9 1 96 -1 194 -1 97 2 177 6 177 5 0 10 29 12 65 2 47 0 65 -10 65 -9 0 -9 3 0 12 17 17 15 58 -2 58 -8 0 -17 -6 -20 -12 -5 -10 -7 -10 -12 0 -4 9 -56 12 -211 12 -178 0 -204 -2 -199 -15 4 -12 -4 -15 -45 -15 -41 0 -50 3 -45 15 5 13 -22 15 -203 15 -192 0 -209 -1 -213 -18 -4 -14 -13 -17 -47 -14 -31 3 -41 8 -37 18 4 12 -32 14 -224 14 l-230 0 0 -29z m1388 2 c-16 -2 -40 -2 -55 0 -16 2 -3 4 27 4 30 0 43 -2 28 -4z"/>
<path d="M3880 1942 c0 -15 5 -33 12 -40 9 -9 9 -12 1 -12 -9 0 -12 -75 -13 -270 l-1 -270 328 2 c180 0 306 4 278 8 -40 5 -26 7 65 9 236 6 304 4 308 -8 2 -6 20 -11 40 -11 27 0 33 3 22 10 -20 12 -9 20 19 13 17 -4 19 -8 9 -14 -9 -6 -3 -9 17 -9 23 0 27 3 15 10 -18 12 -16 12 223 12 158 -1 177 1 178 16 1 9 1 96 -1 193 -1 97 2 179 7 182 14 9 15 130 1 139 -10 6 -10 8 0 8 7 0 12 13 12 30 0 24 -4 30 -21 30 -11 0 -17 -4 -14 -10 3 -5 2 -10 -4 -10 -5 0 -11 5 -13 10 -2 7 -77 9 -212 8 -192 -3 -208 -4 -194 -19 15 -15 11 -16 -47 -15 -48 1 -61 4 -53 13 5 7 26 14 46 16 20 2 -198 4 -485 5 l-523 2 0 -28z m550 3 c0 -11 -12 -15 -45 -15 -33 0 -45 4 -45 15 0 11 12 15 45 15 33 0 45 -4 45 -15z"/>
</g>
<g id="layer104" fill="#9b2820" stroke="none">
</g>
<g id="layer105" fill="#564448" stroke="none">
<path d="M3930 3621 c0 -5 6 -12 13 -14 9 -4 9 -6 0 -6 -10 -1 -12 -76 -13 -320 l0 -319 25 3 c14 1 28 -2 31 -6 3 -5 -9 -9 -25 -9 -21 0 -31 -5 -31 -15 0 -11 12 -15 44 -15 42 0 44 1 54 38 5 20 10 29 11 18 1 -14 7 -17 26 -14 14 3 29 0 34 -6 7 -8 -2 -10 -31 -8 -31 3 -39 1 -36 -9 4 -11 38 -15 151 -16 129 -2 146 -1 140 13 -4 12 -14 14 -38 10 -55 -11 -88 49 -50 88 9 9 11 17 5 21 -5 3 -10 11 -10 16 0 6 5 7 10 4 6 -4 10 17 10 54 0 34 -4 61 -10 61 -5 0 -10 5 -10 11 0 5 5 7 10 4 6 -3 10 -1 10 4 0 6 -7 11 -15 11 -8 0 -15 7 -15 16 0 14 3 14 15 4 13 -11 15 2 15 103 0 89 -3 119 -15 131 -17 16 -21 41 -5 31 16 -10 23 24 9 42 -10 12 -10 15 -1 9 8 -5 12 1 12 19 0 20 -4 26 -14 22 -8 -3 -17 -1 -20 6 -3 9 -6 9 -13 0 -6 -8 -13 -9 -23 -2 -13 8 -13 10 0 19 12 8 12 10 -5 10 -19 0 -20 -7 -23 -177 -1 -98 2 -191 7 -208 8 -26 9 -27 10 -7 1 13 5 21 10 17 5 -3 12 5 14 17 2 13 5 -12 6 -55 1 -52 -2 -76 -9 -72 -6 4 -8 16 -4 27 4 14 2 18 -5 14 -6 -4 -11 0 -11 8 0 9 -3 16 -8 16 -4 0 -8 -54 -8 -119 -1 -91 2 -121 12 -125 7 -3 18 3 23 12 8 12 10 13 11 3 0 -8 8 -24 18 -35 11 -13 12 -17 2 -10 -8 6 -30 12 -49 12 -32 1 -51 14 -51 37 0 6 5 3 10 -5 7 -10 10 6 10 55 0 39 -4 77 -10 85 -6 9 -5 20 3 29 10 12 9 14 -7 7 -19 -6 -19 -6 -3 12 12 13 17 36 17 80 0 52 -3 62 -17 62 -16 1 -16 2 -3 13 20 16 27 52 8 41 -10 -6 -11 -5 -1 7 6 8 12 39 12 70 0 30 0 59 1 64 2 6 2 29 1 52 -1 35 -5 42 -23 46 l-23 4 23 2 c12 0 22 6 22 11 0 6 -42 10 -105 10 -58 0 -105 -4 -105 -9z m70 -11 c0 -5 -10 -10 -22 -10 -19 0 -20 2 -8 10 19 13 30 13 30 0z m50 -135 c5 3 11 1 15 -5 3 -5 -1 -10 -9 -10 -10 0 -13 -6 -9 -16 4 -11 2 -15 -6 -13 -7 3 -12 8 -12 12 1 4 2 44 3 90 l2 82 3 -73 c2 -40 8 -70 13 -67z m150 40 c0 -8 -7 -15 -16 -15 -14 0 -14 3 -4 15 7 8 14 15 16 15 2 0 4 -7 4 -15z m-150 -104 c0 -6 9 -8 20 -6 17 3 20 -1 19 -28 -1 -24 -3 -27 -7 -12 -4 11 -15 21 -24 21 -15 2 -18 -8 -19 -55 -1 -31 -4 -44 -6 -28 -2 15 -9 25 -14 22 -5 -4 -9 -1 -9 4 0 6 5 11 10 11 6 0 10 9 10 20 0 11 -5 20 -10 20 -6 0 -5 8 2 20 13 21 28 27 28 11z m-70 -26 c0 -21 -2 -24 -13 -13 -10 9 -11 16 -3 25 15 17 16 16 16 -12z m74 -212 c5 -14 3 -23 -3 -23 -6 0 -12 -25 -13 -57 l-2 -58 -3 58 c-2 32 -8 55 -13 52 -6 -3 -7 1 -4 9 3 9 1 16 -5 16 -6 0 -8 7 -5 15 4 8 10 12 15 9 5 -3 10 12 10 33 l1 38 7 -35 c4 -19 11 -45 15 -57z m135 -143 c-16 -10 -32 -3 -23 11 3 5 10 7 15 4 5 -4 9 0 10 7 0 10 2 10 6 -1 3 -7 -1 -17 -8 -21z"/>
<path d="M4218 3618 c9 -9 15 -9 24 0 9 9 7 12 -12 12 -19 0 -21 -3 -12 -12z"/>
<path d="M4261 3400 c0 -126 4 -230 8 -230 5 0 12 -7 15 -16 4 -12 2 -15 -9 -10 -12 4 -15 -4 -15 -44 0 -65 24 -69 38 -7 l10 42 1 -38 c1 -34 -19 -74 -31 -62 -2 2 -5 -11 -6 -30 -2 -29 1 -35 17 -35 11 0 28 -11 39 -24 l19 -24 0 29 c0 32 10 49 21 34 4 -6 16 -10 27 -10 19 1 35 -12 35 -28 0 -5 -4 -6 -9 -2 -5 3 -12 1 -16 -5 -4 -6 -10 -8 -15 -5 -5 3 -11 1 -15 -4 -3 -6 92 -10 255 -11 171 0 260 3 260 10 0 5 -3 9 -7 9 -5 -1 -27 2 -50 6 -42 7 -43 9 -43 47 0 21 4 37 9 34 5 -3 7 -15 4 -27 -7 -24 14 -41 40 -33 10 3 17 0 17 -7 0 -7 10 -2 22 10 19 22 22 22 33 7 7 -9 19 -14 28 -10 8 3 18 1 22 -5 3 -6 -2 -11 -12 -11 -11 0 -28 -7 -39 -15 -16 -12 -17 -14 -2 -15 9 0 19 6 21 13 4 8 8 9 14 2 4 -6 33 -11 63 -13 45 -1 60 2 80 21 29 26 41 91 15 81 -8 -4 -15 -1 -15 5 0 6 7 11 15 11 12 0 14 14 13 69 -1 38 -6 69 -11 68 -16 -4 -17 73 -2 80 11 4 15 25 16 87 0 61 3 75 10 58 5 -13 6 -28 3 -33 -3 -6 1 -21 10 -34 20 -31 20 -41 1 -25 -13 11 -15 4 -13 -60 2 -63 5 -74 25 -87 13 -9 23 -20 23 -26 0 -5 -8 -3 -18 6 -21 19 -42 23 -24 5 6 -6 8 -17 3 -27 -5 -9 -9 -46 -9 -83 0 -65 1 -68 23 -68 13 0 27 -4 30 -10 4 -6 -9 -10 -32 -10 -22 0 -48 -7 -59 -15 -17 -13 -11 -14 64 -15 48 0 82 4 82 10 0 6 5 10 11 10 5 0 7 -4 4 -10 -4 -6 13 -10 43 -10 l50 0 -4 118 c-3 64 -4 124 -4 132 1 15 0 97 -3 323 -1 64 1 117 6 117 4 0 7 5 7 10 0 6 -44 10 -112 10 -102 0 -131 -9 -73 -23 16 -4 14 -5 -6 -6 -26 -1 -26 -2 -26 -81 0 -44 -3 -83 -6 -87 -4 -3 -7 13 -7 36 0 31 -3 40 -12 35 -10 -6 -10 -4 -2 7 6 8 11 38 12 67 0 47 -2 52 -22 51 -11 0 -15 -3 -8 -6 20 -8 14 -26 -8 -20 -11 3 -22 1 -25 -4 -3 -4 -12 -6 -21 -2 -12 4 -14 -4 -11 -43 3 -36 8 -48 18 -46 8 2 17 9 21 15 4 7 6 2 5 -10 -1 -23 -22 -37 -38 -28 -5 4 -6 0 -4 -8 3 -7 1 -24 -4 -38 -8 -20 -10 -16 -10 29 -1 40 -4 51 -13 46 -10 -6 -10 -4 0 7 6 7 12 27 12 44 0 30 -2 32 -37 30 -21 -1 -43 -3 -50 -4 -7 0 -13 -24 -16 -58 l-3 -58 -2 57 c-2 47 -5 58 -22 63 -28 9 -25 23 8 28 15 2 -26 5 -90 6 -66 0 -118 -3 -118 -8 0 -5 5 -11 12 -13 9 -3 9 -6 0 -12 -7 -4 -12 -3 -12 3 0 6 -8 7 -17 4 -16 -6 -16 -5 -4 10 12 15 10 17 -23 17 -33 0 -48 -12 -28 -23 4 -2 2 -2 -5 -1 -6 2 -13 -2 -16 -9 -2 -8 -5 -8 -11 1 -4 7 -2 12 3 12 6 0 11 5 11 10 0 6 -35 10 -84 10 -76 0 -85 -2 -91 -20 -3 -11 -9 -19 -13 -19 -27 4 -32 -4 -32 -58 0 -37 -3 -53 -9 -44 -5 7 -7 31 -5 52 3 31 -1 41 -17 49 -15 8 -24 8 -33 1 -10 -8 -16 -7 -25 3 -9 11 -8 15 5 20 9 3 20 4 24 1 5 -3 11 -1 15 5 4 6 -8 10 -29 10 l-34 0 -1 -230z m980 168 c-4 -35 -6 -38 -9 -15 -3 26 3 57 10 57 2 0 1 -19 -1 -42z m2 -140 c-2 -4 1 -17 8 -29 8 -15 8 -19 0 -15 -7 5 -12 -13 -13 -56 l-2 -63 -3 55 c-3 30 -10 58 -16 62 -9 5 -9 12 -1 25 7 11 8 27 3 40 -5 13 -4 25 1 28 6 4 11 16 11 28 1 12 5 2 9 -23 4 -25 6 -48 3 -52z m-767 45 c-11 -11 -17 4 -9 23 7 18 8 18 11 1 2 -10 1 -21 -2 -24z m334 5 c0 -5 -4 -8 -10 -8 -5 0 -10 10 -10 23 0 18 2 19 10 7 5 -8 10 -18 10 -22z m-329 -195 c-2 -18 -8 -33 -13 -33 -6 0 -8 6 -5 13 3 8 1 20 -4 28 -7 12 -9 12 -9 0 0 -8 -3 -11 -6 -8 -4 4 -1 14 7 23 8 9 15 42 15 73 1 31 3 63 5 71 4 25 14 -133 10 -167z m323 91 c-1 -30 2 -57 7 -60 5 -3 5 -12 0 -22 -4 -9 -6 -23 -4 -29 3 -7 0 -13 -6 -13 -6 0 -12 15 -12 33 l-2 32 -7 -35 -7 -35 -2 36 c0 19 3 39 9 45 5 5 10 39 11 74 1 36 5 57 8 47 4 -11 6 -43 5 -73z m-434 34 c0 -26 -4 -38 -8 -30 -8 12 -4 72 4 72 2 0 4 -19 4 -42z m541 -86 c1 -67 -1 -125 -4 -129 -4 -3 -7 7 -7 23 0 22 -3 26 -10 14 -8 -12 -10 -11 -10 8 0 12 5 21 11 20 8 -2 11 28 9 97 -1 55 1 97 4 94 3 -3 6 -60 7 -127z m-321 78 c0 -19 -7 -33 -20 -40 -14 -7 -20 -7 -20 0 0 5 5 10 10 10 6 0 10 14 10 30 0 17 5 30 10 30 6 0 10 -13 10 -30z m108 6 c-1 -13 4 -31 12 -41 14 -17 13 -17 -7 -6 -16 8 -23 21 -23 41 0 17 5 30 11 30 6 0 9 -11 7 -24z m323 -111 c0 -70 12 -82 36 -34 12 22 13 21 12 -21 0 -27 -3 -38 -7 -28 -5 12 -12 14 -21 9 -7 -5 -11 -13 -7 -19 3 -6 2 -13 -4 -17 -5 -3 -10 -31 -10 -61 0 -44 3 -54 17 -54 15 0 14 -2 -3 -15 -14 -11 -15 -14 -4 -15 11 0 12 -2 3 -8 -8 -5 -9 -13 -3 -22 6 -8 10 -10 10 -4 0 6 6 11 14 11 14 0 16 -14 3 -33 -4 -7 0 -15 9 -18 25 -10 11 -17 -39 -22 -44 -5 -44 -5 -39 23 3 15 10 32 16 36 8 6 7 10 -1 14 -7 2 -13 12 -13 21 0 15 2 15 10 2 7 -11 10 4 10 50 0 46 -3 61 -10 50 -7 -11 -10 -2 -11 33 -3 102 -2 110 11 102 6 -4 10 14 10 46 0 29 3 50 6 47 3 -3 5 -36 5 -73z m269 45 c0 -22 -4 -28 -15 -24 -8 4 -15 10 -15 16 0 5 5 6 12 2 7 -4 8 -3 4 4 -7 11 0 32 10 32 2 0 4 -13 4 -30z m-921 -65 c0 -47 -3 -83 -7 -81 -4 2 -6 21 -6 43 1 21 2 57 3 81 2 78 10 43 10 -43z m811 58 c-1 -24 -2 -26 -11 -10 -5 9 -7 22 -4 27 10 17 15 11 15 -17z m-594 -33 c-1 -55 -10 -68 -14 -19 -2 28 5 69 12 69 2 0 3 -22 2 -50z m113 -6 c-4 -60 -14 -56 -15 6 -1 27 3 47 8 44 5 -3 8 -26 7 -50z m-170 -22 c-1 -17 -3 -21 -6 -9 -2 9 -8 15 -13 12 -4 -3 -10 1 -13 8 -3 8 3 14 14 14 15 1 19 -5 18 -25z m28 -24 c-2 -13 -4 -5 -4 17 -1 22 1 32 4 23 2 -10 2 -28 0 -40z m-267 21 c0 -5 4 -8 8 -5 5 3 9 -18 9 -47 1 -43 0 -47 -7 -22 -4 17 -8 24 -9 16 -2 -24 -10 -6 -15 32 -3 20 -1 37 4 37 6 0 10 -5 10 -11z m129 -56 c-1 -38 -4 -54 -6 -38 -2 17 -10 35 -16 40 -18 15 -19 35 -2 35 8 0 15 7 15 15 0 8 2 15 5 15 3 0 4 -30 4 -67z m331 48 c0 -5 -9 -11 -20 -14 -11 -3 -20 -1 -20 3 0 5 8 11 18 13 9 3 18 5 20 6 1 0 2 -3 2 -8z m516 -67 c20 4 24 1 24 -21 0 -20 -3 -23 -14 -14 -22 18 -36 -9 -35 -68 1 -28 -1 -55 -5 -58 -3 -3 -6 19 -6 50 0 31 -4 58 -10 62 -6 4 -6 15 0 31 6 14 11 40 12 57 1 30 2 29 5 -6 4 -33 7 -37 29 -33z m-415 28 c-6 -11 -7 -23 -3 -27 4 -5 1 -5 -6 -1 -7 4 -11 10 -9 14 2 4 7 16 11 26 3 10 9 16 12 13 3 -3 1 -14 -5 -25z m111 6 c-6 -6 -8 -18 -5 -27 4 -13 3 -13 -5 -2 -12 16 -4 53 10 45 6 -4 6 -10 0 -16z m-484 -88 c0 -55 -4 -98 -9 -95 -4 3 -7 45 -4 93 5 110 4 102 9 102 3 0 4 -45 4 -100z m328 1 c2 -55 0 -93 -7 -96 -6 -5 -9 28 -8 95 1 55 3 99 6 96 3 -2 6 -45 9 -95z m-436 -52 c0 -61 -3 -88 -11 -84 -6 4 -8 9 -6 12 3 2 1 20 -4 41 -5 23 -4 41 3 49 6 7 8 26 6 43 -3 16 -1 30 4 30 4 0 8 -41 8 -91z m220 76 c0 -8 -4 -15 -10 -15 -5 0 -10 7 -10 15 0 8 5 15 10 15 6 0 10 -7 10 -15z m108 -25 c-2 -58 -13 -66 -14 -9 -1 27 3 49 7 49 5 0 8 -18 7 -40z m216 -89 c-4 -62 -14 -64 -14 -3 0 29 -4 52 -10 52 -5 0 -10 5 -10 11 0 5 5 7 11 3 6 -3 10 1 9 12 -1 11 -1 28 0 39 4 35 17 -68 14 -114z m-494 49 c0 -31 -3 -38 -15 -34 -8 4 -12 11 -8 18 4 6 8 16 9 21 0 6 2 16 2 23 4 28 12 9 12 -28z m167 9 c0 -21 -3 -26 -9 -16 -4 9 -5 22 -2 31 9 23 11 20 11 -15z m268 -19 c0 -22 -21 -22 -22 1 -1 12 3 19 10 16 7 -2 12 -10 12 -17z m-267 -65 c1 -19 -2 -36 -6 -39 -6 -3 -8 29 -3 64 3 22 8 8 9 -25z m106 -8 c1 -20 -2 -33 -6 -31 -4 3 -7 20 -6 39 2 44 9 38 12 -8z m-201 -49 c7 -4 18 -6 25 -3 6 2 12 0 12 -5 0 -5 -13 -8 -29 -8 -25 1 -30 5 -33 35 -2 18 -2 36 1 39 4 3 8 -7 9 -23 2 -15 9 -31 15 -35z m773 -5 c14 2 27 0 30 -4 3 -5 -11 -9 -30 -9 -31 0 -36 3 -35 23 1 18 2 19 6 4 4 -14 11 -18 29 -14z m-626 -5 c0 -5 -11 -8 -24 -8 -14 0 -27 3 -29 8 -3 4 8 7 24 7 16 0 29 -3 29 -7z m110 -4 c0 -2 -13 -4 -30 -4 -16 0 -30 4 -30 8 0 5 14 7 30 4 17 -2 30 -6 30 -8z"/>
<path d="M5003 3215 c0 -27 2 -38 4 -22 2 15 2 37 0 50 -2 12 -4 0 -4 -28z"/>
<path d="M4950 3622 c0 -5 16 -9 35 -10 19 -1 35 3 35 8 0 6 -16 10 -35 10 -19 0 -35 -4 -35 -8z"/>
<path d="M3900 2679 c0 -23 4 -30 14 -26 10 4 13 1 9 -9 -3 -7 -8 -14 -12 -14 -5 0 -8 -119 -7 -265 l0 -265 42 0 c25 0 44 5 47 13 4 10 6 10 6 0 1 -16 197 -19 203 -3 4 12 684 18 695 5 4 -4 0 -5 -9 -2 -10 4 -18 2 -18 -3 0 -5 17 -9 37 -8 21 1 32 3 25 6 -6 2 -12 7 -12 11 0 11 84 0 92 -13 5 -7 8 -6 8 4 0 13 26 15 180 14 159 -1 180 1 181 15 1 9 1 96 -1 194 -2 144 0 177 11 177 12 0 12 2 0 9 -7 5 -9 11 -4 14 15 9 16 107 1 107 -9 0 -9 3 0 12 17 17 15 58 -2 58 -8 0 -17 -6 -20 -12 -5 -10 -7 -10 -12 0 -4 9 -56 12 -211 12 -178 0 -204 -2 -199 -15 4 -10 -1 -15 -17 -16 -12 0 -51 -2 -87 -4 -48 -2 -57 -1 -36 6 16 4 33 6 37 4 4 -3 9 2 13 10 5 13 -22 15 -204 15 -123 0 -210 -4 -210 -9 0 -12 100 -25 135 -18 14 2 28 0 31 -5 3 -5 -48 -7 -123 -4 -109 4 -128 7 -127 20 2 14 -24 16 -227 16 l-229 0 0 -31z m240 3 c0 -5 -40 -8 -90 -8 -49 -1 -90 3 -90 7 0 4 41 8 90 8 50 0 90 -3 90 -7z m100 -1 c0 -11 -78 -13 -84 -3 -3 5 15 9 39 9 25 0 45 -3 45 -6z m94 -2 c-3 -5 -24 -9 -47 -8 -26 0 -35 3 -25 7 26 10 78 10 72 1z m976 2 c0 -10 -87 -8 -97 2 -3 4 17 7 45 7 29 0 52 -4 52 -9z m-1210 -491 c0 -5 -7 -10 -15 -10 -8 0 -15 5 -15 10 0 6 7 10 15 10 8 0 15 -4 15 -10z m58 -77 c-10 -2 -28 -2 -40 0 -13 2 -5 4 17 4 22 1 32 -1 23 -4z"/>
<path d="M3880 1942 c0 -15 5 -33 12 -40 7 -7 8 -12 2 -12 -8 0 -11 -88 -10 -270 l0 -270 42 0 c25 0 44 5 47 13 4 9 6 9 6 0 1 -9 21 -13 69 -12 49 1 60 3 42 9 -22 7 152 11 618 13 95 0 146 -3 151 -11 3 -6 22 -10 41 -10 19 1 29 3 23 5 -41 14 12 18 222 17 210 -1 235 0 236 15 1 9 1 94 -1 189 -2 133 1 176 11 189 10 12 10 15 2 9 -7 -4 -13 -2 -13 3 0 6 4 11 9 11 14 0 12 103 -2 112 -9 6 -9 8 1 8 7 0 12 13 12 30 0 24 -4 30 -21 30 -11 0 -17 -4 -14 -10 3 -5 1 -10 -4 -10 -6 0 -11 4 -11 9 0 6 -87 10 -210 11 -115 0 -210 -2 -210 -4 0 -3 6 -11 14 -18 12 -12 0 -15 -82 -17 -91 -2 -120 4 -56 13 16 2 36 6 44 9 8 3 29 8 45 10 17 2 -205 5 -492 6 l-523 1 0 -28z m650 -2 c44 -5 30 -7 -67 -8 -106 -1 -123 1 -123 15 0 17 18 16 190 -7z m-306 -2 c-6 -10 -284 -9 -284 0 0 4 65 7 144 7 79 0 142 -3 140 -7z m96 0 c0 -5 -19 -8 -42 -8 -24 0 -38 4 -31 8 15 9 73 9 73 0z m1013 0 c-2 -5 -20 -8 -39 -8 -19 0 -34 3 -34 8 0 4 18 7 39 7 22 0 37 -3 34 -7z m-1253 -498 c0 -5 -7 -10 -15 -10 -8 0 -15 5 -15 10 0 6 7 10 15 10 8 0 15 -4 15 -10z"/>
<path d="M4148 1353 c17 -2 47 -2 65 0 17 2 3 4 -33 4 -36 0 -50 -2 -32 -4z"/>
</g>
<g id="layer106" fill="#8c474a" stroke="none">
<path d="M4093 3322 c0 -153 -3 -287 -6 -298 -3 -10 0 -32 8 -49 l13 -30 2 35 c1 19 1 114 0 211 -1 136 2 178 12 187 17 14 16 55 -1 76 -9 11 -12 37 -9 81 3 44 0 65 -7 65 -9 0 -12 -77 -12 -278z"/>
<path d="M4700 3548 c0 -45 1 -48 19 -38 11 5 22 7 24 3 8 -15 4 -93 -4 -87 -5 3 -9 0 -9 -5 0 -6 4 -11 9 -11 6 0 10 -89 11 -215 0 -199 -1 -215 -17 -216 -14 0 -15 -2 -3 -6 8 -3 22 -12 32 -20 12 -11 18 -11 24 -2 4 8 3 10 -4 5 -7 -4 -12 -1 -12 8 0 9 6 16 13 16 9 0 9 2 -1 9 -8 5 -13 26 -12 57 1 27 1 162 1 301 l-1 252 -35 -1 -35 -1 0 -49z"/>
<path d="M5182 3520 c4 -64 2 -80 -9 -80 -8 0 -11 5 -8 10 9 15 -4 12 -21 -4 -15 -16 -19 -30 -5 -22 4 3 6 -5 4 -18 -4 -17 2 -28 18 -40 23 -16 23 -18 21 -203 -1 -109 2 -194 8 -203 12 -18 12 -18 11 99 -1 56 3 99 10 107 9 10 9 14 0 14 -18 0 -13 38 7 43 16 4 16 5 0 6 -20 1 -25 21 -5 21 7 0 13 9 13 20 0 11 -6 20 -13 20 -7 0 -13 9 -13 20 0 11 5 20 11 20 5 0 7 -5 3 -12 -4 -7 -3 -8 4 -4 17 11 15 53 -4 60 -12 5 -15 20 -14 73 3 122 0 153 -11 153 -8 0 -10 -25 -7 -80z"/>
<path d="M4304 2698 c-4 -7 -2 -8 5 -4 6 4 18 2 26 -4 12 -10 15 -10 15 2 0 16 -37 21 -46 6z"/>
<path d="M4725 2700 c-3 -5 3 -10 14 -10 11 0 23 5 26 10 3 6 -3 10 -14 10 -11 0 -23 -4 -26 -10z"/>
<path d="M4785 2700 c-7 -12 22 -12 50 0 17 7 15 9 -12 9 -17 1 -35 -3 -38 -9z"/>
<path d="M4950 2696 c0 -8 52 -10 171 -8 94 2 170 5 168 7 -2 1 -79 5 -171 7 -117 4 -168 2 -168 -6z"/>
<path d="M4068 2693 c12 -2 30 -2 40 0 9 3 -1 5 -23 4 -22 0 -30 -2 -17 -4z"/>
<path d="M4193 2693 c9 -2 25 -2 35 0 9 3 1 5 -18 5 -19 0 -27 -2 -17 -5z"/>
<path d="M3920 2608 c-1 -40 -2 -79 -1 -85 1 -7 1 -21 1 -30 0 -10 0 -28 0 -41 0 -15 -4 -21 -12 -16 -7 4 -8 3 -4 -5 11 -17 15 -271 4 -271 -5 0 -3 -6 4 -14 7 -8 15 -11 18 -7 9 13 73 12 89 -2 18 -16 101 -21 101 -6 0 5 -8 9 -17 9 -15 0 -16 2 -3 9 8 6 19 7 24 3 15 -8 106 -10 106 -1 0 9 26 6 36 -4 4 -4 -2 -7 -14 -7 -12 0 -22 -4 -22 -8 0 -5 41 -8 90 -9 50 0 90 4 90 8 0 5 7 9 15 9 8 0 15 4 15 8 0 5 7 9 15 9 8 0 15 -6 15 -14 0 -7 10 -13 23 -13 12 0 33 -3 47 -5 15 -3 10 0 -10 8 l-35 14 60 0 c33 -1 52 -3 42 -5 -9 -2 -15 -8 -12 -13 9 -13 22 -11 40 8 12 11 32 16 72 14 31 -1 60 -4 64 -7 5 -3 18 0 29 6 13 7 20 7 20 0 0 -5 -8 -10 -17 -10 -13 0 -14 -3 -5 -12 9 -9 15 -9 24 0 8 8 15 9 25 0 7 -6 17 -8 20 -4 4 4 1 11 -6 15 -11 7 -11 13 -1 27 10 16 11 16 6 2 -4 -14 1 -18 22 -19 24 0 24 -1 7 -8 -15 -6 -8 -9 29 -12 33 -3 50 0 53 9 3 7 14 17 25 23 12 7 18 7 14 1 -8 -13 11 -19 56 -16 29 1 35 -1 31 -13 -4 -11 -2 -14 8 -11 8 3 13 11 12 17 -2 7 17 11 55 10 31 -1 49 -3 40 -6 -30 -8 -20 -19 17 -19 19 0 35 4 35 8 0 4 -5 8 -11 8 -5 0 -8 4 -5 9 7 11 25 9 45 -3 8 -5 12 -5 9 0 -4 5 5 9 18 9 13 0 24 -5 24 -12 0 -7 -7 -10 -17 -7 -15 5 -16 4 -3 -5 21 -15 30 -14 30 4 0 8 7 15 15 15 14 0 16 30 14 250 l-2 249 -31 10 c-37 11 -75 9 -95 -3 -8 -5 -12 -5 -8 0 8 14 -276 15 -286 1 -6 -9 -10 -9 -14 1 -2 6 -20 12 -39 12 -26 0 -33 -3 -28 -12 6 -10 4 -10 -7 -2 -9 7 -70 12 -161 12 -123 1 -148 -2 -148 -14 0 -8 -4 -14 -10 -14 -6 0 -9 5 -8 12 2 8 -26 12 -97 12 -70 1 -100 -3 -100 -11 0 -6 -4 -15 -8 -20 -5 -4 -8 -3 -7 2 6 29 -2 35 -46 35 -33 0 -43 -3 -38 -12 6 -10 5 -10 -7 -1 -9 7 -53 11 -116 11 -85 -1 -103 -3 -106 -17 -4 -14 -5 -13 -6 2 -1 18 -21 24 -21 6 0 -6 -7 -3 -16 5 -8 9 -23 16 -33 16 -16 0 -19 -10 -21 -72z m1427 -8 c-3 -11 -2 -20 2 -20 4 0 8 -7 8 -15 0 -8 -6 -15 -14 -15 -14 0 -17 27 -7 54 9 23 17 20 11 -4z m-808 1 c7 -5 12 -13 10 -18 -2 -5 -12 -1 -21 9 -19 19 -13 24 11 9z m751 -103 c-12 -10 -17 -18 -11 -18 6 0 11 -5 11 -11 0 -8 -5 -7 -16 2 -14 12 -14 14 3 27 17 14 17 14 -5 9 -12 -3 -20 -1 -17 4 4 5 17 8 31 7 l26 -2 -22 -18z m47 -40 c-2 -13 -4 -5 -4 17 -1 22 1 32 4 23 2 -10 2 -28 0 -40z m-566 -2 c-9 -11 -9 -15 1 -18 8 -3 6 -7 -5 -11 -20 -7 -23 13 -5 31 17 17 23 15 9 -2z m134 -31 c1 -14 -2 -22 -5 -19 -3 3 -5 16 -5 29 -1 14 2 22 5 19 3 -3 5 -16 5 -29z m434 -35 c0 -10 -2 -11 -6 -2 -2 6 -8 10 -13 7 -4 -3 -6 4 -3 16 4 16 8 17 14 7 5 -7 8 -20 8 -28z m-507 5 c-2 -14 -6 -25 -8 -25 -2 0 -4 11 -4 25 0 14 4 25 9 25 4 0 6 -11 3 -25z m-732 -205 c0 -5 -7 -10 -15 -10 -8 0 -15 5 -15 10 0 6 7 10 15 10 8 0 15 -4 15 -10z m299 -34 c15 -18 -5 -34 -22 -17 -8 8 -7 11 4 11 12 0 12 2 -1 10 -8 5 -10 10 -4 10 6 0 17 -6 23 -14z m-344 -18 c-19 -11 -30 -5 -21 11 4 6 14 7 22 4 15 -5 14 -7 -1 -15z"/>
<path d="M5140 2130 c0 -5 7 -10 15 -10 8 0 15 5 15 10 0 6 -7 10 -15 10 -8 0 -15 -4 -15 -10z"/>
<path d="M4213 1963 c-7 -2 -13 -10 -13 -16 0 -8 4 -7 12 1 14 14 32 16 23 2 -3 -6 1 -7 9 -4 9 3 13 10 10 15 -6 10 -21 11 -41 2z"/>
<path d="M4280 1960 c0 -6 4 -8 10 -5 5 3 19 1 31 -6 17 -9 20 -8 17 3 -6 16 -58 24 -58 8z"/>
<path d="M4780 1960 c-12 -8 -11 -10 7 -10 12 0 25 5 28 10 8 13 -15 13 -35 0z"/>
<path d="M4941 1950 c0 -10 2 -11 6 -2 2 6 10 9 16 5 14 -9 307 -6 316 2 3 4 -45 5 -107 3 -61 -2 -112 -1 -112 2 0 3 -27 5 -60 5 -47 0 -60 -3 -59 -15z"/>
<path d="M3898 1833 c0 -60 0 -116 0 -126 1 -11 -2 -15 -9 -11 -7 4 -9 0 -5 -12 3 -11 7 -76 10 -146 3 -94 1 -128 -7 -128 -7 0 -6 -4 3 -10 13 -8 13 -11 1 -19 -11 -7 -9 -10 8 -16 13 -4 25 -4 28 -1 4 3 -1 6 -10 6 -10 0 -14 6 -11 13 6 15 84 22 84 8 0 -6 -11 -8 -25 -5 -14 2 -25 0 -25 -5 0 -11 450 -9 468 2 6 5 12 5 12 0 0 -10 226 -11 236 0 4 4 -4 7 -17 8 l-24 0 23 9 c24 10 55 3 46 -11 -3 -5 5 -9 18 -10 13 -1 42 -2 66 -3 23 -1 42 2 42 7 0 6 5 6 13 0 17 -13 140 -8 145 6 5 15 35 14 50 -1 13 -13 235 -18 255 -6 8 5 4 8 -10 8 -16 0 -21 4 -16 16 4 11 8 12 13 4 4 -7 13 -9 19 -6 6 4 11 3 11 -2 0 -6 14 -15 30 -21 24 -8 30 -7 30 5 0 7 7 14 15 14 14 0 15 32 14 248 -1 243 -1 249 -22 262 -32 20 -95 21 -108 1 -10 -14 -10 -14 -5 1 3 12 -1 16 -14 15 -10 -1 -16 -5 -14 -9 3 -4 1 -8 -5 -8 -5 0 -11 6 -14 13 -3 9 -7 9 -19 -1 -12 -10 -18 -10 -23 -1 -6 8 -9 8 -15 -1 -5 -8 -13 -9 -21 -4 -23 14 -132 15 -141 1 -6 -9 -8 -9 -8 1 0 6 -7 12 -15 12 -8 0 -15 -4 -15 -10 0 -5 -5 -10 -11 -10 -5 0 -8 4 -4 9 7 12 -306 11 -322 -1 -7 -5 -14 -5 -18 2 -3 5 -15 10 -26 10 -11 0 -18 -4 -14 -9 3 -5 1 -12 -5 -16 -5 -3 -10 0 -10 7 0 9 -18 14 -57 15 -38 1 -52 -1 -43 -7 9 -6 10 -10 3 -10 -6 0 -14 4 -17 9 -8 12 -96 10 -96 -2 0 -5 -6 -5 -13 1 -15 13 -205 11 -226 -2 -9 -6 -12 -5 -8 1 4 6 -11 10 -37 10 -44 0 -44 0 -35 -30 5 -16 6 -27 2 -23 -3 3 -13 0 -21 -7 -13 -10 -14 -9 -2 9 8 13 10 29 5 40 -6 16 -9 14 -21 -16 -12 -31 -13 -31 -9 -6 6 31 -6 46 -37 46 -16 0 -18 -12 -20 -107z m412 42 c-7 -9 -15 -13 -18 -10 -3 2 1 11 8 20 7 9 15 13 18 10 3 -2 -1 -11 -8 -20z m1036 -19 c-3 -14 -2 -28 4 -31 5 -3 10 -10 10 -16 0 -15 -20 -10 -26 6 -7 16 3 65 12 65 4 0 3 -11 0 -24z m-832 0 c-3 -8 -12 -17 -20 -20 -9 -3 -12 -10 -9 -16 3 -5 1 -10 -4 -10 -17 0 -13 11 11 37 25 27 29 28 22 9z m86 -11 c0 -1 -9 -10 -19 -19 -19 -17 -19 -17 -15 1 3 11 12 20 20 20 8 0 14 -1 14 -2z m741 -112 c-4 -28 -6 -32 -9 -15 -3 22 3 52 11 52 1 0 1 -17 -2 -37z m-509 -120 c7 -9 7 -13 0 -13 -13 0 -22 25 -21 53 2 19 2 19 6 -3 3 -14 10 -31 15 -37z m-752 -173 c0 -5 -7 -10 -15 -10 -8 0 -15 5 -15 10 0 6 7 10 15 10 8 0 15 -4 15 -10z m243 -30 c4 -16 0 -20 -16 -19 -12 0 -16 3 -9 6 6 2 12 11 12 19 0 20 7 17 13 -6z m42 0 c-3 -6 4 -10 17 -11 13 0 17 -3 10 -6 -18 -7 -44 5 -37 17 3 5 8 10 11 10 3 0 2 -4 -1 -10z m385 -13 c8 -3 -1 -5 -20 -5 -19 0 -29 2 -22 5 6 2 9 10 5 16 -5 9 -3 9 8 1 8 -6 21 -14 29 -17z m-700 -2 c0 -1 -11 -5 -24 -7 -16 -3 -23 -1 -19 7 3 10 43 10 43 0z m210 3 c0 -4 -9 -8 -21 -8 -11 0 -18 4 -15 8 3 5 12 9 21 9 8 0 15 -4 15 -9z m954 0 c-3 -4 -29 -8 -57 -7 -35 1 -44 3 -28 7 34 10 91 10 85 0z"/>
</g>
<g id="layer107" fill="#6f5f6e" stroke="none">
<path d="M3946 3579 c-11 -10 -16 -22 -13 -26 4 -3 7 -1 7 6 0 7 5 9 10 6 6 -4 8 -16 4 -28 -3 -12 -3 -19 1 -15 7 7 19 79 13 77 -2 0 -12 -9 -22 -20z"/>
<path d="M3984 3325 c1 -234 -2 -277 -14 -285 -19 -12 -33 -13 -25 -1 3 5 1 12 -5 16 -6 4 -10 -11 -10 -40 0 -33 4 -45 13 -42 6 2 11 11 11 20 -1 9 2 15 6 12 5 -3 11 1 13 7 3 7 6 3 6 -9 1 -34 12 -52 26 -46 10 3 13 15 9 36 -3 26 -2 28 5 12 8 -18 10 -18 10 -2 1 10 -5 20 -13 23 -21 8 -21 428 -1 461 10 15 11 23 3 25 -6 2 -11 23 -11 46 0 26 -4 42 -12 42 -9 0 -12 -66 -11 -275z"/>
<path d="M4093 3287 c-1 -174 3 -320 8 -328 10 -17 11 -11 9 232 -1 136 2 178 12 187 17 14 16 55 -1 76 -9 11 -12 37 -9 81 3 44 0 65 -7 65 -8 0 -12 -90 -12 -313z"/>
<path d="M4201 3288 c0 -289 7 -390 19 -293 9 71 0 605 -10 605 -6 0 -9 -122 -9 -312z"/>
<path d="M4310 3280 c1 -190 5 -322 10 -325 6 -4 10 33 10 94 0 61 4 101 10 101 6 0 10 9 10 21 0 11 -4 17 -11 14 -7 -5 -10 28 -9 102 2 233 0 313 -10 313 -7 0 -10 -108 -10 -320z"/>
<path d="M4420 3281 c0 -176 3 -322 8 -324 4 -3 13 1 20 9 7 8 8 14 2 14 -5 0 -10 5 -10 11 0 5 5 7 10 4 6 -3 10 -1 10 4 0 6 -4 11 -10 11 -6 0 -10 99 -10 276 0 181 3 273 10 269 14 -9 12 8 -2 24 -10 11 -10 13 0 7 6 -4 12 -2 12 3 0 6 -9 11 -20 11 -20 0 -20 -7 -20 -319z"/>
<path d="M4529 3572 c-2 -24 -2 -24 -6 -4 -4 22 -43 33 -43 12 0 -5 7 -10 17 -10 15 0 15 -1 0 -18 -25 -28 -21 -45 8 -40 l25 5 0 -269 0 -268 -26 6 c-19 5 -25 4 -20 -5 4 -6 15 -11 25 -11 9 0 22 -5 29 -12 9 -9 12 55 13 288 1 165 5 288 9 274 6 -20 8 -15 9 25 1 44 -2 51 -19 52 -15 1 -20 -5 -21 -25z"/>
<path d="M4640 3422 c0 -125 -4 -182 -12 -190 -9 -9 -9 -12 0 -12 8 0 12 -27 12 -90 0 -53 -4 -90 -10 -90 -5 0 -10 -7 -10 -15 0 -8 4 -15 9 -15 5 0 11 -12 13 -27 2 -16 8 -27 16 -25 6 1 12 -2 12 -8 0 -5 -10 -10 -22 -10 -18 0 -20 -2 -8 -10 9 -6 18 -6 24 0 13 13 39 13 31 1 -5 -8 10 -9 58 -2 5 0 5 6 2 11 -4 6 -11 8 -16 4 -6 -3 -21 -3 -35 0 -17 5 -24 13 -24 31 0 14 -4 25 -10 25 -6 0 -10 59 -10 158 0 105 4 152 10 142 8 -12 10 -11 10 8 0 12 -4 22 -10 22 -6 0 -10 52 -10 135 0 83 -4 135 -10 135 -6 0 -10 -66 -10 -178z"/>
<path d="M4700 3548 c0 -45 1 -48 19 -38 11 5 22 7 24 3 8 -15 4 -93 -4 -87 -5 3 -9 0 -9 -5 0 -6 4 -11 9 -11 6 0 10 -89 11 -215 0 -199 -1 -215 -17 -216 -14 0 -15 -2 -3 -6 8 -3 22 -12 32 -20 12 -11 18 -11 24 -2 4 8 3 10 -4 5 -7 -4 -12 -1 -12 8 0 9 6 16 13 16 9 0 8 3 -2 9 -11 7 -13 65 -12 309 l1 301 -35 -1 -35 -1 0 -49z"/>
<path d="M4813 3575 c0 -13 2 -23 6 -21 3 2 13 -1 22 -7 17 -13 16 4 18 -389 1 -125 5 -198 11 -198 6 0 10 9 10 20 0 11 6 20 13 20 8 0 8 3 -2 9 -19 12 -20 349 -1 361 9 5 9 9 1 14 -6 4 -11 35 -11 72 0 41 4 63 10 59 6 -3 10 -1 10 4 0 6 -4 11 -10 11 -5 0 -10 16 -10 36 0 24 -4 34 -12 31 -7 -2 -12 -12 -10 -22 2 -11 -2 -15 -10 -13 -7 3 -12 12 -10 22 2 9 -4 16 -11 16 -9 0 -14 -10 -14 -25z"/>
<path d="M4967 3593 c-4 -3 -7 -21 -7 -40 0 -19 -5 -33 -12 -33 -9 -1 -8 -4 2 -13 13 -10 15 -56 17 -281 1 -147 4 -271 7 -274 4 -3 6 28 7 69 0 41 2 126 4 189 1 63 3 133 4 154 0 22 6 43 13 47 10 7 9 9 -4 9 -14 0 -16 6 -12 33 3 17 7 38 10 45 2 6 0 12 -4 12 -4 0 -6 20 -4 45 4 41 -4 55 -21 38z"/>
<path d="M5073 3584 c-3 -9 -3 -107 0 -218 6 -204 2 -290 -14 -280 -15 9 -10 -14 6 -30 11 -11 14 -25 10 -50 -4 -20 -2 -36 4 -40 13 -8 12 -21 12 197 0 144 2 167 14 157 12 -10 14 -5 12 29 -1 29 -5 40 -14 37 -10 -4 -12 19 -10 104 2 102 -5 133 -20 94z"/>
<path d="M5182 3520 c4 -64 2 -80 -9 -80 -8 0 -11 5 -8 10 9 15 -4 12 -21 -4 -15 -16 -19 -30 -5 -22 4 3 6 -5 4 -18 -4 -17 2 -28 18 -40 23 -16 23 -18 21 -203 -1 -109 2 -194 8 -203 12 -18 12 -18 11 99 -1 56 3 99 10 107 9 10 9 14 0 14 -18 0 -13 38 7 43 16 4 16 5 0 6 -20 1 -25 21 -5 21 7 0 13 9 13 19 0 11 -5 19 -10 18 -6 -1 -12 8 -14 21 -2 12 2 22 8 22 6 0 8 -5 4 -12 -4 -7 -3 -8 4 -4 17 11 15 53 -4 60 -12 5 -15 20 -14 73 3 122 0 153 -11 153 -8 0 -10 -25 -7 -80z"/>
<path d="M5289 3303 c-1 -335 -2 -331 16 -356 12 -17 13 -17 20 5 17 56 13 104 -8 91 -7 -3 -5 2 4 13 17 20 24 84 9 84 -5 0 -11 -10 -13 -22 -2 -13 -5 84 -6 215 -1 180 2 236 11 231 8 -5 9 -2 5 10 -4 10 -7 20 -7 22 0 2 -7 4 -15 4 -13 0 -15 -40 -16 -297z"/>
<path d="M4375 3581 c-3 -6 4 -9 15 -8 11 1 20 5 20 9 0 11 -28 10 -35 -1z"/>
<path d="M4591 3556 c1 -17 3 -23 6 -13 2 9 8 15 12 13 4 -3 7 3 7 13 0 10 -6 18 -13 18 -8 0 -13 -12 -12 -31z"/>
<path d="M5263 3513 c-18 -7 -16 -33 2 -33 8 0 15 9 15 20 0 11 -1 20 -2 19 -2 0 -9 -3 -15 -6z"/>
<path d="M4278 3484 c3 -17 7 -22 12 -13 9 13 2 39 -10 39 -4 0 -5 -12 -2 -26z"/>
<path d="M4376 3474 c-4 -9 -1 -23 5 -30 9 -11 9 -14 0 -14 -19 0 -8 -64 12 -68 18 -4 24 23 8 33 -6 3 -8 15 -6 27 3 12 -1 26 -8 30 -9 6 -9 10 2 17 8 5 9 11 3 15 -5 3 -13 -1 -16 -10z"/>
<path d="M4920 3463 c0 -21 3 -24 9 -14 5 8 7 20 4 28 -8 21 -13 15 -13 -14z"/>
<path d="M4162 3378 c3 -16 2 -28 -2 -28 -4 0 -7 -8 -6 -17 1 -19 24 -39 33 -29 4 3 1 6 -6 6 -7 0 -9 5 -6 11 14 21 12 59 -3 71 -13 11 -15 9 -10 -14z"/>
<path d="M4046 3353 c2 -41 3 -43 16 -43 6 0 8 3 5 7 -4 3 1 12 11 19 16 13 16 13 -2 14 -15 0 -16 3 -6 15 10 12 9 15 -7 15 -14 0 -19 -6 -17 -27z"/>
<path d="M5030 3347 c0 -18 5 -27 16 -27 14 0 15 2 3 17 -8 9 -12 18 -11 20 2 3 1 7 -2 11 -3 3 -6 -7 -6 -21z"/>
<path d="M4277 3347 c-4 -10 -2 -17 4 -17 6 0 8 -8 4 -17 -4 -13 -3 -15 5 -7 7 7 7 19 2 34 -7 19 -10 21 -15 7z"/>
<path d="M4590 3306 c0 -35 15 -40 16 -5 1 16 -3 29 -7 29 -5 0 -9 -11 -9 -24z"/>
<path d="M4050 3243 c0 -33 3 -43 9 -33 6 8 7 18 4 22 -2 5 1 15 7 23 12 15 6 35 -11 35 -5 0 -9 -21 -9 -47z"/>
<path d="M3933 3213 c1 -35 11 -43 21 -17 3 8 2 12 -3 9 -5 -3 -12 5 -14 17 -3 14 -4 11 -4 -9z"/>
<path d="M4920 3183 c0 -11 7 -26 15 -33 20 -17 20 7 0 34 -15 19 -15 19 -15 -1z"/>
<path d="M3937 3133 c-13 -13 -7 -63 7 -63 8 0 17 -6 19 -12 3 -7 6 2 6 20 1 18 -3 31 -8 28 -5 -4 -7 3 -4 14 5 19 -7 27 -20 13z"/>
<path d="M5246 3033 c-10 -10 -7 -43 4 -43 6 0 10 7 10 16 0 8 5 12 10 9 6 -3 10 -2 10 3 0 12 -26 23 -34 15z"/>
<path d="M4046 3022 c-2 -4 -1 -14 3 -21 6 -10 10 -9 14 3 6 16 -8 32 -17 18z"/>
<path d="M4590 2985 c0 -17 2 -18 24 -9 23 9 20 24 -4 24 -11 0 -20 -7 -20 -15z"/>
<path d="M3960 2941 c0 -10 24 -21 46 -21 9 0 12 5 9 10 -4 6 -11 8 -16 5 -5 -4 -9 -1 -9 4 0 6 -7 11 -15 11 -8 0 -15 -4 -15 -9z"/>
<path d="M4517 2939 c14 -12 65 -21 58 -9 -8 13 17 13 33 0 9 -7 9 -7 2 3 -6 6 -31 12 -56 13 -24 0 -41 -3 -37 -7z"/>
<path d="M5290 2940 c0 -5 -7 -7 -15 -4 -8 4 -15 1 -15 -5 0 -6 9 -11 20 -11 11 0 20 7 20 15 0 8 -2 15 -5 15 -3 0 -5 -4 -5 -10z"/>
<path d="M4453 2697 c-6 -10 115 -2 125 7 3 4 -23 5 -57 4 -35 -2 -65 -7 -68 -11z"/>
<path d="M3920 2608 c-1 -40 -2 -79 -1 -85 1 -7 1 -21 1 -30 0 -10 0 -28 0 -41 0 -15 -4 -21 -12 -16 -7 4 -8 3 -4 -5 11 -17 15 -271 4 -271 -5 0 -3 -6 4 -14 7 -8 15 -10 18 -5 3 4 27 7 53 5 26 -1 47 1 47 6 0 5 9 6 20 3 12 -4 20 -2 20 6 0 8 4 8 13 2 13 -11 19 -12 90 -16 26 -1 51 -7 55 -13 4 -6 46 -10 97 -11 59 0 82 2 68 8 -13 5 -23 13 -23 19 0 7 -6 8 -17 2 -24 -12 -123 -12 -123 0 0 5 -4 7 -9 4 -6 -4 -10 39 -10 101 -1 118 7 132 16 26 12 -149 41 -147 49 3 10 161 23 140 28 -47 1 -19 9 -43 19 -53 19 -19 17 -23 23 49 1 17 2 36 3 43 0 6 5 12 10 12 5 0 8 -21 8 -47 -2 -38 3 -54 22 -75 14 -16 31 -28 38 -28 8 0 11 -4 8 -10 -7 -11 8 -14 18 -4 9 9 -16 32 -29 27 -8 -3 -11 15 -8 59 1 35 3 72 3 82 1 18 15 14 17 -5 1 -5 2 -12 4 -16 1 -5 1 -26 1 -48 -2 -52 14 -79 23 -39 11 52 19 108 20 146 1 21 7 43 14 50 8 7 13 9 12 3 -2 -5 -2 -54 -1 -109 1 -83 3 -97 15 -87 11 9 15 8 20 -5 9 -22 8 -26 -5 -18 -7 4 -10 1 -7 -7 3 -8 12 -15 21 -17 20 -4 23 28 6 45 -9 9 -6 11 12 9 51 -5 68 -40 27 -55 -13 -4 -17 -10 -11 -14 13 -8 43 2 43 14 0 5 7 9 15 9 8 0 15 8 14 18 0 10 -3 12 -6 5 -9 -24 -19 -13 -20 22 -1 20 -6 41 -11 48 -6 7 -9 40 -6 77 4 72 5 139 0 185 -2 17 -4 44 -5 60 -2 29 -2 29 -16 11 -16 -21 -21 -51 -7 -43 4 3 6 -35 4 -85 -3 -66 -7 -91 -18 -95 -16 -6 -19 -39 -4 -48 14 -9 13 -58 -2 -73 -19 -19 -41 -15 -33 6 6 14 11 61 14 150 1 7 6 10 11 7 6 -3 10 -2 10 4 0 5 -4 13 -10 16 -5 3 -10 38 -10 76 0 83 -13 118 -35 95 -11 -10 -15 -37 -14 -96 1 -78 -9 -128 -13 -62 0 18 -2 55 -4 82 -1 28 -2 59 -3 70 -1 12 -6 17 -14 14 -25 -9 -57 60 -33 70 6 2 -2 5 -18 5 -23 1 -26 -2 -17 -12 8 -11 6 -18 -9 -32 -18 -16 -20 -16 -20 -2 0 10 -4 17 -9 17 -20 0 -41 -13 -41 -25 0 -20 -23 -24 -37 -6 -21 28 -15 49 15 54 l27 4 -28 2 c-16 0 -35 -6 -43 -14 -9 -8 -12 -15 -8 -15 3 0 2 -6 -4 -13 -6 -7 -9 -31 -7 -52 3 -38 3 -39 -10 -15 -7 13 -11 34 -9 46 3 18 -3 23 -41 34 -25 7 -45 17 -45 21 0 5 -4 9 -9 9 -5 0 -10 -30 -11 -67 -1 -77 -16 -174 -20 -133 -1 14 -2 31 -1 38 1 6 -2 27 -7 45 -7 24 -6 43 4 67 18 42 18 45 -3 29 -15 -12 -16 -12 -10 4 3 9 2 17 -2 17 -11 0 -21 -25 -21 -53 -1 -12 -7 -33 -14 -46 -12 -22 -14 -20 -20 38 -4 33 -11 61 -16 61 -5 0 -7 -13 -3 -30 4 -23 2 -30 -10 -30 -10 0 -17 11 -19 33 -2 24 -8 33 -24 35 -20 3 -21 -2 -24 -70z m261 12 c10 0 19 -5 19 -11 0 -5 -4 -8 -9 -4 -5 3 -12 1 -16 -5 -9 -15 -19 -12 -34 11 -11 19 -11 21 4 15 9 -3 25 -6 36 -6z m248 -77 c-1 -38 -1 -38 -9 -9 -8 27 -6 46 6 46 2 0 4 -17 3 -37z m-127 -28 c-7 -38 -22 -30 -22 11 0 30 3 34 14 25 7 -6 11 -22 8 -36z m-2 -74 c0 -11 -4 -22 -9 -25 -5 -3 -8 6 -8 19 0 14 3 25 8 25 5 0 9 -9 9 -19z m-202 -100 c1 -52 -2 -92 -8 -96 -6 -4 -10 28 -10 89 0 53 3 96 8 96 4 0 8 -40 10 -89z m-74 -116 c0 -30 -2 -55 -6 -55 -5 0 -8 28 -8 62 0 76 12 70 14 -7z m76 -35 c0 -5 -7 -10 -15 -10 -8 0 -15 5 -15 10 0 6 7 10 15 10 8 0 15 -4 15 -10z"/>
<path d="M4020 2650 c0 -11 2 -20 5 -20 2 0 9 9 15 20 9 16 8 20 -5 20 -8 0 -15 -9 -15 -20z"/>
<path d="M5095 2655 c-17 -53 -15 -52 -31 -30 -29 39 -36 0 -29 -160 4 -82 8 -161 9 -175 1 -14 -1 -32 -5 -40 -4 -8 -10 -23 -13 -34 -5 -15 -9 -16 -21 -6 -22 18 -26 9 -9 -15 15 -20 15 -20 32 1 l18 21 17 -23 c24 -33 22 -35 -30 -30 -41 3 -45 2 -29 -10 11 -7 30 -11 47 -7 21 4 30 1 35 -11 8 -20 21 -21 21 -1 0 8 -4 12 -9 9 -4 -3 -8 2 -8 10 0 18 13 20 40 6 22 -12 50 -3 50 16 0 8 7 14 15 14 13 0 14 -4 5 -20 -6 -11 -7 -20 -2 -20 15 0 32 52 30 93 -1 20 2 40 5 44 4 3 7 -14 8 -38 1 -32 3 -38 7 -21 6 19 3 85 -8 187 -1 6 3 34 8 63 5 29 5 55 1 58 -4 2 -6 11 -2 19 4 11 1 13 -11 9 -11 -4 -16 0 -16 12 0 11 -7 28 -15 38 -12 16 -17 17 -30 6 -10 -8 -15 -9 -15 -1 0 6 -9 11 -20 11 -11 0 -20 -4 -20 -10 0 -5 -5 -10 -11 -10 -7 0 -9 11 -5 30 6 31 -1 42 -9 15z"/>
<path d="M5250 2651 c-14 -28 -12 -61 4 -61 19 0 26 21 14 44 -7 13 -6 21 3 27 10 6 10 9 2 9 -7 0 -17 -9 -23 -19z"/>
<path d="M5344 2643 c2 -10 8 -38 11 -61 7 -42 6 -43 -14 -33 -18 10 -21 9 -22 -6 -1 -10 -6 -1 -11 20 -6 20 -15 37 -20 37 -6 0 -7 -7 -4 -16 3 -9 6 -29 6 -45 0 -18 4 -28 10 -24 7 4 10 -13 10 -47 0 -29 0 -60 0 -68 1 -60 -4 -130 -10 -130 -4 0 -12 -18 -18 -40 -5 -23 -6 -40 -1 -40 5 0 9 9 9 20 0 11 5 20 10 20 10 0 14 -21 11 -48 -1 -7 5 -15 14 -18 21 -9 20 -35 -2 -28 -15 5 -16 4 -3 -5 21 -15 30 -14 30 4 0 8 7 15 15 15 14 0 16 30 14 249 -1 208 -4 251 -16 255 -22 9 -25 7 -19 -11z m-4 -200 c-1 -47 -3 -63 -10 -52 -8 14 -3 119 6 119 2 0 4 -30 4 -67z"/>
<path d="M4736 2626 c3 -8 -3 -16 -15 -19 -19 -5 -28 -31 -21 -62 1 -5 3 -49 4 -97 1 -58 -2 -85 -9 -80 -7 4 -7 1 0 -9 15 -20 13 -101 -3 -107 -10 -3 -12 27 -11 145 2 143 -3 193 -21 193 -15 0 -17 -23 -19 -186 -2 -169 3 -214 24 -214 7 0 15 -9 18 -20 4 -15 14 -20 36 -20 l32 0 -2 245 c0 135 -5 245 -10 245 -4 0 -6 -6 -3 -14z"/>
<path d="M4974 2578 l-10 -43 -14 29 c-8 16 -20 31 -27 33 -14 5 -26 -82 -20 -149 2 -27 0 -48 -4 -48 -5 0 -9 41 -9 91 0 65 -4 94 -14 105 -8 8 -17 14 -19 14 -11 0 -29 -61 -26 -92 4 -56 0 -85 -10 -70 -5 8 -7 41 -5 75 4 57 -3 76 -28 77 -13 0 -24 -56 -18 -95 3 -22 4 -111 3 -197 -1 -97 1 -158 7 -158 6 0 10 8 10 18 0 14 2 15 10 2 5 -8 7 -24 3 -35 -5 -17 -4 -18 10 -7 10 9 17 10 22 2 8 -14 25 -13 25 2 0 6 -3 9 -6 5 -3 -3 -13 1 -23 9 -13 12 -16 29 -14 82 1 37 2 95 3 130 0 34 4 62 9 62 4 0 6 -11 4 -24 -3 -13 0 -33 6 -44 6 -12 8 -23 4 -25 -5 -3 -7 -37 -5 -75 3 -53 8 -72 19 -76 22 -9 24 -5 30 66 2 34 9 69 15 75 6 7 8 23 5 35 -4 12 -2 27 2 32 5 6 11 20 14 31 5 18 -2 -164 -8 -189 -1 -6 -5 -28 -9 -48 -5 -21 -15 -39 -25 -41 -9 -3 -3 -5 12 -6 17 -1 26 3 22 9 -3 6 3 10 14 10 19 0 21 6 21 78 0 42 5 84 11 92 9 13 10 12 5 -2 -3 -10 0 -21 7 -25 7 -5 12 -19 12 -32 0 -13 6 -26 13 -28 13 -5 13 3 13 236 0 93 -4 128 -14 138 -12 12 -15 8 -23 -29z m6 -185 c0 -32 -5 -28 -14 10 -4 19 -3 26 4 22 5 -3 10 -18 10 -32z"/>
<path d="M5270 2322 c0 -18 4 -32 9 -32 5 0 8 11 6 25 -4 38 -15 43 -15 7z"/>
<path d="M4963 2164 c3 -4 2 -16 -4 -28 -10 -20 -10 -20 5 -2 19 24 20 36 4 36 -6 0 -8 -3 -5 -6z"/>
<path d="M4470 2145 c0 -10 79 -30 87 -22 1 2 -18 10 -43 19 -33 12 -44 12 -44 3z"/>
<path d="M4051 2136 c-22 -12 -20 -13 23 -13 25 -1 46 3 46 8 0 5 -4 9 -9 9 -5 0 -15 2 -23 5 -7 2 -24 -2 -37 -9z"/>
<path d="M5204 2135 c-10 -8 -14 -14 -9 -14 6 0 19 6 29 14 11 8 15 15 10 15 -6 0 -19 -7 -30 -15z"/>
<path d="M3980 1960 c-11 -7 -6 -10 20 -9 19 0 43 -1 52 -3 9 -1 17 1 18 6 1 13 -72 18 -90 6z"/>
<path d="M4210 1960 c-24 -15 -7 -18 20 -3 14 7 18 13 10 13 -8 0 -22 -4 -30 -10z"/>
<path d="M4295 1960 c28 -12 47 -12 40 0 -3 6 -18 10 -33 9 -24 0 -25 -1 -7 -9z"/>
<path d="M4437 1958 c-7 -4 18 -7 56 -6 37 1 67 6 67 10 0 10 -107 6 -123 -4z"/>
<path d="M3898 1833 c0 -59 0 -116 0 -126 1 -11 -2 -15 -9 -11 -7 4 -9 0 -5 -12 3 -11 7 -76 10 -146 3 -94 1 -128 -7 -128 -7 0 -6 -4 3 -10 13 -8 13 -11 1 -19 -11 -7 -9 -10 8 -16 13 -4 25 -4 28 -1 4 3 -1 6 -10 6 -10 0 -14 5 -11 15 4 10 19 13 55 11 27 -1 49 1 49 6 0 5 9 6 20 3 11 -4 20 -2 20 4 0 6 5 11 10 11 23 0 7 -18 -27 -32 l-38 -15 74 0 c67 0 76 2 102 28 l30 29 -5 112 c-3 70 -2 103 3 88 5 -14 9 -50 10 -81 1 -78 11 -119 28 -119 19 0 22 13 27 110 2 47 5 92 6 100 4 20 20 -126 20 -169 -1 -27 2 -32 15 -27 9 3 13 2 10 -4 -3 -6 -1 -10 4 -10 10 0 14 38 15 118 0 12 4 22 8 22 4 0 8 -31 8 -70 0 -56 3 -70 15 -70 8 0 15 -6 15 -14 0 -8 6 -16 13 -19 6 -2 9 -7 6 -11 -3 -3 -23 1 -45 10 -34 14 -37 14 -25 0 11 -13 10 -15 -11 -11 -12 3 -24 9 -26 14 -2 5 -17 4 -34 -3 -24 -8 -32 -8 -35 2 -5 14 -33 17 -33 3 0 -21 31 -29 117 -27 50 0 95 4 99 9 4 4 11 7 16 7 5 0 7 -3 5 -7 -3 -5 46 -8 108 -8 93 -1 110 2 96 12 -15 11 -15 12 2 13 10 0 17 7 16 18 0 10 -3 12 -6 5 -10 -26 -23 -12 -23 26 0 22 -4 42 -9 45 -5 4 -7 45 -4 94 6 103 6 114 0 172 -2 25 -5 54 -6 65 -2 19 -3 19 -22 -4 -14 -17 -17 -27 -9 -35 11 -11 14 -136 3 -174 -4 -18 -8 -20 -14 -10 -6 9 -9 5 -9 -14 0 -15 4 -29 8 -32 4 -2 9 -18 10 -35 2 -21 -3 -33 -17 -41 -29 -15 -32 -13 -25 16 4 14 7 57 8 95 0 38 4 69 8 69 5 0 8 -8 9 -17 0 -12 2 -13 6 -5 3 7 0 19 -7 27 -6 8 -11 47 -12 89 0 61 -4 81 -20 99 -11 12 -16 16 -12 8 3 -7 2 -16 -4 -20 -16 -10 -16 -24 -8 -218 5 -117 12 -181 18 -177 6 4 14 0 19 -7 12 -19 11 -32 -1 -24 -5 3 -10 2 -10 -4 0 -5 8 -15 18 -20 27 -16 -3 -13 -48 5 -44 18 -44 16 -21 134 4 19 6 76 5 125 -2 195 -3 210 -15 198 -16 -16 -34 4 -44 46 -4 18 -12 30 -18 28 -7 -3 -11 -10 -9 -17 1 -7 -2 -18 -9 -26 -9 -11 -13 -11 -26 1 -12 13 -17 12 -35 -5 -12 -11 -26 -20 -31 -20 -4 0 -6 -10 -2 -22 5 -20 4 -21 -5 -5 -6 9 -9 21 -5 26 3 5 1 12 -5 16 -19 12 -11 43 13 48 16 3 13 5 -10 6 -26 1 -31 -2 -26 -16 5 -12 2 -15 -10 -10 -9 3 -16 3 -16 -1 1 -4 1 -29 -1 -57 -1 -38 -4 -45 -10 -30 -5 11 -9 32 -9 46 -1 23 -8 28 -46 39 -25 7 -45 17 -45 21 0 5 -4 9 -9 9 -5 0 -9 -35 -10 -77 -1 -43 -5 -94 -9 -113 -7 -31 -9 -27 -16 42 -4 49 -3 85 4 97 14 27 13 34 -4 28 -11 -4 -13 -1 -9 10 4 10 2 14 -5 9 -6 -3 -16 -31 -23 -62 -7 -30 -16 -57 -19 -59 -4 -3 -10 21 -13 52 -3 31 -11 61 -18 67 -8 8 -9 5 -4 -14 4 -14 8 -27 9 -30 1 -6 -9 -10 -23 -10 -6 0 -11 15 -13 33 -2 24 -8 33 -25 35 -23 3 -23 1 -25 -105z m282 38 c0 -3 -11 -11 -25 -18 -14 -6 -25 -7 -25 -3 0 5 -2 15 -5 23 -5 10 1 13 25 9 16 -2 30 -7 30 -11z m238 -77 c2 -23 -1 -33 -8 -29 -12 7 -14 65 -2 65 4 0 9 -16 10 -36z m-126 -8 c-5 -6 -8 -19 -7 -28 2 -10 -1 -18 -6 -18 -5 0 -9 16 -9 35 0 27 3 33 15 29 10 -4 12 -10 7 -18z m-12 -91 c0 -14 -4 -25 -9 -25 -4 0 -6 11 -3 25 2 14 6 25 8 25 2 0 4 -11 4 -25z m-200 -99 c0 -53 -4 -98 -10 -101 -6 -4 -10 30 -10 94 0 61 4 101 10 101 6 0 10 -38 10 -94z m349 -121 c1 -28 6 -56 13 -63 6 -6 8 -15 3 -19 -4 -5 -10 -3 -12 4 -2 7 -10 10 -18 7 -11 -4 -13 9 -10 63 4 97 5 101 15 78 5 -11 9 -43 9 -70z m-424 5 c0 -33 -3 -60 -8 -60 -4 0 -7 27 -6 60 1 33 5 60 8 60 4 0 6 -27 6 -60z m602 -33 c-3 -8 -1 -20 3 -28 10 -15 -5 -29 -32 -29 -12 0 -18 8 -18 24 0 13 -3 26 -7 29 -5 2 -3 3 2 2 6 -1 19 1 30 6 28 11 28 11 22 -4z m-527 -7 c0 -5 -7 -10 -15 -10 -8 0 -15 5 -15 10 0 6 7 10 15 10 8 0 15 -4 15 -10z m45 -47 c18 -14 18 -15 2 -9 -10 3 -25 6 -33 6 -9 0 -12 5 -9 10 8 14 16 12 40 -7z"/>
<path d="M4000 1910 c0 -11 5 -20 10 -20 6 0 10 9 10 20 0 11 -4 20 -10 20 -5 0 -10 -9 -10 -20z"/>
<path d="M4860 1923 c14 -3 28 -10 32 -17 6 -8 8 -8 8 1 0 6 8 14 18 16 9 3 -5 5 -33 4 -27 0 -39 -2 -25 -4z"/>
<path d="M5089 1900 c-12 -34 -24 -38 -33 -13 -12 30 -26 -1 -27 -62 -1 -33 1 -115 4 -182 7 -145 -5 -201 -37 -177 -14 10 -16 14 -5 14 12 0 14 30 14 183 0 189 -7 229 -30 183 -7 -14 -15 -33 -18 -43 -3 -13 -7 -9 -12 14 -4 17 -14 34 -22 37 -15 6 -28 -17 -19 -33 4 -5 3 -12 -2 -15 -5 -3 -7 -40 -4 -83 2 -43 0 -74 -4 -70 -5 5 -9 46 -10 91 -1 57 -6 90 -16 105 l-15 22 -17 -26 c-12 -18 -16 -42 -14 -85 1 -32 -1 -62 -5 -66 -4 -4 -7 29 -7 73 0 62 -3 82 -15 86 -8 4 -18 1 -22 -6 -11 -16 -12 -447 -1 -447 4 0 8 8 8 18 0 14 2 15 10 2 5 -8 7 -23 4 -32 -3 -10 -1 -18 5 -18 6 0 11 5 11 11 0 8 5 7 15 -1 9 -7 18 -10 22 -6 3 3 1 6 -6 6 -7 0 -11 6 -8 14 3 8 -1 13 -11 12 -9 0 -16 5 -15 11 2 7 3 69 4 138 0 70 4 123 9 120 5 -3 7 -12 3 -20 -3 -8 -2 -23 3 -32 4 -10 6 -54 5 -99 -2 -65 0 -83 14 -94 24 -20 35 2 35 71 0 37 5 61 14 69 11 8 12 18 6 35 -6 15 -6 27 0 30 6 4 10 18 10 33 0 16 3 22 8 15 6 -10 -6 -161 -21 -266 -2 -15 0 -30 6 -34 6 -3 7 -1 3 5 -5 8 1 12 16 12 22 0 23 3 22 77 0 47 5 90 13 108 l14 30 -5 -38 c-3 -22 -1 -35 5 -32 5 4 8 -11 6 -35 -2 -28 2 -47 13 -60 16 -19 17 -19 36 0 19 19 19 19 36 -10 9 -17 13 -30 7 -30 -6 0 -7 -4 -4 -10 3 -5 -1 -10 -9 -10 -9 0 -16 -4 -16 -8 0 -4 15 -8 33 -8 25 0 33 5 34 18 1 10 -2 16 -8 13 -5 -4 -9 -1 -9 6 0 7 8 9 23 5 65 -19 107 -8 107 28 0 8 7 19 16 24 14 8 15 23 10 98 -3 49 -5 94 -6 99 0 6 2 43 4 83 4 59 2 73 -9 68 -8 -3 -16 5 -20 22 -10 40 -25 55 -41 41 -10 -8 -14 -8 -14 0 0 17 -40 13 -46 -4 -11 -27 -23 -5 -14 25 11 39 2 39 -11 0z m-115 -236 c8 -22 7 -34 -3 -34 -5 0 -11 11 -13 25 -6 28 6 34 16 9z m263 -139 c-3 -23 -17 -48 -17 -29 0 15 12 54 17 54 2 0 2 -11 0 -25z"/>
<path d="M5250 1911 c-5 -11 -10 -32 -10 -47 0 -26 1 -27 19 -10 17 15 18 21 8 37 -10 16 -9 21 3 29 9 6 10 10 3 10 -7 0 -17 -9 -23 -19z"/>
<path d="M5344 1898 c11 -54 17 -98 12 -98 -20 0 -56 22 -56 34 0 8 -5 18 -10 21 -13 8 -1 -77 12 -86 6 -4 8 -29 5 -58 -3 -28 -1 -51 3 -51 4 0 4 -16 0 -36 -5 -20 -7 -51 -5 -70 2 -19 -1 -32 -5 -29 -10 6 -24 -51 -15 -65 3 -5 1 -10 -5 -10 -6 0 -8 -5 -5 -10 4 -6 12 -4 21 5 21 20 27 19 19 -5 -4 -13 -1 -22 9 -26 9 -3 17 -16 17 -28 1 -16 2 -17 6 -3 2 9 11 17 19 17 12 0 14 37 13 248 -1 234 -2 249 -20 260 -17 11 -19 10 -15 -10z m-3 -200 c-2 -57 -5 -68 -12 -49 -5 13 -7 40 -3 60 14 85 20 80 15 -11z"/>
<path d="M4726 1886 c3 -9 -3 -17 -15 -21 -20 -6 -21 -13 -19 -87 2 -61 0 -82 -10 -86 -10 -3 -13 8 -12 44 3 71 1 87 -10 104 -20 31 -27 -12 -29 -180 -2 -177 3 -220 24 -220 12 0 31 -36 28 -50 -1 -3 8 -7 20 -7 17 -2 19 0 7 7 -13 9 -13 10 0 10 13 0 13 1 0 10 -8 5 -10 10 -5 10 6 0 16 -5 23 -12 9 -9 12 20 13 133 1 79 1 147 1 150 -1 4 -2 52 -3 108 -1 55 -6 101 -10 101 -5 0 -6 -6 -3 -14z m-30 -289 c2 -57 0 -78 -11 -87 -13 -11 -15 -1 -15 72 0 77 6 106 18 94 2 -3 6 -38 8 -79z"/>
<path d="M5270 1610 c-7 -24 -7 -61 0 -65 12 -7 18 27 9 50 -4 11 -8 18 -9 15z"/>
<path d="M4955 1402 c2 -9 4 -19 5 -22 0 -3 5 3 11 13 8 13 14 15 29 7 20 -10 53 -3 45 10 -2 4 -25 8 -49 8 -37 1 -44 -2 -41 -16z"/>
<path d="M5212 1398 c-19 -19 -14 -29 8 -16 20 13 27 28 12 28 -4 0 -13 -5 -20 -12z"/>
<path d="M3955 1380 c-18 -8 -17 -9 8 -9 16 -1 26 3 22 9 -3 6 -7 10 -8 9 -1 0 -11 -4 -22 -9z"/>
</g>
<g id="layer108" fill="#5d657f" stroke="none">
<path d="M3987 3279 c1 -176 4 -323 7 -327 3 -3 6 42 6 99 0 57 1 204 3 327 1 143 -2 222 -8 222 -6 0 -9 -113 -8 -321z"/>
<path d="M4099 3518 c-4 -195 0 -560 5 -565 3 -4 6 87 6 202 0 184 2 211 18 228 9 11 12 17 5 14 -6 -4 -14 -3 -18 3 -3 5 -1 10 6 10 9 0 8 4 -1 15 -8 10 -11 41 -8 95 2 44 0 80 -4 80 -5 0 -9 -37 -9 -82z"/>
<path d="M4319 3584 c-7 -24 -3 -614 5 -621 8 -8 11 211 6 432 -3 116 -8 201 -11 189z"/>
<path d="M4423 3280 c1 -176 5 -320 10 -320 4 0 7 136 7 303 0 229 3 306 13 316 10 11 10 13 0 7 -7 -4 -13 -2 -13 3 0 6 -4 11 -10 11 -6 0 -9 -113 -7 -320z"/>
<path d="M4638 3413 c-4 -277 1 -453 13 -453 7 0 10 39 8 113 -4 171 0 239 11 232 6 -3 10 -2 10 4 0 5 -5 11 -12 13 -8 3 -11 44 -9 141 1 87 -2 137 -8 137 -6 0 -11 -70 -13 -187z"/>
<path d="M4825 3590 c-3 -5 -2 -17 3 -26 8 -14 10 -12 10 9 0 29 -3 33 -13 17z"/>
<path d="M4858 3578 c-7 -51 3 -618 11 -618 5 0 7 9 4 19 -3 13 1 21 14 24 17 4 17 5 0 6 -18 1 -18 14 -14 254 3 138 6 253 6 255 1 2 6 0 13 -4 7 -4 8 -3 4 5 -4 6 -12 8 -18 5 -6 -4 -9 7 -7 29 4 40 -8 62 -13 25z"/>
<path d="M4968 3594 c-3 -3 -4 -23 -1 -45 5 -35 4 -39 -13 -33 -17 5 -17 4 -4 -8 13 -11 16 -54 18 -278 2 -145 5 -266 7 -269 3 -2 5 95 5 215 0 158 3 223 12 232 8 8 8 12 1 12 -7 0 -10 31 -8 90 2 82 -2 100 -17 84z"/>
<path d="M5079 3578 c0 -13 0 -130 1 -261 1 -171 -2 -243 -11 -253 -9 -11 -9 -14 1 -14 7 0 11 -14 9 -40 -2 -21 0 -42 4 -46 8 -9 8 -16 7 210 -1 160 1 180 17 191 10 7 14 17 10 21 -4 5 -12 2 -18 -6 -6 -10 -9 24 -7 103 2 64 0 117 -4 117 -5 0 -8 -10 -9 -22z"/>
<path d="M5192 3516 l-2 -88 -30 6 c-18 3 -30 1 -30 -5 0 -6 5 -7 10 -4 6 3 10 -1 10 -11 0 -13 3 -14 13 -5 16 13 28 5 21 -14 -3 -8 -14 -11 -27 -7 -21 5 -21 4 3 -17 25 -23 25 -23 26 -212 0 -104 3 -192 7 -195 6 -7 12 235 7 328 -1 28 3 37 17 41 16 4 16 5 1 6 -15 1 -18 17 -21 134 -2 100 -3 110 -5 43z"/>
<path d="M5299 3598 c-1 -2 -2 -142 -4 -312 -2 -220 1 -315 9 -331 l12 -22 11 22 c8 19 8 22 -4 18 -11 -5 -13 44 -11 311 2 174 0 316 -4 316 -5 0 -9 -1 -9 -2z"/>
<path d="M4160 3387 c0 -19 16 -31 24 -18 3 5 -1 14 -9 21 -12 10 -15 10 -15 -3z"/>
<path d="M4046 3365 c4 -8 10 -12 15 -9 14 8 10 24 -6 24 -9 0 -12 -6 -9 -15z"/>
<path d="M4157 3329 c-3 -11 0 -16 8 -12 19 7 26 30 10 30 -8 0 -16 -8 -18 -18z"/>
<path d="M3920 2608 c-1 -40 -2 -79 -1 -85 1 -7 1 -21 0 -30 0 -10 -1 -89 -2 -175 -1 -101 -5 -159 -12 -160 -5 0 19 -4 55 -7 37 -4 68 -3 71 2 4 5 12 6 19 2 7 -4 16 -2 21 6 8 12 10 12 18 0 5 -7 14 -10 20 -6 7 4 18 2 25 -4 13 -11 54 -7 67 6 11 11 13 55 5 150 -4 48 -3 84 3 87 5 4 12 -23 16 -61 10 -117 16 -152 25 -158 5 -3 11 -2 14 3 7 11 17 135 17 220 1 105 17 88 19 -20 3 -131 12 -189 28 -179 8 4 14 31 15 64 3 76 21 67 25 -13 3 -49 9 -68 27 -88 12 -13 29 -22 36 -19 10 4 9 6 -3 6 -16 1 -17 11 -15 76 2 41 6 77 10 81 15 15 22 -10 19 -66 -2 -57 11 -89 22 -53 10 33 21 177 19 258 -2 149 -1 142 -27 149 -17 4 -25 15 -30 41 -4 20 -11 33 -17 29 -6 -3 -8 -9 -5 -12 3 -3 -1 -14 -10 -24 -15 -16 -18 -16 -29 -2 -10 15 -14 14 -37 -7 -20 -20 -25 -32 -23 -69 2 -51 -3 -72 -16 -64 -13 7 -11 74 1 74 7 0 7 6 1 18 -5 9 -10 19 -10 22 -15 58 -17 59 -36 33 -7 -10 -10 -33 -7 -55 5 -44 -13 -53 -21 -10 -4 19 -12 28 -27 29 -11 1 -18 -2 -15 -7 3 -5 0 -12 -6 -16 -8 -4 -9 -3 -5 4 4 7 3 12 -1 12 -5 0 -14 9 -21 21 -13 20 -12 21 19 14 22 -5 29 -4 25 4 -4 6 -16 11 -27 11 -11 0 -22 7 -25 15 -12 31 -23 13 -23 -38 1 -29 -2 -79 -6 -112 -7 -50 -9 -56 -17 -36 -4 13 -6 32 -3 42 3 9 1 20 -4 23 -11 7 -8 54 5 95 5 19 4 22 -6 16 -10 -6 -12 -3 -7 11 7 18 6 18 -7 1 -7 -9 -16 -35 -20 -57 -9 -60 -23 -56 -30 10 -4 33 -11 60 -16 60 -5 0 -7 -13 -3 -30 4 -23 2 -30 -10 -30 -10 0 -17 11 -19 33 -2 24 -8 33 -24 35 -20 3 -21 -2 -24 -70z m509 -70 c-1 -42 -1 -42 -10 -13 -5 17 -7 36 -4 43 9 24 15 11 14 -30z m-209 -94 c0 -8 -4 -14 -10 -14 -5 0 -10 9 -10 21 0 11 5 17 10 14 6 -3 10 -13 10 -21z m-122 -107 c-2 -52 -7 -86 -13 -85 -5 2 -10 17 -9 33 1 17 2 59 3 95 1 44 4 61 11 54 7 -7 10 -47 8 -97z m64 41 c-4 -28 -6 -30 -12 -13 -4 11 -3 26 2 33 15 17 15 16 10 -20z m-137 -154 c1 -30 -3 -53 -8 -51 -6 2 -10 25 -9 52 0 66 1 70 9 61 4 -4 8 -32 8 -62z m75 -34 c0 -5 -7 -10 -15 -10 -8 0 -15 5 -15 10 0 6 7 10 15 10 8 0 15 -4 15 -10z"/>
<path d="M5247 2640 c-3 -11 0 -20 5 -20 6 0 4 -7 -3 -17 -13 -15 -12 -15 8 -3 18 12 20 18 11 34 -15 29 -15 29 -21 6z"/>
<path d="M5347 2623 c3 -21 9 -45 14 -54 11 -22 1 -31 -22 -18 -16 8 -19 6 -19 -11 0 -12 -4 -19 -9 -16 -5 3 -8 17 -8 32 0 14 -5 30 -11 36 -8 8 -10 0 -5 -28 3 -21 13 -44 21 -50 11 -8 13 -22 7 -60 -9 -63 4 -52 15 13 l8 48 1 -70 c0 -47 -2 -65 -9 -55 -8 12 -10 12 -16 -3 -8 -23 0 -215 10 -225 4 -4 14 2 22 12 10 14 11 22 3 27 -8 5 -8 8 0 13 6 4 11 17 12 29 0 21 1 21 9 2 5 -12 8 69 7 190 -1 198 -4 224 -29 225 -4 0 -4 -17 -1 -37z"/>
<path d="M5038 2583 c-3 -27 -4 -68 -2 -93 10 -147 12 -240 6 -240 -4 0 -8 -12 -9 -27 -1 -16 2 -21 7 -13 6 9 13 5 26 -15 16 -25 19 -26 25 -9 7 18 8 18 8 1 1 -10 6 -15 11 -12 6 3 10 1 10 -4 0 -6 14 -11 31 -11 26 0 30 3 26 19 -4 15 -1 18 12 13 9 -3 19 -10 23 -16 7 -10 13 32 8 63 -1 7 2 25 6 40 7 24 9 22 14 -19 6 -39 7 -35 8 32 1 42 -3 89 -10 103 -9 19 -8 30 1 48 16 30 11 119 -6 112 -8 -3 -13 4 -13 18 0 12 -7 31 -16 42 -13 17 -16 18 -25 5 -8 -11 -12 -12 -16 -2 -8 20 -40 14 -46 -9 -3 -12 -10 -18 -16 -15 -6 4 -7 14 -4 24 6 15 5 16 -12 2 -14 -11 -19 -12 -22 -2 -9 26 -20 10 -25 -35z"/>
<path d="M4714 2602 c-6 -4 -9 -41 -7 -97 7 -202 5 -248 -9 -256 -7 -5 -15 -9 -18 -9 -3 0 -4 73 -2 162 2 156 -6 212 -26 181 -7 -10 -9 -285 -3 -370 1 -28 21 -31 21 -3 0 30 27 24 42 -10 30 -69 36 -44 37 169 2 232 -2 256 -35 233z"/>
<path d="M4841 2581 c-7 -16 -10 -52 -7 -85 3 -45 2 -56 -10 -56 -12 0 -14 15 -13 71 2 66 -10 103 -28 85 -7 -7 -10 -173 -4 -241 2 -16 0 -67 -3 -112 -3 -49 -1 -85 4 -88 6 -3 10 1 10 10 0 9 5 13 10 10 10 -6 16 72 14 188 -1 43 2 57 12 57 10 0 13 -7 8 -24 -3 -14 -2 -31 2 -38 5 -7 7 -46 5 -86 -2 -47 2 -78 9 -87 22 -26 30 -16 30 38 0 28 7 65 15 81 8 15 12 38 9 51 -3 13 -1 26 5 29 17 11 13 26 -4 20 -13 -5 -15 8 -15 82 -1 58 -5 95 -14 107 -18 23 -22 22 -35 -12z"/>
<path d="M4982 2598 c0 -7 -5 -26 -10 -43 -10 -31 -11 -29 -27 20 -2 8 -12 15 -20 15 -12 0 -15 -6 -10 -20 4 -11 2 -20 -4 -20 -13 0 -3 -113 11 -121 7 -5 8 -41 2 -105 -4 -55 -7 -103 -6 -107 1 -4 -3 -17 -9 -29 -8 -15 -8 -18 0 -14 14 9 14 -7 0 -21 -7 -7 -3 -9 15 -6 20 4 24 9 16 22 -5 9 -5 23 -1 29 4 7 9 36 10 64 1 28 9 63 17 77 l14 26 -1 -30 c-1 -16 1 -37 5 -46 4 -9 6 -20 5 -25 -3 -18 1 -34 10 -34 5 0 9 46 9 103 1 56 1 137 2 180 0 43 -2 82 -5 88 -9 13 -22 11 -23 -3z m-1 -180 c0 -7 2 -21 4 -30 2 -10 -1 -18 -6 -18 -5 0 -9 3 -9 8 0 4 -3 17 -6 30 -4 13 -2 22 5 22 6 0 11 -6 12 -12z"/>
<path d="M4513 2585 c-12 -13 -16 -195 -4 -195 3 0 5 -44 5 -97 l-2 -98 37 2 c20 1 42 2 49 2 6 1 12 9 12 19 0 14 2 15 10 2 6 -9 10 -10 10 -3 0 6 -4 14 -9 17 -5 3 -9 45 -9 93 0 250 -1 268 -16 247 -8 -10 -11 -21 -8 -24 4 -3 4 -52 0 -110 -5 -58 -8 -127 -8 -154 1 -35 -4 -52 -17 -61 -22 -17 -36 -9 -28 15 12 38 13 329 1 344 -9 12 -13 13 -23 1z"/>
<path d="M5270 2323 c0 -18 2 -33 4 -33 9 0 13 39 5 51 -6 10 -9 4 -9 -18z"/>
<path d="M4990 2205 c7 -8 17 -15 22 -15 6 0 5 7 -2 15 -7 8 -17 15 -22 15 -6 0 -5 -7 2 -15z"/>
<path d="M5360 2213 c0 -5 5 -15 10 -23 8 -12 10 -11 10 8 0 12 -4 22 -10 22 -5 0 -10 -3 -10 -7z"/>
<path d="M4686 2188 c1 -13 3 -26 3 -30 1 -5 11 -8 24 -8 20 1 20 2 5 11 -10 5 -18 19 -18 29 0 11 -4 20 -8 20 -5 0 -8 -10 -6 -22z"/>
<path d="M4617 2193 c-3 -5 -1 -17 4 -28 4 -11 8 -15 8 -8 1 6 4 18 7 27 6 16 -11 23 -19 9z"/>
<path d="M4561 2173 c0 -6 -9 -13 -18 -16 -17 -4 -17 -4 0 -12 22 -9 30 -2 24 22 -3 10 -5 13 -6 6z"/>
<path d="M4053 2136 c-21 -12 -19 -13 22 -14 25 0 45 4 45 9 0 5 -4 9 -9 9 -5 0 -15 2 -23 4 -7 2 -23 -2 -35 -8z"/>
<path d="M4270 2138 c0 -9 -2 -8 58 -14 35 -3 42 -1 42 14 0 11 -3 13 -8 5 -7 -11 -62 -13 -62 -2 0 3 -7 6 -15 6 -8 0 -15 -4 -15 -9z"/>
<path d="M3899 1828 c-1 -62 -1 -119 0 -125 1 -7 -3 -13 -8 -13 -6 0 -8 -6 -6 -13 3 -7 7 -57 9 -112 2 -55 6 -112 9 -127 3 -21 0 -28 -12 -28 -14 0 -14 -2 -1 -10 8 -5 21 -5 28 -1 8 5 31 5 51 0 23 -5 38 -4 42 3 4 6 12 7 19 3 7 -4 16 -2 21 6 4 7 11 10 16 6 4 -5 2 -11 -4 -15 -19 -12 2 -36 23 -28 14 6 16 9 5 15 -10 7 -10 10 -1 16 6 4 17 2 23 -4 15 -15 39 -14 63 3 17 13 19 26 17 133 -2 129 11 121 21 -14 6 -69 17 -105 30 -92 9 8 15 60 17 135 1 44 7 78 14 84 10 8 12 -4 10 -55 -1 -36 1 -68 5 -70 4 -3 5 -22 3 -43 -3 -30 -1 -41 12 -46 9 -3 13 -2 10 4 -3 6 -1 10 4 10 7 0 11 27 11 68 1 61 2 65 15 48 11 -14 13 -34 9 -73 -6 -43 -4 -54 10 -59 9 -3 16 -12 16 -20 0 -7 11 -16 25 -20 14 -3 25 -10 25 -16 0 -5 6 -6 12 -1 7 4 26 6 43 5 l30 -1 -30 13 c-22 11 -32 11 -38 3 -6 -9 -10 -9 -13 0 -3 7 -12 9 -20 6 -11 -4 -14 5 -13 43 0 27 3 66 6 87 4 32 7 36 19 26 12 -10 12 -14 2 -20 -7 -5 -8 -9 -2 -9 7 0 9 -19 6 -55 -3 -37 -1 -55 7 -55 6 0 12 6 12 13 1 6 3 21 5 32 8 52 18 163 17 190 -5 180 -6 196 -17 192 -15 -5 -31 13 -40 46 -3 15 -13 27 -22 27 -8 0 -12 -5 -9 -10 4 -6 1 -17 -5 -25 -10 -13 -14 -12 -27 0 -12 13 -17 12 -40 -11 -27 -27 -40 -74 -21 -74 6 0 6 -6 -2 -15 -8 -10 -9 -15 -2 -15 6 0 9 -7 6 -15 -4 -8 -12 -15 -18 -15 -15 0 -20 71 -6 80 13 8 -10 80 -26 80 -16 0 -24 -22 -25 -73 -1 -23 -4 -32 -6 -19 -5 24 -18 29 -26 10 -3 -7 -6 -1 -6 15 -1 30 -4 32 -32 17 -15 -8 -19 -7 -19 5 0 8 -4 15 -10 15 -5 0 -10 4 -10 10 0 5 13 7 30 4 19 -4 30 -2 30 5 0 6 -13 11 -30 11 -20 0 -30 5 -30 15 0 8 -4 15 -8 15 -5 0 -9 -28 -9 -62 -2 -73 -11 -159 -18 -166 -5 -5 -9 29 -7 58 1 8 -3 30 -8 49 -7 24 -5 43 5 68 13 31 13 34 0 30 -10 -4 -12 -1 -8 10 4 11 2 14 -5 9 -6 -4 -16 -33 -23 -66 -15 -80 -34 -84 -35 -9 0 33 -6 65 -12 71 -9 9 -9 4 -3 -20 5 -17 6 -34 2 -36 -14 -9 -29 9 -33 39 -2 22 -9 31 -25 33 -23 3 -23 2 -24 -110z m521 -28 c0 -22 -4 -40 -10 -40 -11 0 -14 63 -3 73 11 12 13 8 13 -33z m-135 -102 c-2 -31 -20 -33 -21 -3 -1 14 4 25 10 25 7 0 12 -10 11 -22z m-205 -102 c0 -52 -4 -97 -9 -101 -5 -3 -11 -2 -13 2 -7 17 4 193 13 193 5 0 9 -42 9 -94z m73 57 c-8 -3 -11 -14 -7 -30 5 -18 3 -24 -5 -19 -21 14 -11 57 13 55 6 0 6 -3 -1 -6z m-146 -173 c-1 -33 -5 -60 -9 -60 -4 0 -8 27 -8 60 0 33 4 60 9 60 5 0 9 -27 8 -60z m73 -40 c0 -5 -7 -10 -15 -10 -8 0 -15 5 -15 10 0 6 7 10 15 10 8 0 15 -4 15 -10z"/>
<path d="M4000 1915 c0 -8 5 -15 10 -15 6 0 10 7 10 15 0 8 -4 15 -10 15 -5 0 -10 -7 -10 -15z"/>
<path d="M5250 1904 c-18 -47 -9 -69 17 -43 9 9 9 16 0 31 -10 15 -9 21 3 28 10 7 11 10 2 10 -7 0 -17 -12 -22 -26z"/>
<path d="M5347 1882 c3 -20 10 -45 15 -55 12 -24 0 -41 -18 -26 -22 18 -26 7 -29 -73 -2 -47 0 -64 5 -48 4 14 8 37 9 52 1 15 4 29 9 31 4 3 5 -27 3 -66 -2 -40 -6 -66 -8 -59 -12 31 -21 5 -22 -65 -2 -107 7 -160 28 -166 12 -3 17 2 17 17 -1 12 -5 24 -9 27 -4 3 0 19 9 35 l16 29 -5 -30 c-2 -16 -1 -43 3 -60 4 -16 8 39 7 122 0 109 -3 151 -11 146 -7 -3 -6 -1 1 7 9 9 9 19 2 33 -8 13 -8 17 -1 13 7 -4 11 20 10 72 0 65 -3 80 -18 90 -17 10 -18 8 -13 -26z"/>
<path d="M5034 1875 c-6 -15 2 -260 10 -338 3 -20 1 -35 -4 -32 -4 3 -10 -5 -14 -18 -8 -32 -7 -39 4 -32 6 4 8 12 4 18 -3 7 2 3 10 -7 9 -11 16 -23 16 -27 0 -4 7 -9 14 -12 10 -4 13 -1 9 9 -3 7 0 14 6 14 6 0 11 -8 11 -17 0 -15 2 -16 10 -3 8 13 10 12 10 -2 0 -12 8 -18 24 -18 13 0 30 -2 38 -3 7 -2 10 -2 6 0 -14 8 -8 33 8 33 9 0 12 -5 8 -12 -5 -10 -4 -10 6 -1 7 6 12 32 12 59 -2 61 11 80 19 29 5 -35 6 -33 7 20 0 42 -2 54 -8 40 -9 -20 -9 -20 -9 0 -1 12 3 25 9 31 6 6 6 20 -2 40 -7 19 -8 39 -3 50 13 28 14 94 3 94 -6 0 -4 8 3 17 12 15 12 16 -3 10 -13 -4 -18 1 -23 23 -7 34 -30 56 -40 40 -3 -5 -3 -16 0 -22 4 -7 -2 -3 -13 10 -27 30 -38 28 -51 -8 -10 -30 -23 -41 -20 -17 3 26 -2 36 -16 31 -8 -4 -15 -1 -15 5 0 16 -20 13 -26 -4z m146 -50 c0 -8 -4 -15 -10 -15 -5 0 -10 7 -10 15 0 8 5 15 10 15 6 0 10 -7 10 -15z"/>
<path d="M4699 1843 c-7 -19 -7 -39 -1 -59 5 -18 6 -37 3 -43 -4 -6 -4 -43 0 -83 4 -40 4 -74 0 -76 -4 -1 -5 -19 -3 -38 4 -32 -7 -53 -28 -54 -3 0 -5 78 -5 174 0 161 -5 200 -22 183 -8 -9 -14 -299 -7 -359 6 -47 24 -68 24 -28 0 31 30 24 43 -10 6 -16 17 -30 24 -30 9 0 12 52 13 208 0 115 -2 216 -6 225 -9 25 -23 21 -35 -10z"/>
<path d="M4837 1837 c-14 -25 -17 -47 -13 -90 4 -34 2 -57 -4 -57 -11 0 -13 13 -11 91 1 38 -4 61 -13 68 -28 24 -38 -21 -31 -142 8 -132 8 -114 2 -208 -3 -42 -1 -82 4 -90 6 -10 9 -7 10 11 0 14 3 19 6 13 13 -33 18 -3 21 114 2 70 5 129 8 132 11 12 15 -16 17 -122 1 -76 6 -120 14 -128 19 -19 24 -8 29 62 2 34 10 69 15 76 6 7 9 24 7 38 -3 14 -1 28 3 31 5 3 9 16 9 30 0 15 4 23 10 19 6 -4 8 -21 5 -38 -3 -18 -7 -66 -9 -107 -5 -88 -8 -102 -21 -112 -6 -5 -5 -8 4 -8 10 0 11 -3 2 -14 -9 -11 -7 -12 11 -9 21 4 23 10 26 85 2 45 9 90 15 101 9 15 9 21 0 24 -7 3 -13 9 -13 14 0 5 8 4 19 -3 15 -9 17 -17 11 -40 -5 -16 -5 -28 1 -28 5 0 9 -13 9 -29 0 -17 5 -33 10 -36 6 -4 10 14 10 47 1 29 3 112 5 185 3 102 1 134 -9 142 -11 9 -15 6 -22 -16 -4 -16 -8 -31 -8 -35 -3 -21 -15 -15 -24 11 -12 33 -45 43 -41 14 5 -51 -2 -183 -10 -179 -5 3 -9 45 -10 92 -1 51 -7 94 -14 105 -12 16 -14 15 -30 -14z m142 -200 c1 -10 -3 -16 -8 -13 -11 7 -20 53 -12 61 7 7 19 -23 20 -48z"/>
<path d="M4503 1845 c-12 -14 -17 -180 -6 -199 3 -4 5 -53 4 -109 -2 -90 -1 -99 13 -88 10 9 16 10 16 3 0 -6 6 -9 14 -6 11 4 13 0 9 -15 -3 -12 -12 -21 -20 -21 -8 0 -11 -4 -8 -10 13 -20 35 -10 35 16 0 17 6 28 20 31 16 4 20 14 20 47 0 22 0 75 1 116 1 215 -1 236 -17 215 -8 -11 -11 -21 -7 -22 9 -3 6 -162 -3 -202 -4 -20 -7 -22 -15 -10 -7 12 -9 11 -9 -3 0 -9 5 -20 10 -23 18 -11 12 -73 -9 -85 -30 -15 -33 -13 -26 23 8 47 6 340 -3 348 -4 4 -13 1 -19 -6z"/>
<path d="M5287 1823 c8 -50 13 -55 13 -10 0 20 -4 38 -9 42 -6 3 -7 -10 -4 -32z"/>
<path d="M5272 1580 c0 -19 2 -27 5 -17 2 9 2 25 0 35 -3 9 -5 1 -5 -18z"/>
<path d="M4676 1434 c3 -34 15 -46 34 -34 8 5 10 10 4 10 -7 0 -15 11 -18 25 -8 33 -24 32 -20 -1z"/>
<path d="M5020 1410 c0 -5 -8 -7 -17 -4 -14 5 -15 4 -4 -4 7 -5 22 -7 32 -5 23 6 24 9 4 17 -8 3 -15 1 -15 -4z"/>
<path d="M4797 1396 c-4 -10 -5 -21 -2 -24 9 -9 17 6 13 25 -3 17 -4 17 -11 -1z"/>
<path d="M5065 1400 c3 -5 -1 -10 -9 -10 -9 0 -16 -5 -16 -10 0 -7 6 -7 19 0 13 7 22 7 26 0 9 -15 22 -12 22 4 0 8 -6 12 -14 9 -7 -3 -13 0 -13 6 0 6 -5 11 -11 11 -5 0 -7 -4 -4 -10z"/>
<path d="M4180 1385 c-9 -10 -9 -15 -1 -15 6 0 11 5 11 10 0 14 27 13 32 -2 3 -7 9 -8 18 -3 11 7 10 10 -6 16 -29 12 -40 10 -54 -6z"/>
<path d="M4271 1391 c-10 -6 -10 -10 -1 -16 13 -8 24 -1 19 14 -3 6 -10 7 -18 2z"/>
<path d="M4015 1380 c-19 -8 -19 -9 2 -9 12 -1 25 4 28 9 7 12 -2 12 -30 0z"/>
</g>
<g id="layer109" fill="#4b7aa6" stroke="none">
<path d="M3926 2438 c1 -134 3 -251 4 -260 2 -22 21 -19 38 7 11 18 12 17 6 -8 -6 -24 -4 -28 12 -26 11 2 25 0 32 -4 7 -5 12 -3 12 3 0 7 7 9 17 6 9 -4 20 -1 25 6 6 10 10 10 17 -1 5 -7 14 -10 20 -7 6 4 17 4 23 0 37 -23 78 2 78 47 0 13 -3 63 -6 112 -4 55 -3 87 3 87 12 0 23 -57 23 -122 0 -55 16 -106 30 -92 8 8 21 164 20 247 -1 25 4 37 13 37 10 0 12 -17 10 -77 -5 -104 8 -205 24 -195 7 5 13 34 14 69 2 47 5 60 15 56 10 -4 14 -25 14 -74 0 -53 3 -69 14 -69 8 0 17 -8 19 -17 3 -11 5 -5 6 12 6 106 9 134 20 151 10 15 11 15 7 2 -3 -10 -1 -20 5 -23 5 -4 8 -30 7 -58 -3 -51 15 -85 19 -37 8 98 14 157 19 171 2 9 0 35 -5 58 -5 26 -5 41 1 41 5 0 7 4 4 8 -3 5 -6 29 -7 55 -3 45 -11 58 -24 37 -3 -5 -1 -10 4 -10 6 0 11 -5 11 -11 0 -8 -4 -8 -14 1 -8 6 -12 18 -9 26 3 8 1 14 -5 14 -5 0 -13 15 -17 33 -6 29 -7 30 -15 11 -11 -28 -30 -40 -40 -24 -10 16 -50 3 -50 -16 0 -8 -4 -13 -9 -10 -12 8 -9 -47 4 -56 6 -5 6 -8 -1 -8 -6 0 -10 -11 -9 -25 2 -17 -2 -25 -12 -25 -13 0 -15 10 -11 50 3 28 1 53 -4 56 -5 3 -7 12 -5 18 3 7 1 19 -4 27 -15 25 -28 -3 -30 -68 -2 -67 -19 -88 -20 -25 0 27 -2 32 -8 18 -6 -17 -8 -17 -14 -4 -3 9 -16 18 -29 20 -13 2 -23 10 -22 18 0 8 -7 23 -16 32 -15 16 -16 13 -15 -35 0 -29 -4 -63 -8 -77 -9 -28 -10 -249 -1 -277 5 -14 4 -15 -4 -4 -5 7 -15 10 -22 6 -10 -6 -11 15 -5 96 12 171 12 193 2 206 -9 13 -6 62 7 98 6 17 4 16 -14 -4 -12 -14 -24 -37 -27 -51 -2 -14 -14 -32 -24 -39 -18 -11 -19 -10 -11 6 14 26 13 78 -1 64 -21 -21 -37 -12 -37 23 0 31 -13 46 -39 46 -3 0 -6 -109 -5 -242z m506 90 c2 -29 -1 -60 -7 -70 -8 -12 -11 -1 -13 53 -2 80 14 94 20 17z m-199 -72 c4 4 7 3 7 -3 0 -9 -22 -23 -36 -23 -2 0 -4 15 -4 33 1 31 1 31 13 9 7 -12 16 -19 20 -16z m-203 2 c0 -13 -23 -5 -28 10 -2 7 2 10 12 6 9 -3 16 -11 16 -16z m134 -33 c-4 -8 -1 -15 6 -15 9 0 10 -3 1 -14 -6 -7 -9 -20 -5 -29 3 -8 1 -18 -4 -21 -6 -3 -13 6 -17 21 -4 16 -2 29 5 33 9 5 9 9 1 14 -16 10 -14 26 4 26 9 0 12 -6 9 -15z m-138 -202 c1 -56 -1 -60 -21 -60 -21 0 -21 2 -10 23 7 14 10 43 8 65 -4 32 -2 40 8 37 10 -3 14 -24 15 -65z m74 -30 c0 -7 -7 -13 -15 -13 -8 0 -15 6 -15 13 0 8 7 14 15 14 8 0 15 -6 15 -14z"/>
<path d="M5351 2630 c0 -14 4 -34 9 -45 7 -17 9 -16 9 10 0 17 -4 37 -9 45 -8 12 -10 10 -9 -10z"/>
<path d="M5127 2623 c-4 -3 -7 -15 -7 -25 0 -10 -4 -18 -9 -18 -6 0 -7 -16 -4 -35 4 -28 2 -35 -11 -35 -17 0 -22 25 -6 35 5 3 6 15 1 28 -4 12 -6 28 -4 35 3 7 -1 10 -11 6 -9 -3 -16 -10 -16 -16 0 -5 -4 -6 -10 -3 -5 3 -10 1 -10 -4 0 -6 5 -11 11 -11 6 0 3 -7 -6 -16 -9 -9 -14 -23 -11 -31 3 -8 6 -37 6 -64 0 -34 4 -48 11 -43 8 5 8 1 0 -13 -6 -13 -7 -46 -2 -94 4 -41 5 -75 0 -77 -4 -2 0 -16 9 -33 18 -31 36 -40 25 -13 -5 14 -3 15 14 6 11 -6 23 -9 26 -6 3 3 3 -3 0 -15 -5 -18 -1 -21 27 -21 28 0 32 3 27 20 -4 15 -1 20 11 18 10 -2 20 -7 23 -11 3 -5 9 31 13 80 3 48 11 89 16 91 5 2 5 13 -1 29 -8 22 -7 47 5 121 3 12 1 20 -4 17 -8 -5 -26 35 -32 69 -4 26 -25 32 -31 9 -4 -16 -6 -15 -12 5 -7 21 -25 29 -38 15z m53 -65 c0 -12 -3 -18 -7 -14 -11 10 -12 36 -2 36 5 0 9 -10 9 -22z m-15 -208 c19 -36 19 -50 1 -50 -8 0 -14 8 -14 18 1 9 -2 27 -6 40 -10 32 1 27 19 -8z m-33 -82 c-9 -9 -15 -9 -24 0 -9 9 -7 12 12 12 19 0 21 -3 12 -12z m58 2 c13 -9 13 -11 0 -20 -26 -17 -49 -12 -43 10 6 22 20 25 43 10z"/>
<path d="M4714 2597 c-3 -9 -6 -27 -6 -39 6 -230 3 -303 -13 -314 -14 -10 -14 -12 -1 -17 9 -4 18 -18 22 -32 8 -33 20 -32 27 3 11 53 2 391 -11 404 -9 9 -13 8 -18 -5z"/>
<path d="M4982 2585 c-7 -14 -12 -32 -12 -40 0 -25 -15 -17 -27 15 -6 17 -17 30 -23 30 -7 0 -10 -7 -6 -15 3 -8 1 -26 -4 -39 -5 -13 -6 -27 -2 -31 3 -3 5 -22 3 -41 -1 -22 2 -34 10 -34 15 0 4 -212 -13 -244 l-10 -21 20 20 c22 21 34 84 36 187 1 56 16 78 30 42 11 -28 7 -46 -9 -40 -8 3 -15 1 -15 -4 0 -6 5 -10 11 -10 7 0 10 -12 7 -30 -3 -16 -1 -30 3 -30 4 0 10 -17 12 -37 2 -21 5 7 6 62 1 55 4 135 7 178 5 90 -5 124 -24 82z m-12 -96 c0 -11 4 -18 9 -15 5 4 7 -3 4 -14 -5 -20 -23 -28 -23 -11 0 5 -3 23 -7 41 -4 24 -3 31 5 26 7 -4 12 -16 12 -27z"/>
<path d="M4850 2585 c0 -8 -5 -15 -11 -15 -7 0 -9 -22 -6 -64 3 -41 1 -69 -7 -77 -8 -9 -7 -11 4 -7 13 5 15 -10 12 -97 -2 -106 11 -173 28 -145 6 8 10 41 10 73 0 31 5 57 10 57 6 0 10 17 10 38 0 21 6 44 13 51 10 10 9 11 -5 6 -20 -8 -21 3 -20 115 1 52 -10 80 -29 80 -5 0 -9 -7 -9 -15z"/>
<path d="M4512 2578 c-15 -15 -16 -94 -1 -104 6 -4 7 -10 2 -15 -12 -12 -4 -69 9 -69 5 0 6 -5 2 -12 -9 -14 -12 -156 -4 -166 9 -12 38 -13 45 -2 4 7 0 10 -11 8 -20 -3 -20 -4 -15 117 5 103 1 255 -7 255 -4 0 -13 -5 -20 -12z"/>
<path d="M4649 2573 c-5 -125 2 -368 11 -377 9 -8 11 -1 8 32 -2 23 -1 42 2 42 8 0 12 209 5 268 -6 49 -24 73 -26 35z"/>
<path d="M4779 2583 c-6 -30 -5 -104 2 -108 4 -3 3 -19 -1 -37 -6 -18 -6 -47 0 -71 5 -23 7 -44 4 -49 -12 -19 -5 -118 9 -133 14 -13 16 -6 19 77 2 51 2 146 0 211 -3 94 -6 117 -18 117 -8 0 -15 -3 -15 -7z"/>
<path d="M4599 2579 c0 -2 -2 -60 -5 -128 -2 -75 -9 -128 -15 -132 -8 -4 -8 -8 -1 -13 6 -4 9 -12 7 -19 -2 -7 -6 -31 -9 -53 -4 -36 -3 -41 12 -37 20 5 20 12 21 233 0 79 -2 146 -4 149 -3 2 -5 2 -6 0z"/>
<path d="M5323 2508 c-1 -34 0 -38 6 -18 4 14 14 25 23 24 8 -1 15 4 15 11 0 7 -6 11 -14 8 -7 -3 -13 0 -13 6 0 6 -4 11 -8 11 -4 0 -9 -19 -9 -42z"/>
<path d="M5347 2493 c-4 -3 -7 -39 -7 -79 0 -62 -2 -72 -16 -67 -13 5 -15 -4 -14 -53 3 -87 10 -124 26 -124 8 0 14 7 14 16 0 8 -5 12 -11 8 -7 -4 -6 3 2 17 7 13 11 43 10 67 -1 23 2 42 7 42 6 0 12 7 15 14 4 10 1 13 -9 9 -16 -6 -20 12 -4 22 12 7 14 65 2 65 -4 0 -6 16 -4 35 4 35 2 41 -11 28z"/>
<path d="M4688 2185 c6 -36 19 -40 14 -4 -2 16 -8 29 -12 29 -4 0 -5 -11 -2 -25z"/>
<path d="M4621 2173 c0 -25 1 -26 9 -8 12 27 12 35 0 35 -5 0 -10 -12 -9 -27z"/>
<path d="M3902 1789 c-1 -110 1 -156 10 -167 7 -9 8 -13 3 -10 -7 4 -11 -21 -13 -70 -1 -61 2 -83 17 -106 18 -27 19 -27 26 -7 5 18 8 19 21 7 18 -19 18 -30 -1 -22 -8 3 -15 1 -15 -4 0 -5 14 -8 31 -8 16 1 25 4 19 8 -7 4 -14 35 -16 69 -3 48 -1 61 11 61 16 0 27 -14 18 -23 -3 -4 -7 -23 -8 -43 -2 -31 4 -44 31 -71 34 -34 60 -44 51 -19 -3 8 0 19 7 26 10 8 15 7 19 -3 6 -16 33 -16 60 -1 17 10 19 24 18 130 0 134 12 129 27 -11 9 -83 16 -105 27 -93 3 3 8 50 12 104 3 55 10 107 15 118 7 12 7 16 0 12 -6 -3 -10 8 -10 29 0 46 27 49 29 3 1 -18 0 -37 -1 -43 -1 -5 -1 -37 1 -70 1 -33 2 -77 2 -98 -1 -30 2 -37 15 -35 10 2 17 10 18 18 1 8 2 38 3 65 2 47 3 49 17 30 8 -11 14 -31 13 -45 -3 -56 1 -91 11 -85 6 3 10 -1 10 -9 0 -8 3 -17 8 -19 4 -3 8 28 9 69 3 84 8 100 28 84 9 -8 12 -29 8 -70 -3 -39 -1 -60 6 -60 6 0 12 14 12 30 1 30 4 48 9 53 1 1 3 25 5 53 1 28 5 56 9 62 3 6 2 30 -2 54 -5 24 -8 64 -6 91 2 41 -1 51 -24 72 -15 14 -31 25 -36 25 -4 0 -3 6 3 14 9 10 8 16 -4 26 -13 11 -14 10 -10 -2 9 -22 -21 -44 -39 -29 -16 14 -46 4 -46 -15 0 -8 -5 -14 -11 -14 -6 0 -9 -6 -6 -14 3 -8 1 -17 -6 -20 -8 -3 -9 -7 -2 -13 6 -4 9 -15 9 -23 -1 -8 -2 -21 -3 -27 0 -7 -8 -13 -16 -13 -11 0 -15 11 -15 40 0 22 5 40 10 40 7 0 7 6 1 18 -5 9 -12 25 -15 35 -10 32 -31 12 -33 -31 0 -23 -2 -54 -2 -69 -1 -19 -4 -24 -10 -15 -4 7 -6 25 -4 40 2 15 0 21 -3 15 -8 -19 -24 -16 -24 5 0 9 -5 24 -11 32 -10 13 -10 13 -7 0 3 -8 -3 -22 -12 -31 -16 -15 -17 -14 -18 12 -1 26 -42 87 -42 61 0 -6 5 -14 10 -17 8 -5 8 -11 0 -20 -5 -7 -10 -28 -10 -46 0 -71 -4 -109 -12 -109 -4 0 -9 10 -10 23 -1 12 -2 31 -3 42 -1 11 -5 28 -9 38 -8 17 -5 47 8 78 5 10 2 16 -8 16 -10 0 -20 -18 -27 -48 -17 -66 -38 -72 -33 -11 2 26 1 41 -2 35 -3 -7 -14 -13 -25 -13 -15 0 -19 7 -19 34 0 31 -13 46 -38 46 -4 0 -8 -68 -10 -151z m520 -5 c3 -57 -5 -75 -25 -55 -7 7 -7 11 0 11 6 0 8 19 5 50 -3 31 -1 50 6 50 5 0 12 -25 14 -56z m-262 -71 c0 -5 -4 -15 -10 -23 -5 -9 -5 -19 2 -27 7 -9 7 -13 -1 -13 -7 0 -9 -9 -5 -25 3 -14 2 -25 -4 -25 -14 0 -21 49 -8 53 7 3 7 9 -3 20 -11 14 -11 18 4 23 13 5 14 9 3 15 -10 7 -9 9 5 9 9 0 17 -3 17 -7z m-79 -85 c0 -35 2 -77 3 -94 3 -22 -2 -34 -17 -43 -20 -13 -20 -12 -14 49 4 35 7 83 7 106 0 24 5 44 10 44 6 0 10 -28 11 -62z m79 -142 c0 -8 -7 -16 -15 -20 -13 -4 -14 -2 -5 14 13 23 20 26 20 6z m-80 -41 c0 -8 -4 -15 -9 -15 -5 0 -7 -10 -3 -22 3 -14 2 -19 -6 -14 -13 8 -16 48 -5 59 11 12 23 8 23 -8z"/>
<path d="M5350 1885 c0 -16 5 -37 10 -45 7 -12 10 -8 10 15 0 17 -5 37 -10 45 -7 12 -10 8 -10 -15z"/>
<path d="M4135 1890 c28 -12 37 -12 30 0 -3 6 -16 10 -28 9 -21 0 -21 -1 -2 -9z"/>
<path d="M5037 1883 c-11 -10 -8 -25 3 -18 14 9 12 -8 -2 -24 -11 -11 -10 -12 2 -6 12 6 13 5 3 -6 -22 -23 -15 -157 8 -143 5 3 9 0 9 -5 0 -6 -5 -11 -11 -11 -12 0 -8 -138 5 -158 7 -11 1 -16 -16 -13 -3 0 0 -13 9 -29 17 -36 38 -52 29 -22 -4 12 -2 23 5 28 8 4 9 3 5 -4 -4 -7 -2 -12 3 -12 6 0 11 9 11 20 0 11 5 20 11 20 7 0 8 -7 4 -17 -4 -10 -10 -29 -12 -43 -4 -20 -2 -22 6 -10 9 13 11 13 11 -2 0 -13 8 -18 30 -18 23 0 30 4 30 20 0 20 19 23 32 5 4 -5 8 27 8 73 0 46 5 91 12 102 9 14 9 24 1 42 -13 26 -12 56 2 78 13 19 14 60 2 60 -5 0 -3 8 4 18 11 14 11 15 -1 5 -22 -20 -30 -15 -30 16 0 33 -30 67 -30 35 -1 -17 -2 -17 -19 4 -11 12 -22 22 -25 22 -15 0 -35 -61 -30 -89 5 -25 3 -31 -10 -31 -11 0 -16 7 -15 23 4 44 -1 78 -11 72 -5 -3 -10 1 -10 9 0 17 -12 21 -23 9z m143 -62 c0 -11 -4 -23 -10 -26 -6 -4 -10 5 -10 19 0 14 5 26 10 26 6 0 10 -9 10 -19z m-14 -239 c4 -21 3 -32 -5 -32 -6 0 -11 3 -12 8 0 4 -2 23 -5 42 -5 43 13 29 22 -18z m-36 -59 c0 -7 -4 -13 -9 -13 -5 0 -11 6 -14 13 -3 8 1 14 9 14 8 0 14 -6 14 -14z m63 -3 c16 -1 -23 -30 -39 -30 -7 0 -10 8 -7 21 4 12 11 18 20 15 8 -3 20 -6 26 -6z"/>
<path d="M4704 1856 c-3 -9 -6 -26 -5 -38 0 -13 1 -88 2 -167 2 -125 0 -146 -15 -156 -14 -11 -15 -13 -2 -18 9 -4 18 -18 22 -32 3 -14 10 -25 14 -25 16 0 21 75 19 251 -2 134 -6 182 -16 190 -9 9 -14 7 -19 -5z"/>
<path d="M4975 1844 c-5 -16 -7 -35 -6 -41 4 -25 -17 -12 -29 17 -7 17 -16 30 -20 30 -15 0 -19 -14 -9 -27 9 -9 8 -13 0 -13 -7 0 -11 -24 -11 -65 0 -47 4 -64 13 -62 13 2 13 -3 7 -163 -4 -106 -2 -120 10 -120 7 0 7 6 0 19 -7 13 -7 22 0 26 5 3 10 30 10 60 0 52 15 105 30 105 4 0 8 -26 9 -57 0 -31 5 -61 11 -67 16 -16 16 345 0 373 -5 10 -9 5 -15 -15z m-14 -81 c0 -5 2 -15 3 -23 2 -8 7 -40 11 -70 6 -45 5 -53 -6 -43 -7 7 -14 32 -15 55 -1 24 -3 43 -4 43 -1 0 -3 10 -4 23 -2 12 1 22 6 22 4 0 8 -3 9 -7z"/>
<path d="M4837 1837 c-10 -16 -14 -42 -11 -85 2 -46 0 -62 -9 -59 -7 2 -13 27 -14 63 -1 32 -2 67 -2 77 -1 9 -7 17 -15 17 -8 0 -17 -8 -19 -17 -4 -16 -2 -91 3 -103 1 -3 2 -8 2 -11 -1 -9 -2 -54 -2 -172 0 -71 4 -102 14 -112 12 -12 15 4 21 115 5 86 11 130 19 130 7 0 11 -26 12 -73 3 -165 4 -175 17 -180 10 -4 14 8 16 40 1 25 8 63 15 84 7 21 11 50 9 64 -3 15 -1 25 6 25 6 0 11 8 11 18 0 14 -2 15 -10 2 -15 -25 -20 -7 -21 85 -1 100 -16 132 -42 92z"/>
<path d="M4501 1836 c-17 -21 -11 -185 9 -196 8 -5 10 -10 3 -10 -8 0 -12 -28 -11 -91 0 -65 3 -88 11 -80 6 6 12 83 15 195 4 180 -1 214 -27 182z"/>
<path d="M4639 1840 c-1 -26 -1 -303 0 -347 1 -24 6 -43 12 -43 7 0 10 15 7 39 -2 22 0 38 3 35 13 -8 5 304 -8 318 -10 9 -13 9 -14 -2z"/>
<path d="M5292 1810 c0 -19 2 -27 5 -17 2 9 2 25 0 35 -3 9 -5 1 -5 -18z"/>
<path d="M4582 1803 c3 -82 -6 -232 -13 -227 -5 3 -9 1 -9 -5 0 -5 4 -12 8 -15 13 -8 1 -76 -13 -76 -7 0 -15 -7 -19 -15 -5 -13 -2 -14 15 -4 15 8 19 8 15 0 -4 -6 -1 -11 7 -11 8 0 17 11 19 25 10 48 8 355 -2 355 -5 0 -9 -12 -8 -27z"/>
<path d="M5322 1767 c-1 -37 0 -39 9 -18 5 13 17 31 27 38 9 8 11 12 4 8 -7 -4 -19 -2 -26 4 -9 8 -12 1 -14 -32z"/>
<path d="M5340 1671 c0 -71 -2 -80 -16 -74 -16 6 -17 -31 -4 -174 0 -2 7 -3 15 -3 8 0 15 7 15 16 0 8 -5 12 -11 8 -7 -4 -7 2 1 17 7 12 12 44 11 71 0 27 3 47 8 44 5 -3 11 1 14 9 4 9 1 12 -9 8 -8 -3 -14 1 -14 11 0 9 5 16 10 16 6 0 10 14 10 30 0 17 -4 30 -10 30 -5 0 -7 13 -4 29 4 16 1 32 -5 35 -8 5 -11 -17 -11 -73z"/>
<path d="M4680 1436 c0 -14 4 -27 8 -30 5 -3 6 8 4 25 -5 35 -12 38 -12 5z"/>
<path d="M4217 1384 c6 -16 19 -18 27 -5 3 5 -3 11 -13 14 -14 3 -18 1 -14 -9z"/>
<path d="M4427 1382 c4 -9 9 -9 18 -2 7 6 21 7 30 3 12 -4 16 -3 11 5 -10 16 -65 11 -59 -6z"/>
</g>
<g id="layer110" fill="#8c827d" stroke="none">
<path d="M3989 3328 c-1 -150 -2 -282 -3 -293 -1 -11 1 -33 5 -50 4 -16 7 115 8 293 0 177 -1 322 -4 322 -3 0 -6 -123 -6 -272z"/>
<path d="M4101 3520 c-5 -159 -3 -551 3 -557 3 -4 6 86 6 200 0 140 4 208 11 213 8 4 7 9 -2 16 -11 8 -11 11 -1 15 9 3 10 9 3 17 -6 7 -12 50 -14 96 l-3 85 -3 -85z"/>
<path d="M4209 3588 c-4 -88 0 -620 5 -625 3 -3 6 138 6 315 0 177 -2 322 -5 322 -3 0 -5 -6 -6 -12z"/>
<path d="M4318 3582 c-7 -24 0 -613 7 -620 3 -3 5 139 5 316 0 177 -2 322 -4 322 -2 0 -6 -8 -8 -18z"/>
<path d="M4424 3284 c2 -173 7 -318 10 -321 3 -4 6 138 6 315 0 210 -4 322 -10 322 -7 0 -9 -108 -6 -316z"/>
<path d="M4530 3280 c0 -198 4 -320 10 -320 6 0 9 122 9 320 0 196 -4 320 -9 320 -6 0 -10 -124 -10 -320z"/>
<path d="M4638 3413 c-4 -277 1 -453 13 -453 7 0 10 39 8 113 -4 171 0 239 11 232 6 -3 10 -2 10 4 0 5 -5 11 -12 13 -9 3 -11 42 -9 141 1 87 -2 137 -8 137 -6 0 -11 -70 -13 -187z"/>
<path d="M4750 3282 c0 -177 3 -322 8 -322 9 0 9 626 -1 636 -4 4 -7 -137 -7 -314z"/>
<path d="M4860 3279 c0 -177 2 -320 5 -317 8 8 11 629 3 634 -5 3 -8 -140 -8 -317z"/>
<path d="M5078 3333 c-2 -148 0 -293 3 -323 3 -30 6 90 7 268 1 177 0 322 -3 322 -2 0 -6 -120 -7 -267z"/>
<path d="M5192 3518 c-2 -81 -4 -88 -22 -88 -12 0 -20 -7 -20 -16 0 -13 3 -14 14 -5 8 7 17 8 20 3 3 -5 5 -107 4 -225 -2 -119 1 -219 5 -223 4 -4 7 76 7 179 0 168 2 186 18 190 16 4 16 5 0 6 -15 1 -18 17 -21 134 -2 97 -3 109 -5 45z"/>
<path d="M5299 3598 c-7 -15 -4 -630 2 -634 5 -3 9 132 9 315 0 270 -2 338 -11 319z"/>
<path d="M5154 3375 c8 -8 17 -15 20 -15 3 0 3 7 0 15 -4 8 -13 15 -21 15 -12 0 -12 -2 1 -15z"/>
<path d="M3934 3115 c-4 -15 -2 -31 5 -38 16 -16 26 0 11 19 -11 13 -11 17 -1 24 9 5 10 10 2 14 -6 4 -13 -4 -17 -19z"/>
<path d="M5140 2500 c0 -5 25 -10 55 -10 30 0 55 5 55 10 0 6 -25 10 -55 10 -30 0 -55 -4 -55 -10z"/>
<path d="M3997 2342 c-16 -17 -15 -20 4 -41 12 -12 24 -20 27 -16 4 3 0 11 -8 16 -12 8 -10 9 7 4 29 -8 39 12 17 36 -21 24 -27 24 -47 1z"/>
<path d="M5110 2225 c0 -7 9 -15 20 -18 11 -3 20 -10 20 -16 0 -6 -7 -8 -15 -5 -9 4 -15 0 -15 -10 0 -11 9 -16 31 -16 26 0 30 3 26 19 -3 14 2 21 20 26 42 10 20 30 -35 31 -36 1 -52 -2 -52 -11z"/>
<path d="M4072 2219 c2 -6 8 -10 13 -10 5 0 11 4 13 10 2 6 -4 11 -13 11 -9 0 -15 -5 -13 -11z"/>
<path d="M5143 1472 c-1 -15 5 -17 33 -14 45 6 46 32 1 32 -24 0 -33 -5 -34 -18z"/>
<path d="M5120 1432 c0 -18 6 -22 30 -22 24 0 30 4 30 21 0 14 -5 19 -17 17 -10 -2 -17 -11 -15 -19 1 -9 -3 -7 -13 5 -15 19 -15 19 -15 -2z"/>
</g>
<g id="layer111" fill="#a0989b" stroke="none">
<path d="M3994 3280 c0 -179 2 -252 3 -162 2 89 2 235 0 325 -1 89 -3 16 -3 -163z"/>
<path d="M4208 3333 c-2 -148 0 -293 3 -323 3 -30 7 90 8 268 0 177 -1 322 -4 322 -2 0 -6 -120 -7 -267z"/>
<path d="M4324 3280 c0 -179 2 -252 3 -162 2 89 2 235 0 325 -1 89 -3 16 -3 -163z"/>
<path d="M4429 3593 c-3 -22 3 -288 7 -292 2 -2 4 64 4 147 0 84 -2 152 -5 152 -3 0 -5 -3 -6 -7z"/>
<path d="M4530 3474 c0 -70 3 -125 6 -121 11 11 14 236 4 242 -6 4 -10 -41 -10 -121z"/>
<path d="M4640 3282 c0 -177 3 -322 8 -322 9 0 8 627 -1 636 -4 4 -7 -137 -7 -314z"/>
<path d="M4750 3445 c0 -87 2 -156 5 -154 7 7 8 300 1 306 -3 4 -6 -65 -6 -152z"/>
<path d="M4860 3280 c0 -178 2 -321 5 -318 7 6 7 629 0 636 -3 3 -5 -140 -5 -318z"/>
<path d="M4974 3280 c0 -179 2 -252 3 -162 2 89 2 235 0 325 -1 89 -3 16 -3 -163z"/>
<path d="M5084 3420 c0 -102 2 -143 3 -92 2 50 2 134 0 185 -1 50 -3 9 -3 -93z"/>
<path d="M5188 3509 c-2 -50 0 -96 4 -103 4 -6 8 35 8 92 0 56 -2 102 -4 102 -3 0 -6 -41 -8 -91z"/>
<path d="M5298 3323 c-1 -153 -2 -295 -2 -316 -1 -22 2 -41 7 -44 4 -2 7 140 7 316 0 177 -2 321 -5 321 -3 0 -6 -125 -7 -277z"/>
<path d="M4099 3436 c-4 -28 -1 -77 4 -83 4 -3 7 1 7 10 0 10 6 17 13 17 8 0 7 4 -3 10 -12 8 -12 12 -2 18 10 7 10 11 -3 22 -8 7 -15 10 -16 6z"/>
<path d="M4530 3325 c0 -8 5 -15 10 -15 6 0 10 7 10 15 0 8 -4 15 -10 15 -5 0 -10 -7 -10 -15z"/>
<path d="M4104 3235 c0 -49 1 -71 3 -48 2 23 2 64 0 90 -2 26 -3 8 -3 -42z"/>
<path d="M5194 3140 c0 -102 2 -143 3 -92 2 50 2 134 0 185 -1 50 -3 9 -3 -93z"/>
<path d="M4434 3200 c0 -52 1 -74 3 -47 2 26 2 68 0 95 -2 26 -3 4 -3 -48z"/>
<path d="M4750 3120 c0 -90 3 -161 6 -157 7 6 5 309 -1 316 -3 2 -5 -69 -5 -159z"/>
<path d="M4530 3107 c0 -81 4 -147 8 -147 9 0 6 279 -3 288 -3 3 -5 -61 -5 -141z"/>
<path d="M5084 3095 c0 -77 2 -107 3 -67 2 40 2 103 0 140 -2 37 -3 4 -3 -73z"/>
<path d="M3930 3098 c0 -9 5 -20 11 -23 17 -11 18 -2 3 19 -12 17 -14 17 -14 4z"/>
<path d="M4103 3020 c0 -36 2 -50 4 -32 2 17 2 47 0 65 -2 17 -4 3 -4 -33z"/>
<path d="M4433 3015 c0 -33 2 -45 4 -27 2 18 2 45 0 60 -2 15 -4 0 -4 -33z"/>
<path d="M4006 2531 c-14 -15 -15 -24 -6 -40 13 -26 32 -27 53 -3 16 17 15 20 -6 40 -23 22 -24 22 -41 3z"/>
<path d="M5140 2500 c0 -5 25 -10 56 -10 34 0 53 4 49 10 -3 6 -28 10 -56 10 -27 0 -49 -4 -49 -10z"/>
<path d="M4000 2429 c-9 -16 -8 -25 6 -40 17 -19 18 -19 41 3 21 20 22 23 6 40 -21 24 -40 23 -53 -3z"/>
<path d="M3997 2343 c-13 -15 -13 -21 -3 -35 16 -22 26 -22 51 -4 19 14 19 15 1 35 -23 26 -28 26 -49 4z"/>
<path d="M5113 2227 c-8 -13 2 -18 44 -23 41 -5 70 7 58 25 -8 13 -93 12 -102 -2z"/>
<path d="M5120 2175 c0 -9 5 -15 11 -13 6 2 11 8 11 13 0 5 -5 11 -11 13 -6 2 -11 -4 -11 -13z"/>
<path d="M5153 2175 c0 -8 6 -15 14 -15 7 0 13 7 13 15 0 8 -6 15 -13 15 -8 0 -14 -7 -14 -15z"/>
<path d="M3985 1780 c-18 -20 -18 -21 1 -40 19 -18 19 -18 43 1 23 19 23 20 6 39 -23 25 -27 25 -50 0z"/>
<path d="M5140 1756 c0 -13 12 -16 56 -16 73 0 70 24 -4 28 -42 2 -52 0 -52 -12z"/>
<path d="M3984 1689 c-17 -19 -17 -20 4 -41 21 -21 22 -21 42 -3 25 23 25 26 -4 47 -23 16 -25 16 -42 -3z"/>
<path d="M3982 1597 c-22 -23 -22 -24 -3 -41 16 -15 22 -15 40 -4 26 16 27 30 3 51 -17 16 -20 15 -40 -6z"/>
<path d="M5143 1475 c0 -10 11 -15 34 -15 23 0 33 5 33 15 0 10 -10 15 -33 15 -23 0 -34 -5 -34 -15z"/>
<path d="M5120 1432 c0 -18 6 -22 30 -22 20 0 30 5 30 15 0 14 -6 17 -27 14 -5 -1 -7 -6 -5 -12 1 -7 -5 -3 -13 7 -15 19 -15 19 -15 -2z"/>
</g>
<g id="layer112" fill="#d2d4d8" stroke="none">
<path d="M4004 2526 c-19 -15 -19 -15 1 -35 19 -20 22 -20 43 -5 22 15 22 17 6 35 -21 23 -25 23 -50 5z m40 -15 c3 -5 -1 -12 -10 -15 -20 -8 -29 -1 -19 13 8 13 22 14 29 2z"/>
<path d="M5150 2500 c0 -5 23 -10 51 -10 31 0 48 4 44 10 -3 6 -26 10 -51 10 -24 0 -44 -4 -44 -10z"/>
<path d="M4007 2432 c-18 -20 -7 -49 13 -37 9 5 11 4 6 -3 -12 -19 9 -14 28 7 16 17 15 19 -8 34 -22 15 -25 15 -39 -1z"/>
<path d="M4016 2353 c-11 -11 -6 -23 9 -23 8 0 15 4 15 9 0 13 -16 22 -24 14z"/>
<path d="M5150 2218 c0 -4 14 -8 30 -8 17 0 30 4 30 9 0 5 -13 9 -30 9 -16 -1 -30 -5 -30 -10z"/>
<path d="M3985 1780 c-15 -16 -15 -22 -5 -35 17 -20 33 -19 54 3 15 18 15 20 -2 35 -23 21 -25 21 -47 -3z m32 -24 c-16 -18 -31 -8 -16 10 6 7 15 11 20 8 5 -3 3 -11 -4 -18z"/>
<path d="M5144 1758 c-2 -3 19 -8 46 -10 32 -2 50 1 50 8 0 12 -89 14 -96 2z"/>
<path d="M3980 1684 c-11 -13 -10 -19 8 -37 l22 -21 19 21 c19 20 19 22 2 37 -22 20 -35 20 -51 0z"/>
<path d="M3991 1601 c-9 -6 -7 -10 8 -14 12 -3 21 -1 21 3 0 14 -15 19 -29 11z"/>
<path d="M5155 1482 c-13 -13 -3 -22 25 -22 17 0 30 4 30 9 0 10 -47 21 -55 13z"/>
</g>


</svg>