<!DOCTYPE svg PUBLIC "-//W3C//DTD SVG 20010904//EN" "http://www.w3.org/TR/2001/REC-SVG-20010904/DTD/svg10.dtd">
<svg version="1.0" xmlns="http://www.w3.org/2000/svg" width="1024px" height="768px" viewBox="0 0 10240 7680" preserveAspectRatio="xMidYMid meet">
<g id="layer101" fill="#5f4c38" stroke="none">
 <path d="M1800 6215 l0 -175 175 0 175 0 0 175 0 175 -175 0 -175 0 0 -175z"/>
 <path d="M2340 6215 l0 -175 170 0 170 0 0 -175 0 -175 175 0 175 0 0 350 0 350 -345 0 -345 0 0 -175z"/>
 <path d="M7000 6215 l0 -175 175 0 175 0 0 -175 0 -175 175 0 175 0 0 350 0 350 -350 0 -350 0 0 -175z"/>
 <path d="M4880 5995 l0 -175 175 0 175 0 0 175 0 175 -175 0 -175 0 0 -175z"/>
 <path d="M5580 5645 l0 -175 -175 0 -175 0 0 -175 0 -175 350 0 350 0 0 350 0 350 -175 0 -175 0 0 -175z"/>
 <path d="M2160 5505 l0 -175 175 0 175 0 0 175 0 175 -175 0 -175 0 0 -175z"/>
 <path d="M3930 5138 l0 -511 263 6 c144 4 301 7 350 7 l87 0 0 505 0 505 -350 0 -350 0 0 -512z"/>
 <path d="M6200 5160 l0 -350 175 0 175 0 0 350 0 350 -175 0 -175 0 0 -350z"/>
 <path d="M2680 5055 l0 -175 -175 0 -175 0 0 -175 0 -175 350 0 350 0 0 350 0 350 -175 0 -175 0 0 -175z"/>
 <path d="M7350 4805 l0 -175 175 0 175 0 0 175 0 175 -175 0 -175 0 0 -175z"/>
 <path d="M1800 3935 l0 -175 350 0 350 0 0 175 0 175 -350 0 -350 0 0 -175z"/>
 <path d="M8600 3675 l0 -175 175 0 175 0 0 175 0 175 -175 0 -175 0 0 -175z"/>
 <path d="M7700 3250 l0 -350 175 0 175 0 0 -175 0 -175 175 0 175 0 0 350 0 350 -175 0 -175 0 0 175 0 175 -175 0 -175 0 0 -350z"/>
 <path d="M8600 2315 l0 -175 175 0 175 0 0 175 0 175 -175 0 -175 0 0 -175z"/>
 <path d="M7700 1965 l0 -175 175 0 175 0 0 175 0 175 -175 0 -175 0 0 -175z"/>
 <path d="M7700 1325 l0 -175 350 0 350 0 0 175 0 175 -350 0 -350 0 0 -175z"/>
 </g>
<g id="layer102" fill="#8c7355" stroke="none">
 <path d="M1806 6334 c-9 -22 -7 -44 2 -44 5 0 9 14 9 30 0 34 -2 37 -11 14z"/>
 <path d="M2020 6326 c0 -22 3 -27 11 -19 8 8 8 16 0 30 -9 16 -10 14 -11 -11z"/>
 <path d="M2346 6334 c-9 -22 -7 -44 2 -44 5 0 9 14 9 30 0 34 -2 37 -11 14z"/>
 <path d="M2560 6326 c0 -22 3 -27 11 -19 8 8 8 16 0 30 -9 16 -10 14 -11 -11z"/>
 <path d="M2680 6333 c-11 -13 -11 -18 -2 -21 10 -3 10 -7 2 -17 -7 -8 -10 -22 -7 -32 4 -14 5 -13 6 5 0 12 5 22 9 22 5 0 9 14 9 30 0 17 -1 30 -1 30 -1 -1 -8 -8 -16 -17z"/>
 <path d="M2900 6326 c0 -22 3 -27 11 -19 8 8 8 16 0 30 -9 16 -10 14 -11 -11z"/>
 <path d="M7006 6334 c-9 -22 -7 -44 2 -44 5 0 9 14 9 30 0 34 -2 37 -11 14z"/>
 <path d="M7220 6326 c0 -22 3 -27 11 -19 8 8 8 16 0 30 -9 16 -10 14 -11 -11z"/>
 <path d="M7360 6339 c0 -5 -4 -8 -9 -4 -16 9 -25 -16 -10 -27 11 -7 11 -11 2 -15 -16 -6 -17 -39 -1 -49 8 -5 9 -2 5 9 -3 9 -1 22 6 29 11 12 20 68 11 68 -2 0 -4 -5 -4 -11z"/>
 <path d="M7570 6326 c0 -22 3 -27 11 -19 8 8 8 16 0 30 -9 16 -10 14 -11 -11z"/>
 <path d="M1840 6331 c0 -5 7 -14 15 -21 16 -14 18 -10 9 14 -6 17 -24 22 -24 7z"/>
 <path d="M2380 6331 c0 -5 7 -14 15 -21 16 -14 18 -10 9 14 -6 17 -24 22 -24 7z"/>
 <path d="M2720 6331 c0 -5 7 -14 15 -21 16 -14 18 -10 9 14 -6 17 -24 22 -24 7z"/>
 <path d="M7040 6331 c0 -5 7 -14 15 -21 16 -14 18 -10 9 14 -6 17 -24 22 -24 7z"/>
 <path d="M7390 6331 c0 -5 7 -14 15 -21 16 -14 18 -10 9 14 -6 17 -24 22 -24 7z"/>
 <path d="M2130 6271 c0 -11 4 -22 9 -25 5 -3 9 6 9 19 0 14 -4 25 -9 25 -5 0 -9 -9 -9 -19z"/>
 <path d="M3010 6271 c0 -11 4 -22 9 -25 5 -3 9 6 9 19 0 14 -4 25 -9 25 -5 0 -9 -9 -9 -19z"/>
 <path d="M7680 6271 c0 -11 4 -22 9 -25 5 -3 9 6 9 19 0 14 -4 25 -9 25 -5 0 -9 -9 -9 -19z"/>
 <path d="M2024 6229 c-3 -6 -1 -16 5 -22 8 -8 11 -5 11 11 0 24 -5 28 -16 11z"/>
 <path d="M2564 6229 c-3 -6 -1 -16 5 -22 8 -8 11 -5 11 11 0 24 -5 28 -16 11z"/>
 <path d="M2904 6229 c-3 -6 -1 -16 5 -22 8 -8 11 -5 11 11 0 24 -5 28 -16 11z"/>
 <path d="M7224 6229 c-3 -6 -1 -16 5 -22 8 -8 11 -5 11 11 0 24 -5 28 -16 11z"/>
 <path d="M7574 6229 c-3 -6 -1 -16 5 -22 8 -8 11 -5 11 11 0 24 -5 28 -16 11z"/>
 <path d="M2060 6196 c0 -8 5 -18 10 -21 6 -3 10 3 10 14 0 12 -4 21 -10 21 -5 0 -10 -6 -10 -14z"/>
 <path d="M2600 6196 c0 -8 5 -18 10 -21 6 -3 10 3 10 14 0 12 -4 21 -10 21 -5 0 -10 -6 -10 -14z"/>
 <path d="M2940 6196 c0 -8 5 -18 10 -21 6 -3 10 3 10 14 0 12 -4 21 -10 21 -5 0 -10 -6 -10 -14z"/>
 <path d="M7260 6196 c0 -8 5 -18 10 -21 6 -3 10 3 10 14 0 12 -4 21 -10 21 -5 0 -10 -6 -10 -14z"/>
 <path d="M7610 6196 c0 -8 5 -18 10 -21 6 -3 10 3 10 14 0 12 -4 21 -10 21 -5 0 -10 -6 -10 -14z"/>
 <path d="M2090 6172 c0 -11 4 -23 8 -26 10 -6 9 30 -1 40 -4 4 -7 -2 -7 -14z"/>
 <path d="M2129 6188 c0 -2 -3 -30 -5 -63 -3 -33 -10 -63 -16 -66 -9 -6 13 -19 32 -19 5 0 9 34 9 75 0 41 -5 75 -10 75 -5 0 -9 -1 -10 -2z"/>
 <path d="M2630 6172 c0 -11 4 -23 8 -26 10 -6 9 30 -1 40 -4 4 -7 -2 -7 -14z"/>
 <path d="M2669 6187 c0 -1 -3 -29 -5 -62 -3 -33 -10 -63 -16 -66 -5 -4 -3 -9 7 -13 28 -11 38 -7 32 14 -3 10 0 21 5 22 7 3 7 12 -2 27 -9 17 -9 30 -2 46 8 18 8 25 -4 29 -8 3 -14 4 -15 3z"/>
 <path d="M2970 6172 c0 -11 4 -23 8 -26 10 -6 9 30 -1 40 -4 4 -7 -2 -7 -14z"/>
 <path d="M3009 6188 c0 -2 -3 -30 -5 -63 -3 -33 -10 -63 -16 -66 -9 -6 13 -19 32 -19 5 0 9 34 9 75 0 41 -5 75 -10 75 -5 0 -9 -1 -10 -2z"/>
 <path d="M7290 6172 c0 -11 4 -23 8 -26 10 -6 9 30 -1 40 -4 4 -7 -2 -7 -14z"/>
 <path d="M7329 6188 c0 -2 -3 -30 -5 -63 -3 -33 -10 -63 -16 -66 -5 -4 -3 -9 7 -13 28 -11 35 -7 35 20 0 14 4 23 10 19 14 -9 12 9 -2 23 -7 7 -11 28 -9 47 1 20 -2 35 -8 35 -6 0 -11 -1 -12 -2z"/>
 <path d="M7640 6172 c0 -11 4 -23 8 -26 10 -6 9 30 -1 40 -4 4 -7 -2 -7 -14z"/>
 <path d="M7679 6188 c0 -2 -3 -30 -5 -63 -3 -33 -10 -63 -16 -66 -9 -6 13 -19 32 -19 5 0 9 34 9 75 0 41 -5 75 -10 75 -5 0 -9 -1 -10 -2z"/>
 <path d="M4886 6114 c-9 -22 -7 -44 2 -44 5 0 9 14 9 30 0 34 -2 37 -11 14z"/>
 <path d="M5100 6106 c0 -22 3 -27 11 -19 8 8 8 16 0 30 -9 16 -10 14 -11 -11z"/>
 <path d="M4920 6111 c0 -5 7 -14 15 -21 16 -14 18 -10 9 14 -6 17 -24 22 -24 7z"/>
 <path d="M5210 6051 c0 -11 4 -22 9 -25 5 -3 9 6 9 19 0 14 -4 25 -9 25 -5 0 -9 -9 -9 -19z"/>
 <path d="M5104 6009 c-3 -6 -1 -16 5 -22 8 -8 11 -5 11 11 0 24 -5 28 -16 11z"/>
 <path d="M2686 5984 c-9 -22 -7 -44 2 -44 5 0 9 14 9 30 0 34 -2 37 -11 14z"/>
 <path d="M2900 5976 c0 -22 3 -27 11 -19 8 8 8 16 0 30 -9 16 -10 14 -11 -11z"/>
 <path d="M7356 5984 c-9 -22 -7 -44 2 -44 5 0 9 14 9 30 0 34 -2 37 -11 14z"/>
 <path d="M7570 5976 c0 -22 3 -27 11 -19 8 8 8 16 0 30 -9 16 -10 14 -11 -11z"/>
 <path d="M2720 5981 c0 -5 7 -14 15 -21 16 -14 18 -10 9 14 -6 17 -24 22 -24 7z"/>
 <path d="M5140 5976 c0 -8 5 -18 10 -21 6 -3 10 3 10 14 0 12 -4 21 -10 21 -5 0 -10 -6 -10 -14z"/>
 <path d="M7390 5981 c0 -5 7 -14 15 -21 16 -14 18 -10 9 14 -6 17 -24 22 -24 7z"/>
 <path d="M5170 5952 c0 -11 4 -23 8 -26 10 -6 9 30 -1 40 -4 4 -7 -2 -7 -14z"/>
 <path d="M5209 5968 c0 -2 -3 -30 -5 -63 -3 -33 -10 -63 -16 -66 -9 -6 13 -19 32 -19 5 0 9 34 9 75 0 41 -5 75 -10 75 -5 0 -9 -1 -10 -2z"/>
 <path d="M3010 5921 c0 -11 4 -22 9 -25 5 -3 9 6 9 19 0 14 -4 25 -9 25 -5 0 -9 -9 -9 -19z"/>
 <path d="M7680 5921 c0 -11 4 -22 9 -25 5 -3 9 6 9 19 0 14 -4 25 -9 25 -5 0 -9 -9 -9 -19z"/>
 <path d="M2904 5879 c-3 -6 -1 -16 5 -22 8 -8 11 -5 11 11 0 24 -5 28 -16 11z"/>
 <path d="M7574 5879 c-3 -6 -1 -16 5 -22 8 -8 11 -5 11 11 0 24 -5 28 -16 11z"/>
 <path d="M2940 5846 c0 -8 5 -18 10 -21 6 -3 10 3 10 14 0 12 -4 21 -10 21 -5 0 -10 -6 -10 -14z"/>
 <path d="M7610 5846 c0 -8 5 -18 10 -21 6 -3 10 3 10 14 0 12 -4 21 -10 21 -5 0 -10 -6 -10 -14z"/>
 <path d="M2970 5822 c0 -11 4 -23 8 -26 10 -6 9 30 -1 40 -4 4 -7 -2 -7 -14z"/>
 <path d="M3009 5838 c0 -2 -3 -30 -5 -63 -3 -33 -10 -63 -16 -66 -9 -6 13 -19 32 -19 5 0 9 34 9 75 0 41 -5 75 -10 75 -5 0 -9 -1 -10 -2z"/>
 <path d="M7640 5822 c0 -11 4 -23 8 -26 10 -6 9 30 -1 40 -4 4 -7 -2 -7 -14z"/>
 <path d="M7679 5838 c0 -2 -3 -30 -5 -63 -3 -33 -10 -63 -16 -66 -9 -6 13 -19 32 -19 5 0 9 34 9 75 0 41 -5 75 -10 75 -5 0 -9 -1 -10 -2z"/>
 <path d="M5586 5764 c-9 -22 -7 -44 2 -44 5 0 9 14 9 30 0 34 -2 37 -11 14z"/>
 <path d="M5800 5756 c0 -22 3 -27 11 -19 8 8 8 16 0 30 -9 16 -10 14 -11 -11z"/>
 <path d="M5620 5761 c0 -5 7 -14 15 -21 16 -14 18 -10 9 14 -6 17 -24 22 -24 7z"/>
 <path d="M5910 5701 c0 -11 4 -22 9 -25 5 -3 9 6 9 19 0 14 -4 25 -9 25 -5 0 -9 -9 -9 -19z"/>
 <path d="M5804 5659 c-3 -6 -1 -16 5 -22 8 -8 11 -5 11 11 0 24 -5 28 -16 11z"/>
 <path d="M2166 5624 c-9 -22 -7 -44 2 -44 5 0 9 14 9 30 0 34 -2 37 -11 14z"/>
 <path d="M2380 5616 c0 -22 3 -27 11 -19 8 8 8 16 0 30 -9 16 -10 14 -11 -11z"/>
 <path d="M5840 5626 c0 -8 5 -18 10 -21 6 -3 10 3 10 14 0 12 -4 21 -10 21 -5 0 -10 -6 -10 -14z"/>
 <path d="M2200 5621 c0 -5 7 -14 15 -21 16 -14 18 -10 9 14 -6 17 -24 22 -24 7z"/>
 <path d="M5870 5602 c0 -11 4 -23 8 -26 10 -6 9 30 -1 40 -4 4 -7 -2 -7 -14z"/>
 <path d="M5909 5618 c0 -2 -3 -30 -5 -63 -3 -33 -10 -63 -16 -66 -9 -6 13 -19 32 -19 5 0 9 34 9 75 0 41 -5 75 -10 75 -5 0 -9 -1 -10 -2z"/>
 <path d="M3936 5594 c-9 -22 -7 -44 2 -44 5 0 9 14 9 30 0 34 -2 37 -11 14z"/>
 <path d="M4150 5586 c0 -22 3 -27 11 -19 8 8 8 16 0 30 -9 16 -10 14 -11 -11z"/>
 <path d="M4290 5599 c0 -5 -4 -8 -9 -4 -16 9 -25 -16 -10 -27 11 -7 11 -11 2 -15 -16 -6 -17 -39 -1 -49 8 -5 9 -2 5 9 -3 9 -1 22 6 29 11 12 20 68 11 68 -2 0 -4 -5 -4 -11z"/>
 <path d="M4500 5586 c0 -22 3 -27 11 -19 8 8 8 16 0 30 -9 16 -10 14 -11 -11z"/>
 <path d="M3970 5591 c0 -5 7 -14 15 -21 16 -14 18 -10 9 14 -6 17 -24 22 -24 7z"/>
 <path d="M4320 5591 c0 -5 7 -14 15 -21 16 -14 18 -10 9 14 -6 17 -24 22 -24 7z"/>
 <path d="M2490 5561 c0 -11 4 -22 9 -25 5 -3 9 6 9 19 0 14 -4 25 -9 25 -5 0 -9 -9 -9 -19z"/>
 <path d="M4610 5531 c0 -11 4 -22 9 -25 5 -3 9 6 9 19 0 14 -4 25 -9 25 -5 0 -9 -9 -9 -19z"/>
 <path d="M2384 5519 c-3 -6 -1 -16 5 -22 8 -8 11 -5 11 11 0 24 -5 28 -16 11z"/>
 <path d="M2420 5486 c0 -8 5 -18 10 -21 6 -3 10 3 10 14 0 12 -4 21 -10 21 -5 0 -10 -6 -10 -14z"/>
 <path d="M4154 5489 c-3 -6 -1 -16 5 -22 8 -8 11 -5 11 11 0 24 -5 28 -16 11z"/>
 <path d="M4504 5489 c-3 -6 -1 -16 5 -22 8 -8 11 -5 11 11 0 24 -5 28 -16 11z"/>
 <path d="M2450 5462 c0 -11 4 -23 8 -26 10 -6 9 30 -1 40 -4 4 -7 -2 -7 -14z"/>
 <path d="M2489 5478 c0 -2 -3 -30 -5 -63 -3 -33 -10 -63 -16 -66 -9 -6 13 -19 32 -19 5 0 9 34 9 75 0 41 -5 75 -10 75 -5 0 -9 -1 -10 -2z"/>
 <path d="M4190 5456 c0 -8 5 -18 10 -21 6 -3 10 3 10 14 0 12 -4 21 -10 21 -5 0 -10 -6 -10 -14z"/>
 <path d="M4540 5456 c0 -8 5 -18 10 -21 6 -3 10 3 10 14 0 12 -4 21 -10 21 -5 0 -10 -6 -10 -14z"/>
 <path d="M6206 5454 c-9 -22 -7 -44 2 -44 5 0 9 14 9 30 0 34 -2 37 -11 14z"/>
 <path d="M6420 5446 c0 -22 3 -27 11 -19 8 8 8 16 0 30 -9 16 -10 14 -11 -11z"/>
 <path d="M6240 5451 c0 -5 7 -14 15 -21 16 -14 18 -10 9 14 -6 17 -24 22 -24 7z"/>
 <path d="M4220 5432 c0 -11 4 -23 8 -26 10 -6 9 30 -1 40 -4 4 -7 -2 -7 -14z"/>
 <path d="M4259 5448 c0 -2 -3 -30 -5 -63 -3 -33 -10 -63 -16 -66 -5 -4 -3 -9 7 -13 28 -11 35 -7 35 20 0 14 4 23 10 19 14 -9 12 9 -2 23 -7 7 -11 28 -9 47 1 20 -2 35 -8 35 -6 0 -11 -1 -12 -2z"/>
 <path d="M4570 5432 c0 -11 4 -23 8 -26 10 -6 9 30 -1 40 -4 4 -7 -2 -7 -14z"/>
 <path d="M4609 5448 c0 -2 -3 -30 -5 -63 -3 -33 -9 -61 -14 -63 -5 -2 -4 -9 3 -16 25 -28 36 -6 36 70 0 41 -5 74 -10 74 -5 0 -9 -1 -10 -2z"/>
 <path d="M5236 5414 c-9 -22 -7 -44 2 -44 5 0 9 14 9 30 0 34 -2 37 -11 14z"/>
 <path d="M5450 5406 c0 -22 3 -27 11 -19 8 8 8 16 0 30 -9 16 -10 14 -11 -11z"/>
 <path d="M5590 5419 c0 -5 -4 -8 -9 -4 -16 9 -25 -16 -10 -27 11 -7 11 -11 2 -15 -16 -6 -17 -39 -1 -49 8 -5 9 -2 5 9 -3 9 -1 22 6 29 11 12 20 68 11 68 -2 0 -4 -5 -4 -11z"/>
 <path d="M5800 5406 c0 -22 3 -27 11 -19 8 8 8 16 0 30 -9 16 -10 14 -11 -11z"/>
 <path d="M5270 5411 c0 -5 7 -14 15 -21 16 -14 18 -10 9 14 -6 17 -24 22 -24 7z"/>
 <path d="M5620 5411 c0 -5 7 -14 15 -21 16 -14 18 -10 9 14 -6 17 -24 22 -24 7z"/>
 <path d="M6530 5391 c0 -11 4 -22 9 -25 5 -3 9 6 9 19 0 14 -4 25 -9 25 -5 0 -9 -9 -9 -19z"/>
 <path d="M5910 5351 c0 -11 4 -22 9 -25 5 -3 9 6 9 19 0 14 -4 25 -9 25 -5 0 -9 -9 -9 -19z"/>
 <path d="M6424 5349 c-3 -6 -1 -16 5 -22 8 -8 11 -5 11 11 0 24 -5 28 -16 11z"/>
 <path d="M6460 5316 c0 -8 5 -18 10 -21 6 -3 10 3 10 14 0 12 -4 21 -10 21 -5 0 -10 -6 -10 -14z"/>
 <path d="M5454 5309 c-3 -6 -1 -16 5 -22 8 -8 11 -5 11 11 0 24 -5 28 -16 11z"/>
 <path d="M5804 5309 c-3 -6 -1 -16 5 -22 8 -8 11 -5 11 11 0 24 -5 28 -16 11z"/>
 <path d="M6490 5292 c0 -11 4 -23 8 -26 10 -6 9 30 -1 40 -4 4 -7 -2 -7 -14z"/>
 <path d="M6529 5308 c0 -2 -3 -30 -5 -63 -3 -33 -10 -63 -16 -66 -9 -6 13 -19 32 -19 5 0 9 34 9 75 0 41 -5 75 -10 75 -5 0 -9 -1 -10 -2z"/>
 <path d="M4277 5259 c-19 -34 -18 -43 5 -34 8 3 15 19 15 35 0 17 -1 30 -1 30 -1 0 -9 -14 -19 -31z"/>
 <path d="M4500 5266 c0 -22 3 -27 11 -19 8 8 8 16 0 30 -9 16 -10 14 -11 -11z"/>
 <path d="M5490 5276 c0 -8 5 -18 10 -21 6 -3 10 3 10 14 0 12 -4 21 -10 21 -5 0 -10 -6 -10 -14z"/>
 <path d="M5840 5276 c0 -8 5 -18 10 -21 6 -3 10 3 10 14 0 12 -4 21 -10 21 -5 0 -10 -6 -10 -14z"/>
 <path d="M4320 5271 c0 -5 7 -14 15 -21 16 -14 18 -10 9 14 -6 17 -24 22 -24 7z"/>
 <path d="M5520 5252 c0 -11 4 -23 8 -26 10 -6 9 30 -1 40 -4 4 -7 -2 -7 -14z"/>
 <path d="M5559 5268 c0 -2 -3 -30 -5 -63 -3 -33 -10 -63 -16 -66 -5 -4 -3 -9 7 -13 28 -11 35 -7 35 20 0 14 4 23 10 19 14 -9 12 9 -2 23 -7 7 -11 28 -9 47 1 20 -2 35 -8 35 -6 0 -11 -1 -12 -2z"/>
 <path d="M5870 5252 c0 -11 4 -23 8 -26 10 -6 9 30 -1 40 -4 4 -7 -2 -7 -14z"/>
 <path d="M5909 5268 c0 -2 -3 -30 -5 -63 -3 -33 -10 -63 -16 -66 -9 -6 13 -19 32 -19 5 0 9 34 9 75 0 41 -5 75 -10 75 -5 0 -9 -1 -10 -2z"/>
 <path d="M3936 5244 c-9 -22 -7 -44 2 -44 5 0 9 14 9 30 0 34 -2 37 -11 14z"/>
 <path d="M4150 5236 c0 -22 3 -27 11 -19 8 8 8 16 0 30 -9 16 -10 14 -11 -11z"/>
 <path d="M3970 5241 c0 -5 7 -14 15 -21 16 -14 18 -10 9 14 -6 17 -24 22 -24 7z"/>
 <path d="M4610 5211 c0 -11 4 -22 9 -25 5 -3 9 6 9 19 0 14 -4 25 -9 25 -5 0 -9 -9 -9 -19z"/>
 <path d="M4260 5181 c0 -11 4 -22 9 -25 5 -3 9 6 9 19 0 14 -4 25 -9 25 -5 0 -9 -9 -9 -19z"/>
 <path d="M2686 5174 c-9 -22 -7 -44 2 -44 5 0 9 14 9 30 0 34 -2 37 -11 14z"/>
 <path d="M2900 5166 c0 -22 3 -27 11 -19 8 8 8 16 0 30 -9 16 -10 14 -11 -11z"/>
 <path d="M2720 5171 c0 -5 7 -14 15 -21 16 -14 18 -10 9 14 -6 17 -24 22 -24 7z"/>
 <path d="M4504 5169 c-3 -6 -1 -16 5 -22 8 -8 11 -5 11 11 0 24 -5 28 -16 11z"/>
 <path d="M4154 5139 c-3 -6 -1 -16 5 -22 8 -8 11 -5 11 11 0 24 -5 28 -16 11z"/>
 <path d="M4540 5136 c0 -8 5 -18 10 -21 6 -3 10 3 10 14 0 12 -4 21 -10 21 -5 0 -10 -6 -10 -14z"/>
 <path d="M3010 5111 c0 -11 4 -22 9 -25 5 -3 9 6 9 19 0 14 -4 25 -9 25 -5 0 -9 -9 -9 -19z"/>
 <path d="M4570 5112 c0 -11 4 -23 8 -26 10 -6 9 30 -1 40 -4 4 -7 -2 -7 -14z"/>
 <path d="M4609 5128 c0 -2 -3 -30 -5 -63 -3 -33 -10 -63 -16 -66 -9 -6 13 -19 32 -19 5 0 9 34 9 75 0 41 -5 75 -10 75 -5 0 -9 -1 -10 -2z"/>
 <path d="M4190 5106 c0 -8 5 -18 10 -21 6 -3 10 3 10 14 0 12 -4 21 -10 21 -5 0 -10 -6 -10 -14z"/>
 <path d="M6206 5104 c-9 -22 -7 -44 2 -44 5 0 9 14 9 30 0 34 -2 37 -11 14z"/>
 <path d="M6420 5096 c0 -22 3 -27 11 -19 8 8 8 16 0 30 -9 16 -10 14 -11 -11z"/>
 <path d="M6240 5101 c0 -5 7 -14 15 -21 16 -14 18 -10 9 14 -6 17 -24 22 -24 7z"/>
 <path d="M4220 5082 c0 -11 4 -23 8 -26 10 -6 9 30 -1 40 -4 4 -7 -2 -7 -14z"/>
 <path d="M4259 5098 c0 -2 -3 -30 -5 -63 -3 -33 -9 -62 -14 -65 -4 -3 -2 -10 5 -17 21 -20 38 2 33 45 -3 32 -1 38 9 30 9 -7 13 -7 13 0 0 6 -4 14 -10 17 -5 3 -10 17 -10 31 0 13 -4 24 -10 24 -5 0 -10 -1 -11 -2z"/>
 <path d="M2904 5069 c-3 -6 -1 -16 5 -22 8 -8 11 -5 11 11 0 24 -5 28 -16 11z"/>
 <path d="M6530 5041 c0 -11 4 -22 9 -25 5 -3 9 6 9 19 0 14 -4 25 -9 25 -5 0 -9 -9 -9 -19z"/>
 <path d="M2940 5036 c0 -8 5 -18 10 -21 6 -3 10 3 10 14 0 12 -4 21 -10 21 -5 0 -10 -6 -10 -14z"/>
 <path d="M2970 5012 c0 -11 4 -23 8 -26 10 -6 9 30 -1 40 -4 4 -7 -2 -7 -14z"/>
 <path d="M3009 5028 c0 -2 -3 -30 -5 -63 -3 -33 -10 -63 -16 -66 -9 -6 13 -19 32 -19 5 0 9 34 9 75 0 41 -5 75 -10 75 -5 0 -9 -1 -10 -2z"/>
 <path d="M6424 4999 c-3 -6 -1 -16 5 -22 8 -8 11 -5 11 11 0 24 -5 28 -16 11z"/>
 <path d="M6460 4966 c0 -8 5 -18 10 -21 6 -3 10 3 10 14 0 12 -4 21 -10 21 -5 0 -10 -6 -10 -14z"/>
 <path d="M6490 4942 c0 -11 4 -23 8 -26 10 -6 9 30 -1 40 -4 4 -7 -2 -7 -14z"/>
 <path d="M6529 4958 c0 -2 -3 -30 -5 -63 -3 -33 -10 -63 -16 -66 -9 -6 13 -19 32 -19 5 0 9 34 9 75 0 41 -5 75 -10 75 -5 0 -9 -1 -10 -2z"/>
 <path d="M4275 4929 c-17 -17 -17 -21 -5 -29 23 -15 27 -12 27 20 0 17 -1 30 -1 29 -1 0 -10 -9 -21 -20z"/>
 <path d="M4500 4926 c0 -22 3 -27 11 -19 8 8 8 16 0 30 -9 16 -10 14 -11 -11z"/>
 <path d="M3936 4924 c-9 -22 -7 -44 2 -44 5 0 9 14 9 30 0 34 -2 37 -11 14z"/>
 <path d="M4150 4916 c0 -22 3 -27 11 -19 8 8 8 16 0 30 -9 16 -10 14 -11 -11z"/>
 <path d="M4320 4931 c0 -5 7 -14 15 -21 16 -14 18 -10 9 14 -6 17 -24 22 -24 7z"/>
 <path d="M7356 4924 c-9 -22 -7 -44 2 -44 5 0 9 14 9 30 0 34 -2 37 -11 14z"/>
 <path d="M7570 4916 c0 -22 3 -27 11 -19 8 8 8 16 0 30 -9 16 -10 14 -11 -11z"/>
 <path d="M3970 4921 c0 -5 7 -14 15 -21 16 -14 18 -10 9 14 -6 17 -24 22 -24 7z"/>
 <path d="M7390 4921 c0 -5 7 -14 15 -21 16 -14 18 -10 9 14 -6 17 -24 22 -24 7z"/>
 <path d="M4610 4871 c0 -11 4 -22 9 -25 5 -3 9 6 9 19 0 14 -4 25 -9 25 -5 0 -9 -9 -9 -19z"/>
 <path d="M4260 4861 c0 -11 4 -22 9 -25 5 -3 9 6 9 19 0 14 -4 25 -9 25 -5 0 -9 -9 -9 -19z"/>
 <path d="M7680 4861 c0 -11 4 -22 9 -25 5 -3 9 6 9 19 0 14 -4 25 -9 25 -5 0 -9 -9 -9 -19z"/>
 <path d="M2336 4824 c-9 -22 -7 -44 2 -44 5 0 9 14 9 30 0 34 -2 37 -11 14z"/>
 <path d="M2550 4816 c0 -22 3 -27 11 -19 8 8 8 16 0 30 -9 16 -10 14 -11 -11z"/>
 <path d="M2690 4829 c0 -5 -4 -8 -9 -4 -16 9 -25 -16 -10 -27 11 -7 11 -11 2 -15 -16 -6 -17 -39 -1 -49 8 -5 9 -2 5 9 -3 9 -1 22 6 29 11 12 20 68 11 68 -2 0 -4 -5 -4 -11z"/>
 <path d="M2900 4816 c0 -22 3 -27 11 -19 8 8 8 16 0 30 -9 16 -10 14 -11 -11z"/>
 <path d="M4504 4829 c-3 -6 -1 -16 5 -22 8 -8 11 -5 11 11 0 24 -5 28 -16 11z"/>
 <path d="M2370 4821 c0 -5 7 -14 15 -21 16 -14 18 -10 9 14 -6 17 -24 22 -24 7z"/>
 <path d="M2720 4821 c0 -5 7 -14 15 -21 16 -14 18 -10 9 14 -6 17 -24 22 -24 7z"/>
 <path d="M4154 4819 c-3 -6 -1 -16 5 -22 8 -8 11 -5 11 11 0 24 -5 28 -16 11z"/>
 <path d="M7574 4819 c-3 -6 -1 -16 5 -22 8 -8 11 -5 11 11 0 24 -5 28 -16 11z"/>
 <path d="M4540 4796 c0 -8 5 -18 10 -21 6 -3 10 3 10 14 0 12 -4 21 -10 21 -5 0 -10 -6 -10 -14z"/>
 <path d="M4190 4786 c0 -8 5 -18 10 -21 6 -3 10 3 10 14 0 12 -4 21 -10 21 -5 0 -10 -6 -10 -14z"/>
 <path d="M7610 4786 c0 -8 5 -18 10 -21 6 -3 10 3 10 14 0 12 -4 21 -10 21 -5 0 -10 -6 -10 -14z"/>
 <path d="M4570 4772 c0 -11 4 -23 8 -26 10 -6 9 30 -1 40 -4 4 -7 -2 -7 -14z"/>
 <path d="M4609 4788 c0 -2 -3 -30 -5 -63 -3 -33 -10 -63 -16 -66 -9 -6 13 -19 32 -19 5 0 9 34 9 75 0 41 -5 75 -10 75 -5 0 -9 -1 -10 -2z"/>
 <path d="M3010 4761 c0 -11 4 -22 9 -25 5 -3 9 6 9 19 0 14 -4 25 -9 25 -5 0 -9 -9 -9 -19z"/>
 <path d="M4220 4762 c0 -11 4 -23 8 -26 10 -6 9 30 -1 40 -4 4 -7 -2 -7 -14z"/>
 <path d="M4259 4778 c0 -2 -3 -30 -5 -63 -3 -33 -10 -63 -16 -66 -5 -4 -3 -9 7 -13 29 -11 35 -7 35 25 0 17 4 28 10 24 6 -3 10 -1 10 5 0 6 -6 13 -13 16 -8 3 -11 17 -9 39 3 21 0 35 -7 35 -6 0 -11 -1 -12 -2z"/>
 <path d="M7640 4762 c0 -11 4 -23 8 -26 10 -6 9 30 -1 40 -4 4 -7 -2 -7 -14z"/>
 <path d="M7679 4778 c0 -2 -3 -30 -5 -63 -3 -33 -10 -63 -16 -66 -9 -6 13 -19 32 -19 5 0 9 34 9 75 0 41 -5 75 -10 75 -5 0 -9 -1 -10 -2z"/>
 <path d="M2554 4719 c-3 -6 -1 -16 5 -22 8 -8 11 -5 11 11 0 24 -5 28 -16 11z"/>
 <path d="M2904 4719 c-3 -6 -1 -16 5 -22 8 -8 11 -5 11 11 0 24 -5 28 -16 11z"/>
 <path d="M2590 4686 c0 -8 5 -18 10 -21 6 -3 10 3 10 14 0 12 -4 21 -10 21 -5 0 -10 -6 -10 -14z"/>
 <path d="M2940 4686 c0 -8 5 -18 10 -21 6 -3 10 3 10 14 0 12 -4 21 -10 21 -5 0 -10 -6 -10 -14z"/>
 <path d="M2620 4662 c0 -11 4 -23 8 -26 10 -6 9 30 -1 40 -4 4 -7 -2 -7 -14z"/>
 <path d="M2659 4678 c0 -2 -3 -30 -5 -63 -3 -33 -10 -63 -16 -66 -5 -4 -3 -9 7 -13 28 -11 35 -7 35 20 0 14 4 23 10 19 14 -9 12 9 -2 23 -7 7 -11 28 -9 47 1 20 -2 35 -8 35 -6 0 -11 -1 -12 -2z"/>
 <path d="M2970 4662 c0 -11 4 -23 8 -26 10 -6 9 30 -1 40 -4 4 -7 -2 -7 -14z"/>
 <path d="M3009 4678 c0 -2 -3 -30 -5 -63 -3 -33 -10 -63 -16 -66 -9 -6 13 -19 32 -19 5 0 9 34 9 75 0 41 -5 75 -10 75 -5 0 -9 -1 -10 -2z"/>
 <path d="M1806 4054 c-9 -22 -7 -44 2 -44 5 0 9 14 9 30 0 34 -2 37 -11 14z"/>
 <path d="M2020 4046 c0 -22 3 -27 11 -19 8 8 8 16 0 30 -9 16 -10 14 -11 -11z"/>
 <path d="M2160 4059 c0 -5 -4 -8 -9 -4 -16 9 -25 -16 -10 -27 11 -7 11 -11 2 -15 -16 -6 -17 -39 -1 -49 8 -5 9 -2 5 9 -3 9 -1 22 6 29 11 12 20 68 11 68 -2 0 -4 -5 -4 -11z"/>
 <path d="M2370 4046 c0 -22 3 -27 11 -19 8 8 8 16 0 30 -9 16 -10 14 -11 -11z"/>
 <path d="M1840 4051 c0 -5 7 -14 15 -21 16 -14 18 -10 9 14 -6 17 -24 22 -24 7z"/>
 <path d="M2190 4051 c0 -5 7 -14 15 -21 16 -14 18 -10 9 14 -6 17 -24 22 -24 7z"/>
 <path d="M2480 3991 c0 -11 4 -22 9 -25 5 -3 9 6 9 19 0 14 -4 25 -9 25 -5 0 -9 -9 -9 -19z"/>
 <path d="M2024 3949 c-3 -6 -1 -16 5 -22 8 -8 11 -5 11 11 0 24 -5 28 -16 11z"/>
 <path d="M2374 3949 c-3 -6 -1 -16 5 -22 8 -8 11 -5 11 11 0 24 -5 28 -16 11z"/>
 <path d="M2060 3916 c0 -8 5 -18 10 -21 6 -3 10 3 10 14 0 12 -4 21 -10 21 -5 0 -10 -6 -10 -14z"/>
 <path d="M2410 3916 c0 -8 5 -18 10 -21 6 -3 10 3 10 14 0 12 -4 21 -10 21 -5 0 -10 -6 -10 -14z"/>
 <path d="M2090 3892 c0 -11 4 -23 8 -26 10 -6 9 30 -1 40 -4 4 -7 -2 -7 -14z"/>
 <path d="M2129 3908 c0 -2 -3 -30 -5 -63 -3 -33 -10 -63 -16 -66 -5 -4 -3 -9 7 -13 28 -11 35 -7 35 20 0 14 4 23 10 19 14 -9 12 9 -2 23 -7 7 -11 28 -9 47 1 20 -2 35 -8 35 -6 0 -11 -1 -12 -2z"/>
 <path d="M2440 3892 c0 -11 4 -23 8 -26 10 -6 9 30 -1 40 -4 4 -7 -2 -7 -14z"/>
 <path d="M2479 3908 c0 -2 -3 -30 -5 -63 -3 -33 -10 -63 -16 -66 -9 -6 13 -19 32 -19 5 0 9 34 9 75 0 41 -5 75 -10 75 -5 0 -9 -1 -10 -2z"/>
 <path d="M8606 3794 c-9 -22 -7 -44 2 -44 5 0 9 14 9 30 0 34 -2 37 -11 14z"/>
 <path d="M8820 3786 c0 -22 3 -27 11 -19 8 8 8 16 0 30 -9 16 -10 14 -11 -11z"/>
 <path d="M8640 3791 c0 -5 7 -14 15 -21 16 -14 18 -10 9 14 -6 17 -24 22 -24 7z"/>
 <path d="M8930 3731 c0 -11 4 -22 9 -25 5 -3 9 6 9 19 0 14 -4 25 -9 25 -5 0 -9 -9 -9 -19z"/>
 <path d="M8824 3689 c-3 -6 -1 -16 5 -22 8 -8 11 -5 11 11 0 24 -5 28 -16 11z"/>
 <path d="M8860 3656 c0 -8 5 -18 10 -21 6 -3 10 3 10 14 0 12 -4 21 -10 21 -5 0 -10 -6 -10 -14z"/>
 <path d="M8890 3632 c0 -11 4 -23 8 -26 10 -6 9 30 -1 40 -4 4 -7 -2 -7 -14z"/>
 <path d="M8929 3648 c0 -2 -3 -30 -5 -63 -3 -33 -10 -63 -16 -66 -9 -6 13 -19 32 -19 5 0 9 34 9 75 0 41 -5 75 -10 75 -5 0 -9 -1 -10 -2z"/>
 <path d="M7706 3544 c-9 -22 -7 -44 2 -44 5 0 9 14 9 30 0 34 -2 37 -11 14z"/>
 <path d="M7920 3536 c0 -22 3 -27 11 -19 8 8 8 16 0 30 -9 16 -10 14 -11 -11z"/>
 <path d="M7740 3541 c0 -5 7 -14 15 -21 16 -14 18 -10 9 14 -6 17 -24 22 -24 7z"/>
 <path d="M8030 3481 c0 -11 4 -22 9 -25 5 -3 9 6 9 19 0 14 -4 25 -9 25 -5 0 -9 -9 -9 -19z"/>
 <path d="M7924 3439 c-3 -6 -1 -16 5 -22 8 -8 11 -5 11 11 0 24 -5 28 -16 11z"/>
 <path d="M7960 3406 c0 -8 5 -18 10 -21 6 -3 10 3 10 14 0 12 -4 21 -10 21 -5 0 -10 -6 -10 -14z"/>
 <path d="M7990 3382 c0 -11 4 -23 8 -26 10 -6 9 30 -1 40 -4 4 -7 -2 -7 -14z"/>
 <path d="M8029 3398 c0 -2 -3 -30 -5 -63 -3 -33 -10 -63 -16 -66 -9 -6 13 -19 32 -19 5 0 9 34 9 75 0 41 -5 75 -10 75 -5 0 -9 -1 -10 -2z"/>
 <path d="M7706 3194 c-9 -22 -7 -44 2 -44 5 0 9 14 9 30 0 34 -2 37 -11 14z"/>
 <path d="M7920 3186 c0 -22 3 -27 11 -19 8 8 8 16 0 30 -9 16 -10 14 -11 -11z"/>
 <path d="M8060 3199 c0 -5 -4 -8 -9 -4 -16 9 -25 -16 -10 -27 11 -7 11 -11 2 -15 -16 -6 -17 -39 -1 -49 8 -5 9 -2 5 9 -3 9 -1 22 6 29 11 12 20 68 11 68 -2 0 -4 -5 -4 -11z"/>
 <path d="M8270 3186 c0 -22 3 -27 11 -19 8 8 8 16 0 30 -9 16 -10 14 -11 -11z"/>
 <path d="M7740 3191 c0 -5 7 -14 15 -21 16 -14 18 -10 9 14 -6 17 -24 22 -24 7z"/>
 <path d="M8090 3191 c0 -5 7 -14 15 -21 16 -14 18 -10 9 14 -6 17 -24 22 -24 7z"/>
 <path d="M8380 3131 c0 -11 4 -22 9 -25 5 -3 9 6 9 19 0 14 -4 25 -9 25 -5 0 -9 -9 -9 -19z"/>
 <path d="M7924 3089 c-3 -6 -1 -16 5 -22 8 -8 11 -5 11 11 0 24 -5 28 -16 11z"/>
 <path d="M8274 3089 c-3 -6 -1 -16 5 -22 8 -8 11 -5 11 11 0 24 -5 28 -16 11z"/>
 <path d="M7960 3056 c0 -8 5 -18 10 -21 6 -3 10 3 10 14 0 12 -4 21 -10 21 -5 0 -10 -6 -10 -14z"/>
 <path d="M8310 3056 c0 -8 5 -18 10 -21 6 -3 10 3 10 14 0 12 -4 21 -10 21 -5 0 -10 -6 -10 -14z"/>
 <path d="M7990 3032 c0 -11 4 -23 8 -26 10 -6 9 30 -1 40 -4 4 -7 -2 -7 -14z"/>
 <path d="M8029 3048 c0 -2 -3 -30 -5 -63 -3 -33 -10 -63 -16 -66 -5 -4 -3 -9 7 -13 28 -11 35 -7 35 20 0 14 4 23 10 19 14 -9 12 9 -2 23 -7 7 -11 28 -9 47 1 20 -2 35 -8 35 -6 0 -11 -1 -12 -2z"/>
 <path d="M8340 3032 c0 -11 4 -23 8 -26 10 -6 9 30 -1 40 -4 4 -7 -2 -7 -14z"/>
 <path d="M8379 3048 c0 -2 -3 -30 -5 -63 -3 -33 -10 -63 -16 -66 -9 -6 13 -19 32 -19 5 0 9 34 9 75 0 41 -5 75 -10 75 -5 0 -9 -1 -10 -2z"/>
 <path d="M8056 2844 c-9 -22 -7 -44 2 -44 5 0 9 14 9 30 0 34 -2 37 -11 14z"/>
 <path d="M8270 2836 c0 -22 3 -27 11 -19 8 8 8 16 0 30 -9 16 -10 14 -11 -11z"/>
 <path d="M8090 2841 c0 -5 7 -14 15 -21 16 -14 18 -10 9 14 -6 17 -24 22 -24 7z"/>
 <path d="M8380 2781 c0 -11 4 -22 9 -25 5 -3 9 6 9 19 0 14 -4 25 -9 25 -5 0 -9 -9 -9 -19z"/>
 <path d="M8274 2739 c-3 -6 -1 -16 5 -22 8 -8 11 -5 11 11 0 24 -5 28 -16 11z"/>
 <path d="M8310 2706 c0 -8 5 -18 10 -21 6 -3 10 3 10 14 0 12 -4 21 -10 21 -5 0 -10 -6 -10 -14z"/>
 <path d="M8340 2682 c0 -11 4 -23 8 -26 10 -6 9 30 -1 40 -4 4 -7 -2 -7 -14z"/>
 <path d="M8379 2698 c0 -2 -3 -30 -5 -63 -3 -33 -10 -63 -16 -66 -9 -6 13 -19 32 -19 5 0 9 34 9 75 0 41 -5 75 -10 75 -5 0 -9 -1 -10 -2z"/>
 <path d="M8606 2434 c-9 -22 -7 -44 2 -44 5 0 9 14 9 30 0 34 -2 37 -11 14z"/>
 <path d="M8820 2426 c0 -22 3 -27 11 -19 8 8 8 16 0 30 -9 16 -10 14 -11 -11z"/>
 <path d="M8640 2431 c0 -5 7 -14 15 -21 16 -14 18 -10 9 14 -6 17 -24 22 -24 7z"/>
 <path d="M8930 2371 c0 -11 4 -22 9 -25 5 -3 9 6 9 19 0 14 -4 25 -9 25 -5 0 -9 -9 -9 -19z"/>
 <path d="M8824 2329 c-3 -6 -1 -16 5 -22 8 -8 11 -5 11 11 0 24 -5 28 -16 11z"/>
 <path d="M8860 2296 c0 -8 5 -18 10 -21 6 -3 10 3 10 14 0 12 -4 21 -10 21 -5 0 -10 -6 -10 -14z"/>
 <path d="M8890 2272 c0 -11 4 -23 8 -26 10 -6 9 30 -1 40 -4 4 -7 -2 -7 -14z"/>
 <path d="M8929 2288 c0 -2 -3 -30 -5 -63 -3 -33 -10 -63 -16 -66 -9 -6 13 -19 32 -19 5 0 9 34 9 75 0 41 -5 75 -10 75 -5 0 -9 -1 -10 -2z"/>
 <path d="M7706 2084 c-9 -22 -7 -44 2 -44 5 0 9 14 9 30 0 34 -2 37 -11 14z"/>
 <path d="M7920 2076 c0 -22 3 -27 11 -19 8 8 8 16 0 30 -9 16 -10 14 -11 -11z"/>
 <path d="M7740 2081 c0 -5 7 -14 15 -21 16 -14 18 -10 9 14 -6 17 -24 22 -24 7z"/>
 <path d="M8030 2021 c0 -11 4 -22 9 -25 5 -3 9 6 9 19 0 14 -4 25 -9 25 -5 0 -9 -9 -9 -19z"/>
 <path d="M7924 1979 c-3 -6 -1 -16 5 -22 8 -8 11 -5 11 11 0 24 -5 28 -16 11z"/>
 <path d="M7960 1946 c0 -8 5 -18 10 -21 6 -3 10 3 10 14 0 12 -4 21 -10 21 -5 0 -10 -6 -10 -14z"/>
 <path d="M7990 1922 c0 -11 4 -23 8 -26 10 -6 9 30 -1 40 -4 4 -7 -2 -7 -14z"/>
 <path d="M8029 1938 c0 -2 -3 -30 -5 -63 -3 -33 -10 -63 -16 -66 -9 -6 13 -19 32 -19 5 0 9 34 9 75 0 41 -5 75 -10 75 -5 0 -9 -1 -10 -2z"/>
 <path d="M7706 1444 c-9 -22 -7 -44 2 -44 5 0 9 14 9 30 0 34 -2 37 -11 14z"/>
 <path d="M7920 1436 c0 -22 3 -27 11 -19 8 8 8 16 0 30 -9 16 -10 14 -11 -11z"/>
 <path d="M8060 1449 c0 -5 -4 -8 -9 -4 -16 9 -25 -16 -10 -27 11 -7 11 -11 2 -15 -16 -6 -17 -39 -1 -49 8 -5 9 -2 5 9 -3 9 -1 22 6 29 11 12 20 68 11 68 -2 0 -4 -5 -4 -11z"/>
 <path d="M8270 1436 c0 -22 3 -27 11 -19 8 8 8 16 0 30 -9 16 -10 14 -11 -11z"/>
 <path d="M7740 1441 c0 -5 7 -14 15 -21 16 -14 18 -10 9 14 -6 17 -24 22 -24 7z"/>
 <path d="M8090 1441 c0 -5 7 -14 15 -21 16 -14 18 -10 9 14 -6 17 -24 22 -24 7z"/>
 <path d="M8380 1381 c0 -11 4 -22 9 -25 5 -3 9 6 9 19 0 14 -4 25 -9 25 -5 0 -9 -9 -9 -19z"/>
 <path d="M7924 1339 c-3 -6 -1 -16 5 -22 8 -8 11 -5 11 11 0 24 -5 28 -16 11z"/>
 <path d="M8274 1339 c-3 -6 -1 -16 5 -22 8 -8 11 -5 11 11 0 24 -5 28 -16 11z"/>
 <path d="M7960 1306 c0 -8 5 -18 10 -21 6 -3 10 3 10 14 0 12 -4 21 -10 21 -5 0 -10 -6 -10 -14z"/>
 <path d="M8310 1306 c0 -8 5 -18 10 -21 6 -3 10 3 10 14 0 12 -4 21 -10 21 -5 0 -10 -6 -10 -14z"/>
 <path d="M7990 1282 c0 -11 4 -23 8 -26 10 -6 9 30 -1 40 -4 4 -7 -2 -7 -14z"/>
 <path d="M8029 1298 c0 -2 -3 -30 -5 -63 -3 -33 -10 -63 -16 -66 -5 -4 -3 -9 7 -13 28 -11 35 -7 35 20 0 14 4 23 10 19 14 -9 12 9 -2 23 -7 7 -11 28 -9 47 1 20 -2 35 -8 35 -6 0 -11 -1 -12 -2z"/>
 <path d="M8340 1282 c0 -11 4 -23 8 -26 10 -6 9 30 -1 40 -4 4 -7 -2 -7 -14z"/>
 <path d="M8379 1298 c0 -2 -3 -30 -5 -63 -3 -33 -10 -63 -16 -66 -9 -6 13 -19 32 -19 5 0 9 34 9 75 0 41 -5 75 -10 75 -5 0 -9 -1 -10 -2z"/>
 </g>

</svg>