<!DOCTYPE svg PUBLIC "-//W3C//DTD SVG 20010904//EN" "http://www.w3.org/TR/2001/REC-SVG-20010904/DTD/svg10.dtd">
<svg version="1.0" xmlns="http://www.w3.org/2000/svg" width="241px" height="222px" viewBox="0 0 2410 2220" preserveAspectRatio="xMidYMid meet">
<g id="layer101" fill="#171828" stroke="none">
<path d="M1025 1981 c-27 -10 -57 -20 -65 -23 -8 -3 -36 -12 -63 -18 -26 -7 -68 -26 -93 -41 -24 -16 -50 -29 -57 -29 -7 0 -21 -6 -32 -14 -11 -7 -51 -24 -90 -37 -64 -21 -79 -32 -166 -118 -79 -80 -103 -111 -137 -181 -23 -47 -44 -98 -47 -115 -10 -48 -62 -158 -87 -185 -25 -26 -24 -100 1 -132 11 -13 22 -46 26 -73 9 -72 22 -102 75 -175 76 -105 127 -184 134 -206 4 -12 30 -46 59 -75 28 -30 50 -58 49 -62 -1 -5 2 -6 8 -2 6 3 17 -1 26 -9 8 -9 22 -16 29 -16 8 0 22 -11 31 -25 16 -24 118 -81 160 -89 12 -3 30 -9 40 -15 70 -38 190 -53 201 -26 4 12 20 15 72 14 36 -1 87 2 112 6 30 4 49 3 53 -4 13 -21 96 -11 233 30 76 22 154 45 173 50 19 5 67 11 106 13 83 4 142 28 150 62 4 15 16 27 31 30 34 9 56 64 48 115 -4 22 -11 39 -16 39 -5 0 -9 11 -9 24 0 30 -69 92 -114 102 -17 3 -34 11 -38 17 -4 6 -17 -2 -33 -21 -22 -26 -30 -30 -45 -22 -30 16 -73 12 -126 -14 -49 -24 -65 -45 -88 -118 -7 -22 -24 -23 -65 -2 -27 13 -46 14 -128 5 -61 -6 -102 -7 -114 -1 -9 6 -34 12 -54 16 -20 3 -50 12 -68 19 l-32 14 44 7 c32 5 57 18 88 47 78 71 91 129 48 209 -31 58 -31 58 -1 58 13 0 40 11 60 25 20 14 41 25 46 25 6 0 10 14 10 30 0 22 -5 30 -17 31 -12 0 -8 4 10 11 30 11 39 54 12 64 -21 9 -19 31 5 44 27 14 25 34 -5 58 -22 18 -24 23 -14 46 17 36 -4 62 -71 92 -30 13 -49 23 -42 24 18 0 62 98 62 136 0 26 5 33 24 36 14 3 29 1 33 -3 5 -5 43 -13 84 -18 41 -6 82 -13 91 -16 8 -3 32 1 53 9 52 22 64 20 71 -11 13 -62 27 -83 71 -108 32 -18 61 -25 97 -25 40 0 54 -4 64 -20 16 -27 66 -26 117 1 47 25 95 73 95 94 0 8 4 15 9 15 5 0 12 17 16 37 8 47 -18 109 -50 117 -13 3 -25 16 -29 31 -8 33 -56 56 -130 62 -34 2 -74 11 -91 18 -16 8 -77 28 -135 45 -58 17 -128 40 -156 51 -30 11 -76 20 -110 20 -32 0 -68 6 -79 13 -11 7 -55 15 -99 18 -59 4 -81 9 -88 22 -12 21 -76 20 -143 -3z"/>
</g>
<g id="layer102" fill="#371e2d" stroke="none">
<path d="M1155 1949 c-4 -10 -3 -43 0 -73 7 -52 6 -55 -24 -77 -32 -24 -41 -49 -17 -49 33 0 63 -39 70 -91 6 -46 5 -53 -19 -74 -28 -27 -33 -55 -10 -55 18 0 19 -9 1 -32 -23 -31 -53 -22 -67 19 -6 20 -20 51 -31 69 -13 22 -18 47 -16 76 l3 43 25 -53 c23 -48 28 -53 55 -50 28 3 30 6 33 50 3 46 2 48 -40 75 -24 15 -45 29 -47 30 -3 2 9 18 26 36 30 31 39 64 34 136 -1 21 -4 23 -38 17 -43 -8 -168 -43 -198 -56 -15 -6 -16 -9 -4 -9 15 -1 79 -29 79 -35 0 -2 -20 1 -44 7 -35 8 -58 6 -108 -8 -35 -9 -67 -21 -73 -25 -5 -4 -28 -13 -50 -20 -89 -28 -152 -69 -222 -144 -75 -80 -108 -139 -168 -296 -19 -52 -49 -115 -65 -139 -17 -24 -30 -52 -30 -62 0 -23 21 -69 31 -69 5 0 13 -19 20 -42 31 -116 44 -148 83 -208 45 -71 50 -78 98 -160 67 -113 174 -196 262 -202 40 -2 50 -18 11 -18 -57 0 -8 -32 103 -69 154 -50 164 -52 177 -41 10 8 15 7 19 -7 5 -16 15 -17 100 -13 52 3 98 8 101 12 4 4 23 1 42 -7 40 -17 85 -19 128 -6 55 17 270 78 300 86 17 4 60 9 97 11 80 3 136 27 144 60 4 14 16 27 29 30 32 8 58 70 50 117 -4 20 -11 37 -16 37 -5 0 -9 11 -9 24 0 15 -13 36 -36 56 -62 54 -121 65 -160 29 -18 -17 -26 -19 -42 -10 -31 16 -59 13 -113 -11 -48 -22 -61 -38 -88 -111 -12 -31 -25 -33 -70 -11 -28 14 -45 15 -127 5 -56 -7 -102 -8 -112 -3 -9 5 -37 12 -61 16 -24 4 -56 13 -72 21 -28 15 -28 15 -38 -22 -5 -21 -11 -47 -13 -57 -2 -10 -12 -24 -23 -30 -11 -6 -30 -16 -43 -24 l-23 -13 31 -25 c25 -22 30 -33 30 -70 0 -24 -4 -44 -10 -44 -5 0 -10 18 -10 40 0 30 -7 46 -30 70 -16 17 -30 34 -30 38 0 5 20 18 44 29 39 19 44 26 49 65 3 24 3 46 -1 50 -4 4 -25 8 -47 10 -37 3 -41 0 -57 -32 l-18 -35 0 30 c0 17 23 75 50 130 28 55 50 106 50 112 0 7 9 13 19 13 18 0 18 -1 0 -37 -17 -33 -17 -38 -4 -46 34 -19 60 -4 70 41 6 24 14 40 17 36 8 -7 -1 -61 -14 -87 -11 -22 1 -22 32 0 l25 17 -22 -37 -22 -37 29 0 c25 0 34 8 60 53 26 44 30 58 24 97 -3 24 -13 49 -21 55 -14 10 -13 14 8 28 13 10 31 17 41 17 9 0 39 14 67 31 52 33 65 60 36 77 -13 7 -12 10 10 20 31 14 33 50 3 61 l-21 8 21 21 c29 29 28 58 -3 78 -22 15 -24 19 -12 33 16 18 12 37 -12 61 -22 23 -79 50 -105 50 -12 0 -29 7 -39 14 -18 14 -17 15 2 21 30 9 64 79 56 115 -6 28 -5 28 47 32 29 3 62 0 72 -5 21 -10 144 -29 190 -28 16 0 34 5 39 10 6 6 21 11 33 11 19 0 25 -10 38 -54 14 -48 22 -57 62 -80 33 -19 61 -26 98 -26 40 0 54 -4 64 -20 25 -40 126 -13 180 49 27 31 62 103 62 128 0 27 -36 80 -58 87 -11 4 -23 17 -26 30 -8 31 -59 55 -138 62 -34 4 -67 10 -73 14 -12 8 -117 42 -210 69 -38 10 -87 26 -108 35 -21 10 -60 16 -90 15 -30 -1 -65 4 -82 13 -17 8 -58 16 -92 17 -34 1 -71 4 -82 6 -13 2 -22 -3 -26 -16z m-387 -489 c6 0 12 -4 12 -8 0 -5 -32 -13 -70 -19 -99 -16 -135 -37 -178 -107 -35 -56 -37 -63 -34 -134 2 -41 9 -87 17 -101 16 -32 123 -129 168 -153 21 -11 26 -17 14 -18 -36 0 -137 77 -178 137 -21 30 -32 62 -39 114 -10 69 -9 75 19 135 16 34 41 73 56 86 31 27 100 57 133 57 12 1 22 6 22 12 0 7 9 9 23 5 12 -3 28 -6 35 -6z m-78 -66 c0 -3 -12 -9 -27 -15 -33 -12 -90 -84 -103 -130 -16 -53 -12 -106 10 -149 17 -33 18 -40 6 -40 -20 0 -26 11 -42 80 -17 73 -3 127 47 190 35 44 109 88 109 64z"/>
</g>
<g id="layer103" fill="#252f2d" stroke="none">
<path d="M1171 1956 c-13 -17 -19 -68 -11 -96 7 -28 -14 -70 -35 -70 -7 0 -16 -7 -19 -16 -9 -23 -8 -24 12 -24 27 0 62 -37 62 -65 0 -13 5 -27 10 -30 18 -11 11 -34 -20 -65 -30 -30 -39 -60 -20 -60 17 0 48 37 53 62 3 18 5 15 6 -9 1 -23 -3 -33 -14 -33 -8 0 -15 -7 -15 -16 0 -9 -8 -23 -17 -30 -28 -21 3 -37 34 -17 39 26 65 77 58 117 l-7 34 54 -3 c29 -1 71 -7 93 -13 47 -13 152 -26 180 -23 11 2 24 7 29 12 6 5 20 9 32 9 17 0 25 -9 34 -37 19 -64 29 -77 78 -101 33 -17 60 -22 92 -20 37 2 47 -1 55 -17 24 -46 127 -20 183 47 32 38 61 96 62 123 0 29 -35 82 -59 90 -12 3 -24 17 -27 30 -8 31 -57 54 -136 61 -34 4 -67 10 -73 14 -5 4 -41 17 -80 28 -154 46 -202 61 -237 76 -22 9 -61 15 -97 14 -33 -1 -66 3 -73 10 -20 16 -177 31 -187 18z"/>
<path d="M1085 1940 c-4 -6 -11 -8 -16 -4 -9 5 -129 -26 -174 -46 -15 -6 -16 -9 -4 -9 15 -1 79 -29 79 -35 0 -2 -20 1 -44 7 -35 8 -58 6 -108 -8 -35 -9 -67 -21 -73 -25 -5 -4 -28 -13 -50 -20 -89 -28 -152 -69 -222 -144 -75 -80 -108 -139 -168 -296 -19 -52 -49 -115 -65 -139 -17 -24 -30 -52 -30 -62 0 -23 21 -69 31 -69 5 0 13 -19 20 -42 31 -116 44 -148 83 -208 45 -71 50 -78 98 -160 67 -113 174 -196 262 -202 40 -2 50 -18 11 -18 -14 0 -25 -4 -25 -8 0 -14 97 -55 129 -55 17 0 28 -4 25 -8 -5 -8 58 -29 87 -29 9 0 19 -3 23 -7 14 -14 35 -11 41 6 11 37 2 112 -17 134 -14 15 -16 23 -7 26 7 2 22 -8 34 -22 19 -21 22 -34 18 -87 -4 -46 -2 -65 8 -71 17 -11 162 -10 180 1 7 5 28 2 47 -6 51 -21 79 -18 230 27 206 61 232 66 299 67 75 1 131 24 139 58 4 14 16 27 29 30 32 8 58 70 50 117 -4 20 -11 37 -16 37 -5 0 -9 10 -9 23 0 42 -90 107 -149 107 -19 0 -36 -8 -48 -24 -17 -21 -21 -22 -38 -10 -27 20 -64 17 -115 -8 -53 -27 -64 -40 -80 -91 -14 -47 -30 -54 -75 -33 -28 14 -50 16 -108 10 -39 -4 -82 -10 -94 -15 -12 -5 -25 -4 -28 1 -3 5 -31 14 -63 20 -31 6 -67 16 -79 22 -24 12 -47 2 -39 -18 3 -7 1 -16 -3 -18 -5 -3 -6 -16 -4 -30 4 -17 -2 -28 -18 -39 -12 -9 -26 -14 -31 -11 -4 3 -8 1 -8 -4 0 -5 -11 -14 -25 -20 -33 -15 -35 -15 -35 1 0 7 20 23 44 34 39 19 44 26 49 65 3 24 3 46 -1 50 -4 4 -25 8 -47 10 -39 3 -40 2 -67 -51 -14 -29 -32 -58 -39 -65 -10 -8 -10 -7 0 7 7 9 10 17 6 17 -4 0 -3 6 3 13 8 9 23 60 26 87 1 3 11 21 23 41 26 41 73 145 73 159 0 6 -40 7 -105 3 -154 -9 -229 10 -319 81 -64 51 -95 105 -106 187 -10 69 -9 75 19 135 16 34 41 73 56 86 31 27 100 57 133 57 12 1 22 6 22 12 0 13 63 1 68 -13 3 -5 9 -5 15 1 20 16 126 31 220 31 101 0 100 -3 51 93 -18 34 -24 61 -22 90 l3 42 25 -53 c23 -48 28 -53 55 -50 28 3 30 6 33 50 3 46 2 48 -40 75 -24 15 -45 29 -47 30 -3 2 9 18 26 36 31 32 51 111 32 122 -4 3 -6 12 -2 20 6 17 -32 21 -42 5z"/>
<path d="M850 1441 c-30 -10 -80 -32 -110 -49 -41 -22 -60 -28 -73 -21 -12 7 -21 4 -34 -12 -10 -12 -24 -27 -31 -35 -21 -22 14 -18 47 5 22 16 29 17 44 6 16 -11 14 -13 -16 -19 -51 -10 -72 -39 -72 -100 0 -28 -4 -56 -8 -63 -4 -6 -4 -19 -1 -30 5 -13 4 -15 -4 -8 -8 7 -9 37 -4 97 6 70 5 85 -5 76 -18 -15 -34 -82 -29 -120 6 -48 17 -78 28 -78 5 0 6 -6 2 -12 -4 -7 3 -3 15 10 28 29 47 29 27 0 -18 -26 -21 -58 -5 -58 6 0 38 -23 71 -50 33 -28 71 -53 85 -56 13 -4 61 -4 106 0 45 4 125 9 177 12 52 3 99 9 103 14 9 8 -28 35 -58 43 -13 3 -8 5 13 6 40 1 72 17 72 35 0 8 20 19 50 26 57 14 61 32 9 40 l-34 5 30 11 c17 6 41 21 55 32 24 19 24 21 7 40 -12 13 -15 22 -8 27 21 12 11 25 -21 26 l-33 1 31 7 c51 13 56 19 37 48 -9 14 -31 32 -48 40 l-30 14 30 -5 c36 -6 61 6 50 24 -13 21 -87 48 -152 55 -39 4 -62 11 -60 18 4 21 -189 19 -253 -2z m114 -252 c59 -1 66 -2 41 -10 -37 -12 -205 0 -205 14 0 6 18 7 46 3 26 -3 79 -6 118 -7z"/>
<path d="M681 1429 c-73 -14 -110 -40 -149 -103 -35 -56 -37 -63 -34 -134 4 -92 14 -114 91 -182 68 -60 91 -76 91 -61 0 14 -60 62 -71 55 -5 -3 -14 7 -19 22 -6 15 -18 32 -26 38 -8 6 -21 39 -29 73 -18 77 -5 131 50 197 32 39 48 49 106 66 38 12 69 25 69 30 0 11 -18 11 -79 -1z"/>
<path d="M1075 911 c-38 -8 -75 -70 -50 -84 35 -19 60 -4 71 43 8 29 14 40 18 30 8 -20 4 -49 -12 -77 -16 -29 -3 -29 32 -2 14 11 26 18 26 14 0 -13 -24 -50 -39 -62 -14 -11 -13 -12 7 -13 26 0 70 42 78 77 4 13 10 23 16 23 5 0 8 12 6 28 -4 36 -48 46 -48 10 -1 -22 -1 -22 -15 -4 -15 20 -43 26 -90 17z"/>
</g>
<g id="layer104" fill="#3e5c2c" stroke="none">
<path d="M1169 1954 c-6 -7 -9 -39 -8 -71 3 -53 1 -60 -29 -89 l-33 -32 38 -19 c27 -14 40 -28 44 -49 10 -47 21 -74 31 -74 5 0 8 -15 6 -32 -2 -23 -9 -34 -22 -36 -14 -3 -17 0 -13 12 7 18 -8 22 -19 5 -3 -6 -1 -15 6 -19 8 -5 10 -17 6 -35 -6 -23 -4 -26 16 -23 34 5 65 72 51 109 -9 24 -8 29 6 32 26 7 103 1 146 -11 47 -13 151 -26 180 -23 11 2 24 7 29 12 6 5 20 9 32 9 17 0 25 -9 34 -37 19 -64 29 -77 78 -101 33 -17 60 -22 92 -20 37 2 47 -1 55 -17 24 -46 127 -20 183 47 32 38 61 96 62 123 0 29 -35 82 -59 90 -12 3 -24 17 -27 30 -8 31 -57 54 -136 61 -34 4 -67 10 -73 14 -5 4 -41 17 -80 28 -154 46 -202 61 -237 76 -22 9 -61 15 -97 14 -33 -1 -66 3 -73 10 -22 18 -177 31 -189 16z"/>
<path d="M1058 1915 c-16 -13 -28 -33 -28 -45 0 -11 -5 -20 -11 -20 -6 0 -8 -7 -5 -16 4 -11 2 -15 -6 -11 -7 2 -39 10 -71 17 -58 13 -59 13 -80 -12 -27 -33 -52 -45 -115 -59 -37 -7 -61 -21 -96 -54 -49 -47 -57 -71 -28 -77 14 -3 13 -6 -7 -17 -18 -10 -25 -10 -31 -1 -10 16 -50 3 -50 -15 0 -8 -10 -20 -22 -26 -13 -6 -34 -22 -48 -34 -14 -13 -35 -26 -48 -30 -40 -12 -53 -65 -16 -65 9 0 14 -11 14 -30 0 -23 -6 -33 -25 -40 -29 -11 -49 -47 -65 -122 -12 -51 -15 -56 -29 -46 -13 10 -13 9 1 -7 9 -11 18 -42 20 -70 2 -42 6 -50 23 -50 11 0 25 11 33 25 12 23 13 22 7 -20 -3 -25 -7 -65 -8 -90 -2 -25 -6 -51 -11 -58 -10 -16 11 -43 28 -36 7 3 21 -16 35 -46 28 -61 149 -189 210 -219 30 -16 40 -26 33 -33 -7 -7 -20 -7 -42 1 -18 6 -36 8 -41 5 -20 -12 -8 -53 24 -80 50 -42 93 -56 151 -50 48 6 50 6 30 -9 -13 -9 -20 -23 -17 -33 4 -18 103 -62 140 -62 11 0 26 -7 33 -15 7 -9 23 -15 34 -13 18 3 21 10 21 55 -1 45 -5 57 -33 86 -18 18 -32 37 -32 42 0 6 20 21 44 33 38 20 45 29 50 64 7 45 0 62 -15 35 -6 -10 -22 -17 -39 -17 -29 0 -63 -32 -75 -71 -4 -10 -13 -19 -21 -19 -19 0 -18 7 7 41 11 16 19 40 17 53 -1 13 4 36 12 51 14 26 13 29 -4 39 -10 6 -30 21 -45 32 -20 17 -29 19 -43 11 -9 -6 -21 -8 -25 -3 -13 13 26 34 83 46 56 12 108 45 98 62 -4 6 -58 7 -154 3 -130 -7 -148 -6 -153 9 -4 9 -16 16 -28 16 -31 0 -135 86 -168 140 -37 60 -46 115 -28 166 8 21 20 59 27 84 14 47 74 120 98 120 8 0 31 10 51 23 33 20 49 22 206 24 93 2 175 5 182 7 20 8 5 32 -32 52 -44 23 -52 45 -26 63 25 16 26 29 4 53 -22 25 -13 30 27 17 29 -10 35 -10 47 6 7 11 13 30 13 44 0 32 12 19 25 -27 8 -27 17 -38 33 -40 13 -2 26 -10 29 -18 10 -27 23 -14 23 26 0 36 -4 41 -45 66 -25 14 -45 29 -45 32 0 3 13 20 29 37 28 28 39 73 32 133 -2 20 -34 13 -63 -13z"/>
<path d="M960 1871 c0 -16 28 -20 34 -5 4 9 -1 14 -14 14 -11 0 -20 -4 -20 -9z"/>
<path d="M647 1412 c-60 -21 -89 -49 -122 -117 -24 -48 -26 -61 -20 -120 7 -65 35 -124 63 -133 7 -2 2 7 -11 21 -19 19 -27 39 -32 90 -9 82 -4 101 38 163 43 61 74 84 126 91 23 3 44 10 47 14 8 14 -37 10 -89 -9z"/>
<path d="M635 980 c10 -11 23 -20 28 -20 6 0 2 9 -8 20 -10 11 -23 20 -28 20 -6 0 -2 -9 8 -20z"/>
<path d="M1783 776 c-17 -21 -21 -22 -38 -10 -27 20 -64 17 -115 -8 -53 -27 -64 -40 -80 -91 -14 -47 -30 -54 -75 -33 -28 14 -50 16 -108 10 -39 -4 -82 -10 -94 -15 -12 -5 -25 -4 -28 1 -3 5 -31 14 -63 20 -31 6 -65 15 -74 20 -30 17 -36 11 -45 -42 -7 -48 -12 -55 -50 -76 l-41 -22 29 -29 c27 -28 29 -32 22 -91 -5 -48 -3 -64 8 -71 17 -11 162 -10 180 1 7 5 28 2 47 -6 51 -21 79 -18 230 27 206 61 232 66 299 67 75 1 131 24 139 58 4 14 16 27 29 30 32 8 58 70 50 117 -4 20 -11 37 -16 37 -5 0 -9 10 -9 23 0 42 -90 107 -149 107 -19 0 -36 -8 -48 -24z"/>
</g>
<g id="layer105" fill="#753c32" stroke="none">
<path d="M1169 1954 c-6 -7 -9 -39 -8 -71 3 -53 1 -60 -29 -89 l-33 -32 38 -19 c27 -14 40 -28 44 -49 10 -47 21 -74 31 -74 5 0 8 -15 6 -32 -2 -23 -9 -34 -22 -36 -14 -3 -17 0 -13 12 7 18 -8 22 -19 5 -3 -6 -1 -15 6 -19 8 -5 10 -17 6 -35 -6 -23 -4 -26 16 -23 34 5 65 72 51 109 -9 24 -8 29 6 32 26 7 103 1 146 -11 47 -13 151 -26 180 -23 11 2 24 7 29 12 6 5 20 9 33 9 19 0 25 -8 35 -44 15 -55 23 -66 76 -95 35 -18 54 -22 93 -19 36 4 49 2 49 -8 0 -17 32 -34 62 -34 73 0 186 118 188 195 0 27 -35 82 -57 89 -10 3 -26 20 -35 36 -20 36 -50 49 -132 57 -34 3 -65 9 -71 13 -5 4 -44 17 -85 29 -41 13 -115 36 -165 53 -58 20 -114 32 -158 34 -37 1 -73 7 -80 12 -21 18 -176 30 -188 16z"/>
<path d="M1057 1914 c-17 -14 -27 -31 -23 -39 8 -21 37 -18 43 4 3 11 16 22 30 26 20 5 23 8 13 20 -17 21 -30 18 -63 -11z"/>
<path d="M800 1723 c-19 -8 -42 -19 -50 -23 -8 -4 -16 -19 -18 -34 -3 -20 -9 -26 -28 -26 -13 0 -24 -5 -24 -11 0 -6 -11 -8 -29 -4 -19 4 -34 1 -44 -9 -20 -20 -27 -20 -27 -1 0 17 -18 19 -39 6 -16 -11 -7 -42 11 -39 8 2 14 -9 16 -24 2 -20 -1 -28 -12 -28 -9 0 -16 5 -16 10 0 6 -6 10 -13 10 -16 0 -47 -32 -47 -48 0 -17 25 -15 39 2 9 10 26 13 57 10 36 -3 53 1 83 22 27 18 46 23 64 19 20 -5 29 -1 48 24 17 24 28 29 46 25 14 -4 23 -2 23 5 0 6 -5 11 -11 11 -18 0 1 43 32 72 16 15 29 32 29 38 0 15 -50 11 -90 -7z"/>
<path d="M783 1524 c-7 -18 17 -38 31 -24 11 11 1 40 -14 40 -6 0 -13 -7 -17 -16z"/>
<path d="M390 1500 c-24 -24 -25 -39 -4 -47 19 -7 44 21 44 49 0 24 -15 23 -40 -2z"/>
<path d="M850 1441 c-30 -10 -77 -31 -105 -46 -27 -16 -62 -27 -77 -26 -18 1 -33 -7 -48 -26 -26 -34 -11 -42 28 -15 23 17 30 18 45 7 16 -11 14 -13 -16 -19 -51 -10 -72 -39 -72 -100 0 -28 -4 -56 -8 -63 -4 -6 -4 -19 -1 -30 5 -13 4 -15 -4 -8 -8 7 -9 37 -4 97 6 70 5 85 -5 76 -35 -29 -39 -136 -7 -186 13 -20 16 -21 30 -7 23 23 37 18 20 -7 -18 -26 -21 -58 -5 -58 6 0 38 -23 71 -50 33 -28 71 -53 85 -56 13 -4 61 -4 106 0 45 4 125 9 177 12 52 3 99 9 103 14 9 8 -28 35 -58 43 -13 3 -8 5 13 6 40 1 72 17 72 35 0 8 20 19 50 26 57 14 61 32 9 40 l-34 5 30 11 c17 6 41 21 55 32 24 19 24 21 7 40 -12 13 -15 22 -8 27 21 12 11 25 -21 26 l-33 1 31 7 c51 13 56 19 37 48 -9 14 -31 32 -48 40 l-30 14 30 -5 c36 -6 61 6 50 24 -13 21 -87 48 -152 55 -39 4 -62 11 -60 18 4 21 -189 19 -253 -2z m114 -252 c59 -1 66 -2 41 -10 -37 -12 -205 0 -205 14 0 6 18 7 46 3 26 -3 79 -6 118 -7z"/>
<path d="M1185 899 c-7 -19 -8 -20 -26 -3 -21 19 -20 19 -36 -17 -13 -31 -3 -52 20 -43 21 8 21 1 2 -36 -20 -39 -2 -48 30 -14 41 44 59 134 26 134 -5 0 -13 -9 -16 -21z"/>
<path d="M1058 903 c-10 -3 -18 -5 -18 -6 0 -1 -4 -16 -9 -34 -8 -27 -6 -32 10 -36 25 -7 49 18 49 48 0 27 -7 33 -32 28z"/>
<path d="M834 855 c-9 -23 10 -40 25 -22 9 11 8 17 -4 27 -12 10 -16 9 -21 -5z"/>
<path d="M824 789 c-4 -7 0 -17 9 -24 10 -7 17 -21 17 -32 0 -16 -5 -19 -24 -16 -31 6 -66 -13 -66 -36 0 -13 8 -18 30 -18 36 0 55 -15 47 -37 -10 -26 -8 -30 16 -31 28 0 49 28 45 59 -1 13 4 36 12 51 14 26 13 29 -4 39 -10 6 -31 21 -47 34 -19 16 -30 19 -35 11z"/>
<path d="M1783 776 c-17 -21 -21 -22 -38 -10 -28 20 -59 17 -116 -12 -43 -21 -54 -33 -75 -80 -25 -58 -36 -63 -80 -39 -22 12 -46 14 -104 9 -41 -4 -84 -10 -95 -14 -12 -4 -31 -2 -45 5 -14 7 -47 16 -73 20 -26 4 -50 11 -53 16 -15 25 -33 6 -41 -43 -7 -48 -12 -55 -50 -76 l-41 -22 29 -29 c27 -28 29 -32 22 -91 -5 -48 -3 -64 8 -71 17 -11 162 -10 180 1 7 5 28 2 47 -6 51 -21 79 -18 230 27 207 61 232 67 296 67 72 0 134 26 142 59 4 13 16 26 29 29 22 5 55 60 55 92 0 9 -7 30 -15 46 -8 15 -15 35 -15 43 0 18 -36 56 -80 82 -48 29 -94 27 -117 -3z"/>
<path d="M953 634 c-7 -18 11 -39 26 -30 17 11 13 46 -4 46 -9 0 -18 -7 -22 -16z"/>
<path d="M880 500 c0 -5 7 -10 15 -10 8 0 15 5 15 10 0 6 -7 10 -15 10 -8 0 -15 -4 -15 -10z"/>
<path d="M920 482 c0 -4 5 -13 12 -20 9 -9 9 -15 1 -23 -9 -9 -16 -8 -28 5 -20 20 -94 21 -121 2 -10 -8 -17 -16 -14 -18 15 -12 116 -48 135 -48 12 0 28 -7 35 -15 7 -9 23 -15 34 -13 17 2 22 11 24 45 3 37 -1 44 -31 67 -35 27 -47 32 -47 18z"/>
</g>
<g id="layer106" fill="#504858" stroke="none">
<path d="M1218 1590 c3 -28 -1 -46 -16 -64 -10 -14 -22 -22 -26 -19 -3 3 -6 1 -6 -5 0 -21 17 -13 49 25 33 39 37 53 21 84 -17 31 -26 22 -22 -21z"/>
<path d="M1167 1573 c-10 -9 -9 -23 2 -23 5 0 11 7 15 15 5 15 -5 20 -17 8z"/>
<path d="M1190 907 c0 -8 7 -21 16 -28 14 -11 15 -10 12 11 -3 26 -28 41 -28 17z"/>
<path d="M1058 903 c-25 -6 -40 -66 -19 -74 23 -9 43 1 37 17 -3 8 -1 14 4 14 12 0 14 37 3 43 -5 2 -16 2 -25 0z"/>
<path d="M1130 891 c0 -12 6 -21 16 -21 9 0 14 7 12 17 -5 25 -28 28 -28 4z"/>
</g>
<g id="layer107" fill="#ba5542" stroke="none">
<path d="M1170 1864 c0 -41 -5 -55 -25 -74 l-25 -23 34 -24 c35 -23 52 -54 41 -73 -10 -17 88 1 117 21 33 24 31 24 79 -8 38 -25 46 -26 172 -27 l132 -1 13 -56 c11 -45 20 -59 45 -75 95 -57 140 -28 76 49 l-30 37 50 0 c37 0 56 -5 71 -20 18 -18 18 -22 4 -55 -31 -76 2 -97 87 -55 49 25 59 35 59 57 0 14 7 31 15 37 14 10 14 15 1 47 -12 28 -23 38 -55 48 -43 12 -48 20 -29 39 21 21 -5 33 -88 43 -44 5 -88 13 -99 18 -40 17 -133 48 -241 81 -56 17 -84 20 -127 15 -65 -8 -117 1 -117 20 0 18 -67 36 -120 33 l-40 -3 0 -51z m864 -260 c9 -8 16 -23 16 -32 -1 -14 -5 -12 -20 7 -30 35 -26 56 4 25z"/>
<path d="M761 1656 c-7 -8 -10 -19 -7 -25 3 -5 -12 -12 -34 -16 -27 -5 -54 -20 -82 -46 -48 -45 -37 -50 29 -14 25 14 55 25 66 23 16 -2 26 6 40 36 19 40 11 70 -12 42z"/>
<path d="M1500 1606 c0 -2 13 -6 29 -8 17 -2 28 -1 25 4 -5 8 -54 12 -54 4z"/>
<path d="M1207 1532 c-19 -20 -23 -37 -7 -27 10 6 33 45 27 45 -2 0 -11 -8 -20 -18z"/>
<path d="M858 1397 c-13 -4 -31 -16 -41 -25 -10 -9 -30 -17 -45 -18 -19 0 -27 -6 -27 -20 -1 -11 -8 -31 -18 -44 -9 -13 -17 -30 -17 -37 0 -7 -4 -13 -10 -13 -5 0 -10 -9 -10 -20 0 -11 -5 -20 -11 -20 -6 0 -8 9 -4 20 4 12 2 20 -5 20 -7 0 -10 -13 -8 -32 5 -54 46 -35 83 37 14 27 65 35 164 25 46 -5 88 -7 92 -5 3 3 21 0 38 -6 37 -13 81 -4 81 16 0 8 9 15 19 15 22 0 34 15 39 48 3 25 -28 42 -79 42 -17 0 -38 4 -47 9 -23 12 -167 18 -194 8z"/>
<path d="M1188 1383 c12 -2 30 -2 40 0 9 3 -1 5 -23 4 -22 0 -30 -2 -17 -4z"/>
<path d="M1240 1300 c20 -13 53 -13 45 0 -3 6 -18 10 -33 10 -21 0 -24 -2 -12 -10z"/>
<path d="M1160 1181 c0 -16 -5 -17 -41 -11 -56 10 -79 3 -79 -26 0 -16 -6 -24 -17 -24 -9 0 -24 -7 -32 -15 -12 -10 -48 -15 -126 -17 -106 -3 -142 3 -130 22 4 6 14 4 25 -2 15 -10 22 -10 32 0 9 9 6 12 -15 12 -14 0 -35 9 -45 20 -16 17 -21 18 -31 7 -8 -11 -7 -20 6 -38 10 -13 23 -33 28 -43 6 -11 29 -24 50 -31 22 -7 60 -21 85 -33 56 -26 124 -24 174 6 20 12 47 22 58 22 12 0 41 9 65 21 40 19 42 22 26 34 -16 12 -14 15 20 35 20 12 37 24 37 26 0 3 -11 9 -25 14 -14 5 -25 16 -25 25 0 8 -9 15 -20 15 -13 0 -20 -7 -20 -19z"/>
<path d="M850 1130 c-20 -6 -14 -8 27 -9 28 -1 55 4 58 9 7 12 -48 12 -85 0z"/>
<path d="M1808 745 c-8 -19 -8 -32 1 -52 12 -25 10 -30 -14 -50 -19 -17 -39 -23 -73 -23 l-47 0 27 25 c34 31 44 63 26 81 -27 27 -138 -25 -138 -65 0 -10 -5 -33 -11 -51 l-12 -32 -133 7 c-125 7 -136 6 -167 -14 -49 -30 -88 -26 -57 5 11 11 -43 36 -107 49 -30 6 -33 5 -33 -19 0 -19 -11 -33 -40 -52 l-41 -27 27 -28 c23 -25 26 -33 20 -73 l-7 -45 44 -6 c24 -4 61 -2 83 3 56 15 102 17 161 8 51 -8 138 7 278 49 28 8 94 21 147 29 110 17 145 30 129 50 -14 17 2 31 49 43 48 13 65 57 33 83 -15 11 -21 27 -20 45 2 23 -5 32 -48 56 -62 34 -63 35 -77 4z"/>
<path d="M971 430 c0 -15 -6 -31 -12 -37 -7 -7 -8 -13 0 -17 12 -8 25 34 18 61 -3 13 -5 11 -6 -7z"/>
</g>
<g id="layer108" fill="#d0915d" stroke="none">
<path d="M1248 1883 c-50 -4 -59 -13 -72 -66 -6 -24 -3 -30 14 -34 24 -6 27 -28 4 -37 -8 -3 -12 -11 -9 -16 5 -8 11 -7 20 0 17 14 35 5 35 -17 0 -11 6 -14 23 -9 63 17 95 18 120 2 14 -10 56 -20 96 -23 65 -5 74 -4 92 16 11 11 26 21 34 21 8 0 15 4 15 9 0 14 37 20 49 8 6 -6 11 -23 11 -37 0 -14 6 -32 13 -38 6 -7 17 -36 22 -64 6 -28 16 -53 23 -56 7 -2 12 0 11 5 -7 41 28 63 38 23 6 -22 28 -27 39 -8 4 6 -2 19 -14 29 -15 11 -20 23 -16 36 16 43 88 71 100 38 4 -8 12 -15 19 -15 25 0 27 21 5 45 -16 17 -18 25 -9 31 7 4 14 3 17 -4 5 -17 22 -15 22 3 0 12 -14 15 -70 15 -57 0 -74 4 -90 20 -11 11 -31 20 -44 20 -14 0 -27 4 -31 10 -3 5 -12 7 -19 4 -8 -3 -36 3 -63 14 -91 37 -136 45 -194 33 -36 -8 -54 -8 -59 -1 -5 9 -84 53 -85 48 0 -1 -21 -3 -47 -5z m278 -83 c8 0 14 -4 14 -9 0 -12 -53 -21 -64 -11 -12 12 4 32 21 26 8 -3 21 -6 29 -6z m-76 -74 c0 -8 -4 -17 -9 -21 -12 -7 -24 12 -16 25 9 15 25 12 25 -4z"/>
<path d="M1820 1631 c0 -15 16 -22 35 -15 13 5 14 8 3 15 -18 12 -38 11 -38 0z"/>
<path d="M1628 705 c-19 -11 -28 -26 -33 -55 -4 -21 -15 -50 -26 -64 -10 -13 -19 -29 -19 -35 0 -18 -58 -13 -68 6 -8 14 -23 15 -112 10 -56 -3 -107 -10 -113 -16 -15 -15 -37 -14 -57 4 -9 8 -40 19 -69 25 -51 10 -53 9 -81 -21 -24 -27 -27 -35 -18 -55 7 -15 20 -24 33 -24 16 0 28 -10 39 -34 18 -37 30 -44 89 -48 24 -1 41 3 47 11 6 11 17 12 53 2 66 -16 91 -14 183 14 65 20 83 29 88 47 3 13 1 25 -4 26 -6 2 -10 7 -10 11 0 5 18 5 41 1 76 -14 100 9 57 52 -29 29 -31 82 -5 126 21 36 21 36 -15 17z m-249 -168 c13 -16 5 -27 -20 -27 -21 0 -33 15 -24 30 9 14 31 12 44 -3z"/>
</g>
<g id="layer109" fill="#e2b874" stroke="none">
<path d="M1203 1858 c-6 -7 -13 -25 -17 -40 -5 -22 -3 -28 9 -28 9 0 19 -8 23 -17 4 -10 13 -28 21 -39 13 -20 17 -21 64 -8 37 10 55 10 74 1 19 -8 26 -8 32 2 5 7 19 11 32 9 18 -2 23 -9 22 -26 -3 -20 1 -22 46 -22 34 0 51 5 55 15 3 8 14 15 24 15 15 0 18 5 14 25 -4 25 11 35 23 15 3 -5 17 -10 30 -10 15 0 26 -7 30 -20 8 -24 25 -17 25 10 0 22 -29 39 -132 76 -69 25 -75 26 -140 14 -66 -13 -83 -10 -83 13 0 24 -134 37 -152 15z m354 -67 c19 -27 -2 -41 -45 -29 -41 11 -56 27 -42 43 13 16 72 6 87 -14z"/>
<path d="M1785 1711 c5 -10 -8 -15 -19 -8 -2 1 -12 -6 -23 -15 -23 -21 -21 -107 3 -87 7 6 18 8 23 5 6 -4 14 8 19 26 6 24 16 35 38 42 74 22 77 40 6 44 -36 2 -52 0 -47 -7z"/>
<path d="M1600 625 c0 -15 4 -24 10 -20 6 3 10 12 10 20 0 8 -4 17 -10 20 -6 4 -10 -5 -10 -20z"/>
<path d="M1061 556 c-28 -30 -24 -58 8 -66 14 -3 31 -19 40 -38 14 -27 21 -32 53 -32 20 0 40 -5 44 -12 5 -8 10 -5 15 9 7 19 12 20 46 12 83 -21 109 -21 180 1 90 27 103 37 96 73 -4 22 -11 27 -34 27 -17 0 -32 6 -35 15 -4 10 -20 15 -50 15 -41 0 -44 -2 -35 -19 8 -14 7 -22 -3 -30 -20 -17 -66 -3 -66 20 0 23 2 23 -56 3 -44 -15 -47 -15 -60 5 -14 19 -69 41 -105 41 -8 0 -26 -11 -38 -24z"/>
<path d="M1577 563 c-28 -7 -16 -39 13 -35 14 1 33 4 43 5 20 2 23 27 3 27 -8 0 -20 2 -28 4 -7 2 -21 2 -31 -1z"/>
</g>


</svg>