<!DOCTYPE svg PUBLIC "-//W3C//DTD SVG 20010904//EN" "http://www.w3.org/TR/2001/REC-SVG-20010904/DTD/svg10.dtd">
<svg version="1.0" xmlns="http://www.w3.org/2000/svg" width="250px" height="194px" viewBox="0 0 2500 1940" preserveAspectRatio="xMidYMid meet">
<g id="layer101" fill="#10100e" stroke="none">
<path d="M804 1617 c-23 -20 -32 -23 -51 -14 -16 7 -26 7 -36 -1 -8 -7 -31 -14 -53 -17 -66 -8 -157 -89 -206 -184 -7 -14 -27 -46 -44 -71 -63 -91 -95 -192 -76 -235 7 -14 12 -38 12 -53 0 -15 7 -37 15 -50 11 -14 14 -33 10 -54 -7 -40 28 -98 100 -167 l46 -44 34 16 34 16 -5 -62 c-5 -45 -1 -74 11 -107 9 -25 24 -65 33 -90 8 -25 23 -56 32 -70 9 -14 24 -44 34 -67 18 -41 35 -57 129 -127 117 -88 290 -83 421 12 113 81 216 173 216 192 0 5 8 10 18 10 23 0 132 64 155 92 10 12 15 28 12 37 -4 9 -8 30 -10 46 -1 17 -15 51 -31 78 -33 54 -60 66 -144 64 -65 -2 -120 -37 -150 -97 -11 -21 -28 -40 -40 -43 -25 -6 -25 6 -1 41 10 15 34 52 53 82 19 30 44 68 54 84 26 39 55 87 68 111 6 12 21 20 36 20 36 0 59 53 60 138 0 64 -1 68 -29 85 -53 32 -36 39 148 55 27 2 35 -16 46 -106 8 -64 9 -73 19 -118 6 -27 3 -45 -9 -69 -13 -25 -15 -44 -9 -84 4 -28 7 -54 6 -58 -3 -13 79 -88 104 -94 40 -10 116 4 144 26 14 12 32 23 40 26 8 3 22 20 31 37 12 25 24 33 57 39 22 4 69 19 104 33 35 15 78 31 96 36 37 12 55 44 38 71 -6 10 -31 22 -55 27 -37 8 -58 5 -120 -14 -42 -13 -94 -26 -116 -30 l-40 -6 -2 174 c-2 190 -9 228 -63 335 -36 72 -49 82 -145 117 -96 34 -252 43 -390 22 -55 -9 -122 -18 -148 -22 -57 -7 -122 -31 -157 -58 l-25 -19 -3 35 c-3 32 -7 36 -60 55 -31 11 -75 24 -97 27 -22 4 -47 9 -57 11 -9 3 -29 -6 -44 -19z"/>
</g>
<g id="layer102" fill="#31342f" stroke="none">
<path d="M832 1568 c-7 -7 -12 -18 -12 -26 0 -11 -10 -13 -45 -8 -47 7 -57 -1 -30 -24 13 -10 20 -10 39 -1 20 11 26 9 54 -17 28 -26 37 -29 77 -24 42 4 47 3 52 -19 6 -22 7 -21 19 11 26 71 20 84 -44 103 -68 20 -94 21 -110 5z"/>
<path d="M1570 1533 c0 -18 27 -97 57 -165 22 -51 53 -53 53 -2 0 28 8 42 37 69 34 31 36 36 25 60 -15 32 -67 55 -127 55 -36 0 -45 -3 -45 -17z"/>
<path d="M1410 1525 c-10 -12 -10 -21 0 -45 14 -35 12 -33 45 -18 34 15 34 55 -1 68 -32 12 -29 13 -44 -5z"/>
<path d="M1504 1525 c-8 -19 10 -69 46 -132 51 -89 81 -61 39 34 -12 27 -27 59 -33 73 -18 40 -42 52 -52 25z"/>
<path d="M1222 1513 c-110 -33 -103 -94 17 -167 42 -25 89 -50 104 -56 33 -12 124 -14 131 -2 6 9 -62 149 -91 185 -12 16 -23 33 -25 38 -6 18 -81 19 -136 2z"/>
<path d="M588 1468 c-52 -56 -56 -69 -32 -89 13 -10 17 -10 25 2 5 8 8 24 6 36 -8 43 17 46 63 8 49 -41 70 -44 70 -12 0 30 -50 107 -69 107 -8 0 -36 -23 -63 -52z"/>
<path d="M1468 1442 c-16 -9 -28 -20 -28 -23 0 -16 30 -29 54 -23 29 7 33 21 14 47 -12 15 -15 15 -40 -1z"/>
<path d="M808 1393 c-34 -37 -23 -50 53 -67 132 -30 155 -31 169 -6 16 30 7 47 -32 55 -18 4 -38 11 -44 16 -6 5 -38 12 -70 15 -50 5 -62 3 -76 -13z"/>
<path d="M1807 1403 c-18 -5 -18 -5 0 -19 16 -13 15 -14 -17 -12 -33 3 -35 1 -38 -28 -2 -18 6 -70 17 -117 12 -46 21 -94 21 -106 0 -19 5 -21 66 -21 l66 0 -6 48 c-3 26 -5 81 -5 123 0 68 -3 80 -26 108 -26 30 -39 34 -78 24z"/>
<path d="M600 1381 c-15 -29 -14 -30 35 -51 47 -20 53 -28 33 -48 -8 -8 -9 -15 -2 -22 8 -8 19 -1 37 23 23 31 25 38 14 61 -7 16 -20 26 -33 26 -12 0 -27 7 -34 15 -17 21 -37 19 -50 -4z"/>
<path d="M1500 1370 c-11 -7 -12 -14 -4 -27 30 -48 76 -40 53 10 -13 29 -25 33 -49 17z"/>
<path d="M502 1348 c-17 -17 -15 -35 5 -47 14 -7 15 -12 5 -24 -7 -8 -21 -13 -31 -10 -19 5 -36 -21 -25 -38 10 -17 34 -9 51 19 9 15 18 29 20 31 2 2 15 -2 29 -9 17 -10 30 -11 40 -5 25 16 18 29 -28 52 -23 12 -42 27 -40 33 3 14 -11 13 -26 -2z"/>
<path d="M1067 1312 c-27 -30 -20 -50 26 -73 23 -12 49 -27 57 -34 8 -7 51 -18 95 -24 63 -9 85 -17 107 -38 l28 -27 0 36 c0 35 0 35 -139 106 -77 40 -143 72 -149 72 -5 0 -16 -8 -25 -18z"/>
<path d="M748 1272 c-37 -39 -108 -149 -108 -165 0 -8 9 -22 20 -32 17 -15 20 -16 20 -3 0 27 106 115 159 133 46 15 91 58 77 72 -3 3 -32 7 -63 7 -32 1 -63 5 -69 8 -6 4 -22 -5 -36 -20z"/>
<path d="M503 1220 c-3 -11 -12 -20 -20 -20 -8 0 -11 -4 -8 -10 3 -5 12 -10 20 -10 8 0 26 -11 41 -25 15 -14 35 -25 44 -25 24 0 43 25 36 48 -5 14 -1 21 14 25 11 3 20 10 20 17 0 8 -14 9 -44 5 -28 -5 -46 -3 -50 4 -12 19 -47 13 -53 -9z"/>
<path d="M928 1209 c-32 -18 -19 -29 36 -29 62 0 78 11 40 29 -30 13 -53 14 -76 0z"/>
<path d="M444 1169 c4 -35 19 -49 54 -49 36 0 22 30 -30 63 l-28 17 4 -31z"/>
<path d="M907 1143 c-4 -3 -7 -17 -7 -30 0 -28 -11 -29 -34 -4 -19 21 -39 19 -74 -7 -29 -22 -40 -97 -16 -106 20 -8 8 -26 -17 -26 -23 0 -23 -2 -5 -43 28 -64 92 -108 111 -77 9 15 35 12 35 -5 0 -8 14 -17 35 -21 44 -8 142 -1 155 12 15 15 0 52 -23 58 -21 5 -21 6 -2 20 16 11 20 26 20 78 0 56 -3 64 -22 73 -31 13 -29 35 2 35 33 0 33 28 -1 40 -29 11 -147 14 -157 3z"/>
<path d="M1431 1119 c-16 -47 -13 -77 8 -89 21 -11 43 6 23 19 -12 7 -4 61 9 61 5 0 9 5 9 11 0 5 -4 7 -10 4 -5 -3 -10 1 -10 9 0 27 -18 18 -29 -15z"/>
<path d="M1119 1088 c-13 -11 -14 -31 -10 -118 6 -102 7 -105 30 -105 38 0 64 45 69 118 3 54 1 65 -20 90 -26 29 -46 34 -69 15z"/>
<path d="M1256 1073 c-3 -3 -6 -34 -6 -67 0 -34 -5 -81 -11 -105 -12 -54 -7 -60 22 -27 12 14 29 26 38 26 8 0 23 7 33 17 17 15 18 15 18 -3 0 -17 1 -17 16 -3 22 22 29 92 14 129 -14 35 -35 41 -24 8 l6 -23 -23 21 c-26 23 -72 38 -83 27z"/>
<path d="M580 1053 c-14 -9 -27 -18 -29 -19 -9 -7 73 -135 105 -164 42 -37 67 -29 39 13 -9 14 -17 45 -19 70 -2 30 -11 55 -30 80 -33 42 -33 43 -66 20z"/>
<path d="M1792 1053 c3 -15 14 -18 63 -18 49 0 60 3 63 18 3 15 -5 17 -63 17 -58 0 -66 -2 -63 -17z"/>
<path d="M426 1022 c-3 -6 1 -15 9 -22 18 -15 19 -34 3 -60 -10 -16 -9 -27 9 -64 30 -61 63 -82 102 -66 16 6 36 19 45 29 14 15 12 22 -28 72 -24 30 -49 65 -55 78 -7 13 -20 21 -30 19 -10 -2 -25 3 -34 10 -9 8 -18 9 -21 4z m79 -62 c3 -5 -3 -10 -14 -10 -11 0 -23 5 -26 10 -3 6 3 10 14 10 11 0 23 -4 26 -10z"/>
<path d="M2113 946 c-56 -19 -105 -31 -109 -27 -6 5 4 -50 10 -56 4 -5 183 56 231 78 47 21 48 23 25 30 -41 11 -50 10 -157 -25z"/>
<path d="M1811 960 c-39 -9 -49 -36 -24 -60 20 -18 28 -43 35 -110 3 -23 7 -25 41 -22 21 2 53 13 72 25 42 27 46 65 13 131 -21 44 -22 45 -67 44 -25 -1 -57 -4 -70 -8z"/>
<path d="M766 792 c17 -15 64 -52 104 -82 40 -30 78 -60 84 -66 6 -6 22 -18 36 -26 24 -16 26 -15 65 19 25 23 35 37 27 40 -7 3 -26 16 -41 29 -20 17 -41 24 -69 24 -23 0 -49 8 -63 18 -13 11 -41 22 -62 25 -20 3 -50 15 -66 26 -42 30 -52 25 -15 -7z"/>
<path d="M910 792 c0 -7 11 -19 25 -28 21 -14 30 -14 55 -4 33 14 40 30 13 30 -10 0 -35 3 -55 6 -25 4 -38 3 -38 -4z"/>
<path d="M1176 780 c-52 -7 -75 -20 -76 -42 0 -4 12 -10 28 -14 46 -10 53 -14 47 -23 -3 -5 0 -13 6 -16 13 -9 56 30 75 67 22 43 27 42 -80 28z"/>
<path d="M670 721 c-22 -43 4 -204 41 -250 18 -23 21 -23 67 -10 81 22 191 79 185 95 -3 8 -10 14 -17 14 -6 0 -62 38 -125 85 -62 47 -119 85 -127 85 -7 0 -18 -9 -24 -19z"/>
<path d="M1484 686 c-17 -14 -43 -28 -58 -32 -25 -6 -28 -5 -21 15 8 28 -10 27 -29 -1 -23 -33 -20 -53 20 -111 20 -28 37 -53 38 -54 6 -7 113 31 128 44 22 20 18 96 -6 122 -9 10 -16 23 -16 29 0 19 -22 14 -56 -12z"/>
<path d="M1095 603 c-32 -28 -37 -36 -25 -43 22 -14 23 -13 58 23 26 27 30 36 20 44 -10 8 -23 2 -53 -24z"/>
<path d="M1277 544 c-11 -11 64 -94 84 -94 28 0 23 15 -17 60 -35 38 -53 48 -67 34z"/>
<path d="M1206 491 c-21 -17 -47 -33 -59 -37 -35 -10 -127 -83 -127 -100 0 -8 4 -13 9 -10 11 7 36 -22 28 -31 -4 -3 -14 0 -24 8 -14 12 -14 9 3 -21 17 -30 26 -35 62 -37 39 -3 47 1 99 52 31 30 63 55 69 55 7 0 25 11 41 24 l28 24 -44 48 c-25 27 -45 50 -46 52 -1 1 -19 -11 -39 -27z"/>
<path d="M927 493 c-8 -7 -10 -43 -2 -43 16 0 55 26 55 37 0 13 -41 18 -53 6z"/>
<path d="M863 473 c-18 -7 -17 -53 1 -53 20 0 37 25 30 44 -6 17 -10 18 -31 9z"/>
<path d="M778 439 c-23 -13 -23 -45 -1 -53 22 -9 58 27 50 48 -7 18 -24 20 -49 5z"/>
<path d="M950 444 c-70 -23 -150 -69 -150 -86 0 -13 33 -9 65 8 17 9 40 20 53 25 40 15 23 0 -27 -26 -59 -29 -67 -40 -49 -62 37 -45 141 -49 123 -5 -4 9 -10 36 -12 60 -5 35 -2 47 17 67 23 25 17 30 -20 19z"/>
</g>
<g id="layer103" fill="#51382c" stroke="none">
<path d="M843 1565 c-35 -24 -28 -40 23 -53 49 -13 66 -10 46 10 -20 20 -14 30 16 26 23 -2 27 -7 24 -29 -2 -25 22 -58 34 -46 3 3 7 20 7 38 2 30 -1 33 -43 45 -25 7 -54 15 -65 19 -11 3 -30 -1 -42 -10z"/>
<path d="M745 1520 c3 -5 12 -10 20 -10 8 0 17 5 20 10 4 6 -5 10 -20 10 -15 0 -24 -4 -20 -10z"/>
<path d="M608 1488 c-16 -16 -18 -23 -8 -26 7 -3 34 -20 58 -39 49 -37 69 -33 58 12 -8 32 -49 75 -71 75 -8 0 -25 -10 -37 -22z"/>
<path d="M551 1421 c-8 -14 -7 -22 4 -31 11 -9 16 -7 23 7 10 20 6 43 -8 43 -5 0 -14 -9 -19 -19z"/>
<path d="M612 1388 c-14 -14 -16 -35 -3 -43 14 -8 35 35 24 46 -5 5 -14 4 -21 -3z"/>
<path d="M839 1384 c-6 -8 -18 -14 -25 -14 -8 0 -14 -6 -14 -13 0 -13 41 -27 143 -48 54 -12 59 -11 79 8 29 30 17 57 -21 50 -21 -4 -34 -1 -46 13 -21 23 -98 25 -116 4z"/>
<path d="M500 1335 c-10 -12 -10 -15 4 -15 9 0 16 7 16 15 0 8 -2 15 -4 15 -2 0 -9 -7 -16 -15z"/>
<path d="M701 1316 c-8 -9 -11 -19 -7 -23 9 -9 29 13 24 27 -2 8 -8 7 -17 -4z"/>
<path d="M1070 1302 c-13 -10 -20 -24 -17 -30 4 -6 37 -27 73 -47 51 -29 79 -37 130 -41 35 -2 64 -1 64 4 -1 23 -45 56 -123 92 -48 22 -91 40 -96 40 -5 0 -19 -8 -31 -18z"/>
<path d="M740 1257 c-33 -40 -100 -140 -100 -149 0 -23 48 -2 107 47 38 30 78 55 89 55 26 0 74 36 74 56 0 9 -11 14 -30 14 -23 0 -33 -6 -40 -25 -9 -25 -22 -35 -17 -14 1 6 -11 19 -28 28 -30 17 -30 17 -55 -12z"/>
<path d="M460 1240 c0 -5 7 -10 15 -10 8 0 15 5 15 10 0 6 -7 10 -15 10 -8 0 -15 -4 -15 -10z"/>
<path d="M503 1213 c-5 -11 5 -27 32 -50 43 -37 60 -41 73 -15 15 26 -3 58 -39 71 -44 15 -59 14 -66 -6z"/>
<path d="M928 1209 c-32 -18 -19 -29 37 -29 59 0 72 14 29 30 -32 12 -44 12 -66 -1z"/>
<path d="M592 1035 c-19 -21 -20 -26 -7 -31 8 -4 15 -12 15 -20 0 -8 5 -14 11 -14 7 0 9 -9 5 -23 -7 -29 46 -97 75 -97 26 0 24 15 -7 39 -21 16 -23 23 -15 40 16 28 3 75 -28 105 l-27 26 -22 -25z"/>
<path d="M430 1014 c0 -17 23 -34 47 -34 13 0 23 5 23 10 0 6 -10 10 -23 10 -13 0 -28 5 -35 12 -7 7 -12 8 -12 2z"/>
<path d="M1890 960 c-8 -5 -34 -10 -56 -10 -58 0 -73 -20 -39 -54 15 -15 25 -37 25 -53 0 -54 10 -70 42 -71 41 -1 108 44 108 73 0 31 -40 125 -54 125 -6 0 -18 -5 -26 -10z"/>
<path d="M440 935 c-11 -13 -9 -22 6 -51 25 -47 59 -84 78 -84 9 0 30 13 48 29 l33 29 -30 37 c-17 21 -34 38 -40 39 -5 0 -14 -19 -20 -43 -6 -25 -16 -46 -22 -48 -10 -4 -26 42 -22 63 7 40 -9 55 -31 29z"/>
<path d="M744 811 c4 -6 33 -29 64 -51 31 -22 74 -54 94 -71 29 -25 42 -30 64 -25 14 4 24 10 21 13 -3 3 1 12 10 21 14 14 14 17 -3 23 -11 4 -30 8 -42 8 -13 1 -35 10 -49 21 -14 11 -37 20 -51 20 -14 0 -45 12 -70 26 -25 15 -42 21 -38 15z"/>
<path d="M916 792 c-11 -18 23 -35 60 -29 36 6 51 13 43 21 -11 9 -98 16 -103 8z"/>
<path d="M1221 745 c-32 -48 -29 -60 6 -22 27 29 46 67 34 67 -5 0 -23 -20 -40 -45z"/>
<path d="M1124 759 c-15 -17 -16 -22 -4 -29 16 -10 37 0 64 29 19 21 19 21 -11 21 -17 0 -38 -9 -49 -21z"/>
<path d="M1495 688 c-11 -7 -26 -18 -33 -25 -7 -7 -27 -13 -44 -13 -23 0 -29 4 -24 16 3 9 2 12 -5 8 -28 -17 -25 -47 8 -97 18 -27 33 -53 33 -58 0 -24 124 12 139 40 13 23 -3 97 -24 121 -21 23 -23 23 -50 8z"/>
</g>
<g id="layer104" fill="#585034" stroke="none">
<path d="M829 1554 c-14 -17 -3 -34 22 -34 11 0 17 5 14 10 -3 6 -2 10 2 10 5 0 18 7 29 15 18 13 16 14 -19 13 -20 -1 -42 -7 -48 -14z"/>
<path d="M961 1529 c-8 -23 1 -49 19 -49 15 0 19 45 5 59 -12 13 -16 11 -24 -10z"/>
<path d="M634 1485 c-9 -22 1 -42 31 -61 21 -14 28 -15 35 -5 11 19 1 49 -23 66 -27 19 -36 19 -43 0z"/>
<path d="M553 1415 c-3 -9 -3 -18 0 -21 9 -9 27 6 27 22 0 19 -19 18 -27 -1z"/>
<path d="M617 1384 c-4 -4 -7 -14 -7 -23 0 -11 3 -12 11 -4 6 6 10 16 7 23 -2 6 -7 8 -11 4z"/>
<path d="M840 1376 c-7 -9 -16 -14 -20 -11 -5 3 -11 1 -14 -4 -7 -10 43 -31 89 -37 56 -8 64 -10 71 -17 13 -13 37 -7 55 15 23 26 24 34 4 42 -8 3 -15 2 -15 -3 0 -12 -51 0 -56 14 -7 18 -98 19 -114 1z m145 -34 c-6 -7 -55 11 -50 18 3 5 16 3 29 -3 14 -7 23 -13 21 -15z"/>
<path d="M1086 1305 c-7 -8 -17 -11 -20 -8 -4 4 -5 -4 -3 -18 2 -14 12 -25 23 -28 10 -1 33 -13 50 -26 27 -21 80 -38 124 -40 17 0 40 14 40 25 0 14 -109 72 -121 64 -7 -4 -9 -3 -6 3 4 6 -11 17 -33 26 -34 13 -42 13 -54 2z"/>
<path d="M737 1245 c-15 -19 -27 -38 -26 -41 0 -4 -3 -10 -8 -13 -19 -14 -44 -50 -48 -70 -5 -28 12 -27 20 2 4 12 25 39 46 60 22 21 37 42 34 48 -4 5 -1 17 6 25 6 8 10 16 8 19 -3 2 -17 -11 -32 -30z"/>
<path d="M846 1244 c-8 -21 -8 -24 3 -24 12 0 22 28 12 35 -5 3 -12 -2 -15 -11z"/>
<path d="M510 1212 c0 -25 56 -74 79 -70 10 3 15 12 13 28 -3 28 -13 40 -33 43 -8 2 -20 7 -28 11 -11 7 -12 6 -6 -5 8 -12 6 -12 -8 0 -15 12 -17 11 -17 -7z"/>
<path d="M759 1208 c-7 -13 -12 -27 -11 -31 1 -5 -2 -6 -7 -3 -5 3 -14 -1 -21 -9 -10 -12 -9 -15 8 -15 23 0 56 44 47 63 -4 7 1 3 9 -7 9 -11 16 -15 16 -9 0 6 -6 16 -14 22 -12 10 -17 8 -27 -11z"/>
<path d="M921 1201 c-9 -6 -10 -10 -2 -16 16 -9 92 5 85 16 -7 11 -65 12 -83 0z"/>
<path d="M610 1034 c0 -8 4 -12 10 -9 5 3 7 0 5 -8 -3 -7 3 -22 15 -32 22 -20 26 -40 10 -50 -6 -4 -7 1 -4 12 5 16 4 16 -10 -1 -14 -17 -13 -22 15 -57 33 -42 46 -48 46 -23 0 9 -11 20 -25 25 -18 7 -22 13 -16 27 15 31 9 90 -11 111 -22 25 -35 27 -35 5z"/>
<path d="M445 918 c1 -13 6 -32 12 -42 8 -15 10 -11 8 20 -2 21 -7 40 -12 41 -5 2 -8 -7 -8 -19z"/>
<path d="M520 876 c-6 -19 -16 -37 -23 -39 -9 -3 -9 -8 1 -20 12 -14 17 -13 53 6 44 23 47 32 20 65 -26 30 -38 28 -51 -12z"/>
<path d="M853 763 c-7 -2 -13 -9 -13 -14 0 -5 6 -8 13 -6 6 1 11 -3 10 -10 -2 -7 19 -27 45 -44 26 -18 44 -29 40 -25 -3 4 2 16 13 27 22 22 16 43 -11 36 -10 -2 -31 6 -46 19 -31 25 -32 25 -51 17z"/>
</g>
<g id="layer105" fill="#86754c" stroke="none">
<path d="M970 1533 c0 -5 5 -15 10 -23 8 -12 10 -11 10 8 0 12 -4 22 -10 22 -5 0 -10 -3 -10 -7z"/>
<path d="M840 1351 c0 -11 14 -16 97 -32 66 -12 93 -4 93 27 0 18 -9 18 -30 -1 -15 -14 -21 -14 -53 0 -40 17 -107 20 -107 6z"/>
<path d="M1190 1255 c0 -8 5 -26 12 -40 10 -22 17 -26 47 -23 53 4 51 29 -4 56 -54 26 -55 26 -55 7z"/>
<path d="M925 1199 c-4 -6 -5 -13 -2 -16 9 -9 87 8 81 18 -7 13 -71 11 -79 -2z"/>
<path d="M920 781 c0 -15 35 -23 66 -15 25 7 26 8 9 15 -28 11 -75 11 -75 0z"/>
<path d="M872 730 c12 -17 32 -37 45 -45 20 -14 23 -13 33 6 7 11 10 21 8 22 -2 1 -22 12 -45 25 -57 30 -68 28 -41 -8z"/>
</g>
<g id="layer106" fill="#ac7250" stroke="none">
<path d="M926 1201 c-8 -13 10 -17 51 -13 25 3 31 7 22 13 -18 12 -66 11 -73 0z"/>
<path d="M920 781 c0 -14 37 -23 61 -16 17 6 19 9 8 16 -19 12 -69 11 -69 0z"/>
</g>
<g id="layer107" fill="#d89569" stroke="none">
<path d="M930 1200 c-11 -7 -3 -10 30 -10 33 0 41 3 30 10 -8 5 -22 10 -30 10 -8 0 -22 -5 -30 -10z"/>
<path d="M943 773 c9 -2 25 -2 35 0 9 3 1 5 -18 5 -19 0 -27 -2 -17 -5z"/>
</g>


</svg>